{"glyphs":{"0":{"ha":807,"x_min":57,"x_max":749,"o":"m 403 -14 q 139 117 221 -14 q 57 486 57 247 q 403 986 57 986 q 749 486 749 986 q 403 -14 749 -14 m 403 42 q 564 158 515 42 q 613 486 613 274 q 564 815 613 699 q 403 931 515 931 q 242 815 290 931 q 193 486 193 699 q 242 158 193 274 q 403 42 290 42 z "},"1":{"ha":807,"x_min":163,"x_max":615,"o":"m 206 36 l 263 36 q 343 86 343 36 l 343 890 l 163 811 l 163 878 l 479 1006 l 479 86 q 499 48 479 60 q 560 36 519 36 l 615 36 l 615 0 l 206 0 l 206 36 z "},"2":{"ha":807,"x_min":61,"x_max":725,"o":"m 61 74 q 120 203 79 144 q 211 307 161 263 q 336 408 261 351 q 462 515 411 467 q 547 622 513 563 q 581 747 581 681 q 534 881 581 831 q 386 931 488 931 q 260 894 306 931 q 214 794 214 858 q 197 758 214 774 q 153 743 181 743 q 106 758 124 743 q 88 803 88 774 q 128 894 88 851 q 238 961 168 936 q 396 986 308 986 q 623 924 536 986 q 710 735 710 863 q 670 596 710 658 q 575 486 631 533 q 428 376 519 439 q 262 246 325 306 q 178 111 199 186 l 178 89 l 604 89 q 660 122 640 89 q 692 214 679 156 l 725 214 l 708 0 l 61 0 l 61 74 z "},"3":{"ha":807,"x_min":74,"x_max":721,"o":"m 379 -14 q 222 10 292 -14 q 113 76 153 35 q 74 165 74 117 q 92 211 74 196 q 139 226 110 226 q 183 212 167 226 q 199 178 199 197 q 247 78 199 114 q 375 42 294 42 q 530 105 472 42 q 588 276 588 168 q 528 428 588 368 q 372 488 468 488 l 258 488 l 258 544 l 372 544 q 485 577 440 544 q 552 658 531 610 q 574 757 574 707 q 526 883 574 835 q 389 931 479 931 q 263 894 308 931 q 217 794 217 858 q 200 758 217 774 q 156 743 183 743 q 109 759 128 743 q 90 806 90 775 q 130 897 90 856 q 240 963 169 939 q 399 986 310 986 q 615 926 528 986 q 701 743 701 867 q 649 601 701 664 q 517 521 597 538 l 517 515 q 660 438 599 497 q 721 279 721 378 q 623 58 721 129 q 379 -14 525 -14 z "},"4":{"ha":807,"x_min":43,"x_max":771,"o":"m 350 36 l 407 36 q 488 86 488 36 l 488 233 l 43 233 l 43 308 l 486 976 l 624 976 l 624 307 l 771 307 l 753 233 l 624 233 l 624 86 q 706 36 624 36 l 760 36 l 760 0 l 350 0 l 350 36 m 488 307 l 488 872 l 118 307 l 488 307 z "},"5":{"ha":807,"x_min":79,"x_max":715,"o":"m 379 -14 q 218 10 286 -14 q 115 72 150 35 q 79 144 79 108 q 94 194 79 178 q 133 211 110 211 q 166 198 154 211 q 182 165 178 185 q 242 72 193 101 q 365 42 290 42 q 524 114 467 42 q 581 300 581 186 q 531 479 581 407 q 382 551 482 551 q 156 446 253 551 l 108 463 l 167 972 l 578 972 q 614 984 600 972 q 635 1024 628 996 l 671 1024 l 660 886 l 221 886 l 182 536 q 406 608 272 608 q 641 520 567 608 q 715 300 715 432 q 678 140 715 211 q 566 28 642 69 q 379 -14 490 -14 z "},"6":{"ha":807,"x_min":69,"x_max":738,"o":"m 404 -14 q 69 424 69 -14 q 163 842 69 699 q 429 986 256 986 q 574 960 513 986 q 667 894 635 935 q 700 806 700 853 q 684 759 700 775 q 640 743 668 743 q 585 800 585 743 q 544 897 585 863 q 426 931 503 931 q 264 817 325 931 q 201 471 203 703 q 300 581 232 544 q 443 618 368 618 q 597 581 531 618 q 701 474 664 543 q 738 311 738 404 q 652 73 738 160 q 404 -14 567 -14 m 407 42 q 552 112 501 42 q 603 296 603 182 q 553 488 603 414 q 411 563 504 563 q 311 529 356 563 q 242 437 267 496 q 217 304 217 378 q 267 118 217 194 q 407 42 318 42 z "},"7":{"ha":807,"x_min":75,"x_max":728,"o":"m 289 -6 q 244 10 263 -6 q 226 56 226 26 q 333 482 226 260 q 601 886 439 704 l 182 886 q 133 851 150 886 q 114 776 115 817 l 75 776 l 75 972 l 728 972 l 728 925 q 469 503 561 726 q 368 67 378 279 q 349 13 367 32 q 289 -6 332 -6 z "},"8":{"ha":807,"x_min":67,"x_max":739,"o":"m 532 519 q 684 419 629 478 q 739 261 739 361 q 651 61 739 136 q 399 -14 563 -14 q 152 58 238 -14 q 67 253 67 131 q 117 409 67 342 q 250 514 168 476 q 138 608 178 553 q 99 744 99 663 q 181 922 99 858 q 404 986 264 986 q 622 926 540 986 q 704 756 704 865 q 657 615 704 678 q 532 519 610 553 m 414 931 q 270 888 325 931 q 215 765 215 846 q 249 665 215 704 q 329 602 282 625 q 464 546 376 579 q 577 631 538 575 q 617 756 617 688 q 559 885 617 840 q 414 931 501 931 m 386 42 q 499 65 446 42 q 584 133 551 88 q 617 242 617 178 q 586 335 617 297 q 510 397 556 372 q 385 453 464 421 l 317 482 q 206 386 249 450 q 164 249 164 322 q 195 135 164 182 q 277 65 226 88 q 386 42 328 42 z "},"9":{"ha":807,"x_min":67,"x_max":735,"o":"m 375 -14 q 231 11 292 -14 q 137 77 169 36 q 104 165 104 118 q 121 212 104 196 q 164 228 138 228 q 219 169 219 228 q 260 75 219 108 q 378 42 301 42 q 540 155 479 42 q 603 500 601 268 q 500 387 572 426 q 353 347 428 347 q 144 433 221 347 q 67 661 67 518 q 152 898 67 810 q 400 986 238 986 q 735 546 735 986 q 642 128 735 271 q 375 -14 549 -14 m 389 406 q 490 440 444 406 q 562 533 536 474 q 588 667 588 593 q 537 853 588 776 q 397 929 486 929 q 252 859 303 929 q 201 675 201 789 q 249 481 201 556 q 389 406 296 406 z "},"\r":{"ha":358,"x_min":0,"x_max":0,"o":""}," ":{"ha":358,"x_min":0,"x_max":0,"o":""},"A":{"ha":1018,"x_min":7,"x_max":1011,"o":"m 1011 36 l 1011 0 l 660 0 l 660 36 l 683 36 q 731 47 714 36 q 749 78 749 58 q 744 101 749 89 l 675 292 l 286 292 l 215 101 q 213 85 213 96 q 233 49 213 63 q 282 36 254 36 l 307 36 l 307 0 l 7 0 l 7 36 l 28 36 q 85 50 56 36 q 122 86 114 64 l 451 950 l 553 992 l 900 85 q 934 49 908 63 q 986 36 960 36 l 1011 36 m 656 347 l 483 821 l 307 347 l 656 347 z "},"Á":{"ha":1018,"x_min":7,"x_max":1011,"o":"m 400 1086 l 376 1121 l 536 1269 q 554 1286 538 1271 q 597 1301 571 1301 q 632 1289 619 1301 q 644 1260 644 1276 q 597 1201 644 1228 l 400 1086 m 1011 36 l 1011 0 l 660 0 l 660 36 l 683 36 q 731 47 714 36 q 749 78 749 58 q 744 101 749 89 l 675 292 l 286 292 l 215 101 q 213 85 213 96 q 233 49 213 63 q 282 36 254 36 l 307 36 l 307 0 l 7 0 l 7 36 l 28 36 q 85 50 56 36 q 122 86 114 64 l 451 950 l 553 992 l 900 85 q 934 49 908 63 q 986 36 960 36 l 1011 36 m 656 347 l 483 821 l 307 347 l 656 347 z "},"Ă":{"ha":1018,"x_min":7,"x_max":1011,"o":"m 510 1078 q 359 1126 408 1078 q 306 1260 310 1174 l 351 1260 q 399 1171 358 1200 q 510 1142 440 1142 q 619 1171 578 1142 q 665 1260 660 1200 l 711 1260 q 658 1127 707 1176 q 510 1078 608 1078 m 1011 36 l 1011 0 l 660 0 l 660 36 l 683 36 q 731 47 714 36 q 749 78 749 58 q 744 101 749 89 l 675 292 l 286 292 l 215 101 q 213 85 213 96 q 233 49 213 63 q 282 36 254 36 l 307 36 l 307 0 l 7 0 l 7 36 l 28 36 q 85 50 56 36 q 122 86 114 64 l 451 950 l 553 992 l 900 85 q 934 49 908 63 q 986 36 960 36 l 1011 36 m 656 347 l 483 821 l 307 347 l 656 347 z "},"Ắ":{"ha":1018,"x_min":7,"x_max":1011,"o":"m 476 1247 l 451 1278 l 583 1407 q 649 1443 619 1443 q 683 1430 669 1443 q 696 1400 696 1417 q 644 1340 696 1367 l 476 1247 m 507 1081 q 358 1128 407 1081 q 306 1263 308 1176 l 350 1263 q 397 1175 356 1204 q 507 1146 438 1146 q 617 1175 576 1146 q 664 1263 658 1204 l 710 1263 q 656 1130 706 1179 q 507 1081 607 1081 m 1011 36 l 1011 0 l 660 0 l 660 36 l 683 36 q 731 47 714 36 q 749 78 749 58 q 744 101 749 89 l 675 292 l 286 292 l 215 101 q 213 85 213 96 q 233 49 213 63 q 282 36 254 36 l 307 36 l 307 0 l 7 0 l 7 36 l 28 36 q 85 50 56 36 q 122 86 114 64 l 451 950 l 553 992 l 900 85 q 934 49 908 63 q 986 36 960 36 l 1011 36 m 656 347 l 483 821 l 307 347 l 656 347 z "},"Ặ":{"ha":1018,"x_min":7,"x_max":1011,"o":"m 508 1081 q 358 1128 407 1081 q 304 1263 308 1176 l 350 1263 q 398 1174 357 1203 q 508 1144 439 1144 q 617 1174 576 1144 q 664 1263 658 1203 l 710 1263 q 656 1130 706 1179 q 508 1081 607 1081 m 1011 36 l 1011 0 l 660 0 l 660 36 l 683 36 q 731 47 714 36 q 749 78 749 58 q 744 101 749 89 l 675 292 l 286 292 l 215 101 q 213 85 213 96 q 233 49 213 63 q 282 36 254 36 l 307 36 l 307 0 l 7 0 l 7 36 l 28 36 q 85 50 56 36 q 122 86 114 64 l 451 950 l 553 992 l 900 85 q 934 49 908 63 q 986 36 960 36 l 1011 36 m 656 347 l 483 821 l 307 347 l 656 347 m 507 -89 q 553 -108 536 -89 q 571 -156 571 -126 q 553 -203 571 -185 q 507 -221 536 -221 q 460 -203 478 -221 q 442 -156 442 -185 q 460 -108 442 -126 q 507 -89 478 -89 z "},"Ằ":{"ha":1018,"x_min":7,"x_max":1011,"o":"m 360 1339 q 323 1367 336 1351 q 310 1399 310 1383 q 322 1428 310 1415 q 356 1442 333 1442 q 419 1406 386 1442 l 553 1278 l 529 1246 l 360 1339 m 507 1081 q 358 1128 407 1081 q 306 1263 308 1176 l 350 1263 q 397 1175 356 1204 q 507 1146 438 1146 q 617 1175 576 1146 q 664 1263 658 1204 l 710 1263 q 656 1130 706 1179 q 507 1081 607 1081 m 1011 36 l 1011 0 l 660 0 l 660 36 l 683 36 q 731 47 714 36 q 749 78 749 58 q 744 101 749 89 l 675 292 l 286 292 l 215 101 q 213 85 213 96 q 233 49 213 63 q 282 36 254 36 l 307 36 l 307 0 l 7 0 l 7 36 l 28 36 q 85 50 56 36 q 122 86 114 64 l 451 950 l 553 992 l 900 85 q 934 49 908 63 q 986 36 960 36 l 1011 36 m 656 347 l 483 821 l 307 347 l 656 347 z "},"Ẳ":{"ha":1018,"x_min":7,"x_max":1011,"o":"m 428 1393 q 408 1401 417 1393 q 399 1422 399 1410 q 431 1465 399 1451 q 504 1479 464 1479 q 587 1460 553 1479 q 621 1406 621 1442 q 604 1366 621 1382 q 556 1332 588 1350 q 521 1309 532 1318 q 510 1289 510 1300 q 519 1267 510 1275 q 550 1250 529 1258 l 538 1225 q 471 1242 492 1225 q 450 1288 450 1260 q 463 1319 450 1306 q 501 1349 476 1332 q 539 1378 526 1365 q 551 1410 551 1392 q 540 1437 551 1426 q 510 1447 529 1447 q 478 1440 488 1447 q 460 1417 469 1432 q 447 1399 453 1404 q 428 1393 440 1393 m 507 1081 q 358 1128 407 1081 q 306 1263 308 1176 l 350 1263 q 397 1175 356 1204 q 507 1146 438 1146 q 617 1175 576 1146 q 664 1263 658 1204 l 710 1263 q 656 1130 706 1179 q 507 1081 607 1081 m 1011 36 l 1011 0 l 660 0 l 660 36 l 683 36 q 731 47 714 36 q 749 78 749 58 q 744 101 749 89 l 675 292 l 286 292 l 215 101 q 213 85 213 96 q 233 49 213 63 q 282 36 254 36 l 307 36 l 307 0 l 7 0 l 7 36 l 28 36 q 85 50 56 36 q 122 86 114 64 l 451 950 l 553 992 l 900 85 q 934 49 908 63 q 986 36 960 36 l 1011 36 m 656 347 l 483 821 l 307 347 l 656 347 z "},"Ẵ":{"ha":1018,"x_min":7,"x_max":1011,"o":"m 394 1421 q 342 1400 363 1421 q 308 1338 322 1379 l 281 1354 q 326 1449 292 1411 q 410 1486 360 1486 q 456 1477 433 1486 q 513 1449 478 1468 q 568 1422 546 1431 q 611 1413 590 1413 q 664 1434 644 1413 q 697 1500 683 1456 l 726 1483 q 680 1385 713 1424 q 596 1346 647 1346 q 553 1355 574 1346 q 496 1383 532 1364 q 441 1411 464 1401 q 394 1421 418 1421 m 507 1146 q 617 1175 576 1146 q 664 1263 658 1204 l 710 1263 q 656 1130 706 1179 q 507 1081 607 1081 q 358 1128 407 1081 q 306 1263 308 1176 l 350 1263 q 397 1175 356 1204 q 507 1146 438 1146 m 1011 36 l 1011 0 l 660 0 l 660 36 l 683 36 q 731 47 714 36 q 749 78 749 58 q 744 101 749 89 l 675 292 l 286 292 l 215 101 q 213 85 213 96 q 233 49 213 63 q 282 36 254 36 l 307 36 l 307 0 l 7 0 l 7 36 l 28 36 q 85 50 56 36 q 122 86 114 64 l 451 950 l 553 992 l 900 85 q 934 49 908 63 q 986 36 960 36 l 1011 36 m 656 347 l 483 821 l 307 347 l 656 347 z "},"Ǎ":{"ha":1018,"x_min":7,"x_max":1011,"o":"m 472 1086 l 300 1265 l 326 1294 l 476 1176 q 510 1161 499 1161 q 542 1176 524 1161 l 692 1294 l 718 1265 l 546 1086 l 472 1086 m 1011 36 l 1011 0 l 660 0 l 660 36 l 683 36 q 731 47 714 36 q 749 78 749 58 q 744 101 749 89 l 675 292 l 286 292 l 215 101 q 213 85 213 96 q 233 49 213 63 q 282 36 254 36 l 307 36 l 307 0 l 7 0 l 7 36 l 28 36 q 85 50 56 36 q 122 86 114 64 l 451 950 l 553 992 l 900 85 q 934 49 908 63 q 986 36 960 36 l 1011 36 m 656 347 l 483 821 l 307 347 l 656 347 z "},"Â":{"ha":1018,"x_min":7,"x_max":1011,"o":"m 326 1086 l 300 1115 l 472 1294 l 546 1294 l 718 1115 l 692 1086 l 542 1206 q 510 1221 519 1221 q 476 1206 497 1221 l 326 1086 m 1011 36 l 1011 0 l 660 0 l 660 36 l 683 36 q 731 47 714 36 q 749 78 749 58 q 744 101 749 89 l 675 292 l 286 292 l 215 101 q 213 85 213 96 q 233 49 213 63 q 282 36 254 36 l 307 36 l 307 0 l 7 0 l 7 36 l 28 36 q 85 50 56 36 q 122 86 114 64 l 451 950 l 553 992 l 900 85 q 934 49 908 63 q 986 36 960 36 l 1011 36 m 656 347 l 483 821 l 307 347 l 656 347 z "},"Ấ":{"ha":1018,"x_min":7,"x_max":1011,"o":"m 671 1240 l 646 1271 l 779 1400 q 843 1436 815 1436 q 878 1423 865 1436 q 890 1393 890 1410 q 877 1362 890 1378 q 840 1333 864 1346 l 671 1240 m 332 1085 l 307 1115 l 476 1294 l 547 1294 l 717 1115 l 690 1085 l 543 1204 q 511 1219 521 1219 q 472 1197 500 1219 l 332 1085 m 1011 36 l 1011 0 l 660 0 l 660 36 l 683 36 q 731 47 714 36 q 749 78 749 58 q 744 101 749 89 l 675 292 l 286 292 l 215 101 q 213 85 213 96 q 233 49 213 63 q 282 36 254 36 l 307 36 l 307 0 l 7 0 l 7 36 l 28 36 q 85 50 56 36 q 122 86 114 64 l 451 950 l 553 992 l 900 85 q 934 49 908 63 q 986 36 960 36 l 1011 36 m 656 347 l 483 821 l 307 347 l 656 347 z "},"Ậ":{"ha":1018,"x_min":7,"x_max":1011,"o":"m 328 1085 l 301 1114 l 474 1293 l 547 1293 l 719 1114 l 693 1085 l 543 1204 q 511 1219 521 1219 q 478 1204 499 1219 l 328 1085 m 1011 36 l 1011 0 l 660 0 l 660 36 l 683 36 q 731 47 714 36 q 749 78 749 58 q 744 101 749 89 l 675 292 l 286 292 l 215 101 q 213 85 213 96 q 233 49 213 63 q 282 36 254 36 l 307 36 l 307 0 l 7 0 l 7 36 l 28 36 q 85 50 56 36 q 122 86 114 64 l 451 950 l 553 992 l 900 85 q 934 49 908 63 q 986 36 960 36 l 1011 36 m 656 347 l 483 821 l 307 347 l 656 347 m 511 -89 q 558 -108 540 -89 q 575 -156 575 -126 q 558 -203 575 -185 q 511 -221 540 -221 q 464 -203 482 -221 q 446 -156 446 -185 q 464 -108 446 -126 q 511 -89 482 -89 z "},"Ầ":{"ha":1018,"x_min":7,"x_max":1011,"o":"m 192 1333 q 155 1362 168 1346 q 142 1393 142 1378 q 154 1423 142 1410 q 188 1436 167 1436 q 253 1400 217 1436 l 385 1271 l 361 1240 l 192 1333 m 307 1115 l 476 1294 l 547 1294 l 717 1115 l 690 1085 l 543 1204 q 511 1219 521 1219 q 472 1197 500 1219 l 332 1085 l 307 1115 m 1011 36 l 1011 0 l 660 0 l 660 36 l 683 36 q 731 47 714 36 q 749 78 749 58 q 744 101 749 89 l 675 292 l 286 292 l 215 101 q 213 85 213 96 q 233 49 213 63 q 282 36 254 36 l 307 36 l 307 0 l 7 0 l 7 36 l 28 36 q 85 50 56 36 q 122 86 114 64 l 451 950 l 553 992 l 900 85 q 934 49 908 63 q 986 36 960 36 l 1011 36 m 656 347 l 483 821 l 307 347 l 656 347 z "},"Ẩ":{"ha":1018,"x_min":7,"x_max":1011,"o":"m 632 1390 q 612 1399 621 1390 q 603 1419 603 1407 q 635 1463 603 1449 q 708 1476 668 1476 q 791 1458 757 1476 q 825 1403 825 1439 q 808 1363 825 1379 q 760 1329 792 1347 q 725 1306 736 1315 q 714 1286 714 1297 q 724 1264 714 1272 q 754 1247 733 1256 l 742 1222 q 675 1240 696 1222 q 654 1285 654 1257 q 667 1316 654 1303 q 706 1346 681 1329 q 743 1376 731 1363 q 756 1407 756 1389 q 744 1434 756 1424 q 714 1444 733 1444 q 683 1437 692 1444 q 664 1414 674 1429 q 651 1396 657 1401 q 632 1390 644 1390 m 332 1085 l 307 1115 l 476 1294 l 547 1294 l 717 1115 l 690 1085 l 543 1204 q 511 1219 521 1219 q 467 1192 497 1219 l 332 1085 m 1011 36 l 1011 0 l 660 0 l 660 36 l 683 36 q 731 47 714 36 q 749 78 749 58 q 744 101 749 89 l 675 292 l 286 292 l 215 101 q 213 85 213 96 q 233 49 213 63 q 282 36 254 36 l 307 36 l 307 0 l 7 0 l 7 36 l 28 36 q 85 50 56 36 q 122 86 114 64 l 451 950 l 553 992 l 900 85 q 934 49 908 63 q 986 36 960 36 l 1011 36 m 656 347 l 483 821 l 307 347 l 656 347 z "},"Ẫ":{"ha":1018,"x_min":7,"x_max":1011,"o":"m 406 1414 q 353 1393 374 1414 q 319 1331 333 1372 l 292 1347 q 337 1442 303 1404 q 421 1479 371 1479 q 467 1470 444 1479 q 524 1442 489 1461 q 579 1415 557 1424 q 622 1406 601 1406 q 675 1427 656 1406 q 708 1493 694 1449 l 738 1476 q 691 1378 724 1417 q 607 1339 658 1339 q 564 1348 585 1339 q 507 1376 543 1357 q 452 1404 475 1394 q 406 1414 429 1414 m 547 1294 l 717 1115 l 690 1085 l 543 1204 q 511 1219 521 1219 q 472 1197 500 1219 l 332 1085 l 307 1115 l 476 1294 l 547 1294 m 1011 36 l 1011 0 l 660 0 l 660 36 l 683 36 q 731 47 714 36 q 749 78 749 58 q 744 101 749 89 l 675 292 l 286 292 l 215 101 q 213 85 213 96 q 233 49 213 63 q 282 36 254 36 l 307 36 l 307 0 l 7 0 l 7 36 l 28 36 q 85 50 56 36 q 122 86 114 64 l 451 950 l 553 992 l 900 85 q 934 49 908 63 q 986 36 960 36 l 1011 36 m 656 347 l 483 821 l 307 347 l 656 347 z "},"Ä":{"ha":1018,"x_min":7,"x_max":1011,"o":"m 347 1085 q 301 1103 318 1085 q 283 1149 283 1121 q 301 1197 283 1178 q 347 1215 318 1215 q 394 1197 376 1215 q 413 1149 413 1178 q 395 1103 413 1121 q 347 1085 378 1085 m 647 1085 q 600 1103 618 1085 q 582 1149 582 1121 q 600 1197 582 1178 q 647 1215 618 1215 q 694 1197 676 1215 q 713 1149 713 1178 q 695 1103 713 1121 q 647 1085 678 1085 m 1011 36 l 1011 0 l 660 0 l 660 36 l 683 36 q 731 47 714 36 q 749 78 749 58 q 744 101 749 89 l 675 292 l 286 292 l 215 101 q 213 85 213 96 q 233 49 213 63 q 282 36 254 36 l 307 36 l 307 0 l 7 0 l 7 36 l 28 36 q 85 50 56 36 q 122 86 114 64 l 451 950 l 553 992 l 900 85 q 934 49 908 63 q 986 36 960 36 l 1011 36 m 656 347 l 483 821 l 307 347 l 656 347 z "},"Ạ":{"ha":1018,"x_min":7,"x_max":1011,"o":"m 1011 36 l 1011 0 l 660 0 l 660 36 l 683 36 q 731 47 714 36 q 749 78 749 58 q 744 101 749 89 l 675 292 l 286 292 l 215 101 q 213 85 213 96 q 233 49 213 63 q 282 36 254 36 l 307 36 l 307 0 l 7 0 l 7 36 l 28 36 q 85 50 56 36 q 122 86 114 64 l 451 950 l 553 992 l 900 85 q 934 49 908 63 q 986 36 960 36 l 1011 36 m 656 347 l 483 821 l 307 347 l 656 347 m 510 -89 q 556 -108 539 -89 q 574 -156 574 -126 q 556 -203 574 -185 q 510 -221 539 -221 q 463 -203 481 -221 q 444 -156 444 -185 q 463 -108 444 -126 q 510 -89 481 -89 z "},"À":{"ha":1018,"x_min":7,"x_max":1011,"o":"m 421 1201 q 378 1261 378 1226 q 390 1290 378 1278 q 422 1301 401 1301 q 485 1268 451 1301 l 644 1121 l 619 1086 l 421 1201 m 1011 36 l 1011 0 l 660 0 l 660 36 l 683 36 q 731 47 714 36 q 749 78 749 58 q 744 101 749 89 l 675 292 l 286 292 l 215 101 q 213 85 213 96 q 233 49 213 63 q 282 36 254 36 l 307 36 l 307 0 l 7 0 l 7 36 l 28 36 q 85 50 56 36 q 122 86 114 64 l 451 950 l 553 992 l 900 85 q 934 49 908 63 q 986 36 960 36 l 1011 36 m 656 347 l 483 821 l 307 347 l 656 347 z "},"Ả":{"ha":1018,"x_min":7,"x_max":1011,"o":"m 450 1271 q 418 1306 418 1271 q 453 1358 418 1339 q 540 1376 489 1376 q 631 1353 597 1376 q 664 1288 664 1331 q 646 1243 664 1261 q 592 1203 628 1225 q 553 1175 565 1186 q 540 1150 540 1164 q 551 1125 540 1133 q 583 1108 561 1117 l 571 1081 q 498 1100 521 1081 q 475 1150 475 1119 q 488 1185 475 1171 q 532 1222 501 1200 q 574 1256 560 1242 q 589 1292 589 1271 q 576 1323 589 1310 q 542 1336 563 1336 q 509 1329 524 1336 q 489 1308 494 1322 q 485 1295 488 1306 q 473 1278 482 1285 q 450 1271 464 1271 m 1011 36 l 1011 0 l 660 0 l 660 36 l 683 36 q 731 47 714 36 q 749 78 749 58 q 744 101 749 89 l 675 292 l 286 292 l 215 101 q 213 85 213 96 q 233 49 213 63 q 282 36 254 36 l 307 36 l 307 0 l 7 0 l 7 36 l 28 36 q 85 50 56 36 q 122 86 114 64 l 451 950 l 553 992 l 900 85 q 934 49 908 63 q 986 36 960 36 l 1011 36 m 656 347 l 483 821 l 307 347 l 656 347 z "},"Ā":{"ha":1018,"x_min":7,"x_max":1011,"o":"m 742 1086 l 279 1086 l 279 1144 l 742 1144 l 742 1086 m 1011 36 l 1011 0 l 660 0 l 660 36 l 683 36 q 731 47 714 36 q 749 78 749 58 q 744 101 749 89 l 675 292 l 286 292 l 215 101 q 213 85 213 96 q 233 49 213 63 q 282 36 254 36 l 307 36 l 307 0 l 7 0 l 7 36 l 28 36 q 85 50 56 36 q 122 86 114 64 l 451 950 l 553 992 l 900 85 q 934 49 908 63 q 986 36 960 36 l 1011 36 m 656 347 l 483 821 l 307 347 l 656 347 z "},"Ą":{"ha":1018,"x_min":7,"x_max":1017,"o":"m 1017 -239 q 907 -272 968 -272 q 807 -237 838 -272 q 776 -158 776 -201 q 808 -69 776 -110 q 894 0 840 -29 l 660 0 l 660 36 l 683 36 q 731 47 714 36 q 749 78 749 58 q 744 101 749 89 l 675 292 l 286 292 l 215 101 q 213 85 213 96 q 233 49 213 63 q 282 36 254 36 l 307 36 l 307 0 l 7 0 l 7 36 l 28 36 q 85 50 56 36 q 122 86 114 64 l 451 950 l 553 992 l 900 85 q 934 49 908 63 q 986 36 960 36 l 1011 36 l 1011 0 l 954 0 q 885 -70 910 -32 q 861 -147 861 -108 q 884 -206 861 -186 q 944 -225 907 -225 q 1008 -211 971 -225 l 1017 -239 m 656 347 l 483 821 l 307 347 l 656 347 z "},"Å":{"ha":1018,"x_min":7,"x_max":1011,"o":"m 508 1046 q 413 1080 450 1046 q 376 1169 376 1114 q 413 1259 376 1225 q 508 1293 450 1293 q 601 1259 565 1293 q 638 1169 638 1225 q 601 1080 638 1114 q 508 1046 565 1046 m 508 1244 q 456 1224 476 1244 q 435 1169 435 1204 q 456 1116 435 1136 q 508 1096 476 1096 q 561 1116 540 1096 q 582 1169 582 1136 q 561 1224 582 1203 q 508 1244 540 1244 m 1011 36 l 1011 0 l 660 0 l 660 36 l 683 36 q 731 47 714 36 q 749 78 749 58 q 744 101 749 89 l 675 292 l 286 292 l 215 101 q 213 85 213 96 q 233 49 213 63 q 282 36 254 36 l 307 36 l 307 0 l 7 0 l 7 36 l 28 36 q 85 50 56 36 q 122 86 114 64 l 451 950 l 553 992 l 900 85 q 934 49 908 63 q 986 36 960 36 l 1011 36 m 656 347 l 483 821 l 307 347 l 656 347 z "},"Ǻ":{"ha":1018,"x_min":7,"x_max":1011,"o":"m 400 1346 l 376 1381 l 536 1529 q 554 1546 538 1531 q 597 1561 571 1561 q 632 1549 619 1561 q 644 1519 644 1536 q 597 1461 644 1488 l 400 1346 m 508 1046 q 413 1080 450 1046 q 376 1169 376 1114 q 413 1259 376 1225 q 508 1293 450 1293 q 601 1259 565 1293 q 638 1169 638 1225 q 601 1080 638 1114 q 508 1046 565 1046 m 508 1244 q 456 1224 476 1244 q 435 1169 435 1204 q 456 1116 435 1136 q 508 1096 476 1096 q 561 1116 540 1096 q 582 1169 582 1136 q 561 1224 582 1203 q 508 1244 540 1244 m 1011 36 l 1011 0 l 660 0 l 660 36 l 683 36 q 731 47 714 36 q 749 78 749 58 q 744 101 749 89 l 675 292 l 286 292 l 215 101 q 213 85 213 96 q 233 49 213 63 q 282 36 254 36 l 307 36 l 307 0 l 7 0 l 7 36 l 28 36 q 85 50 56 36 q 122 86 114 64 l 451 950 l 553 992 l 900 85 q 934 49 908 63 q 986 36 960 36 l 1011 36 m 656 347 l 483 821 l 307 347 l 656 347 z "},"Ã":{"ha":1018,"x_min":7,"x_max":1011,"o":"m 400 1165 q 346 1145 367 1165 q 310 1083 325 1125 l 279 1099 q 328 1194 293 1157 q 417 1232 364 1232 q 463 1223 440 1232 q 525 1194 486 1214 q 583 1167 560 1176 q 628 1158 606 1158 q 681 1179 661 1158 q 719 1244 701 1200 l 749 1229 q 700 1129 735 1168 q 610 1090 665 1090 q 565 1099 588 1090 q 506 1128 543 1108 q 449 1156 474 1146 q 400 1165 425 1165 m 1011 36 l 1011 0 l 660 0 l 660 36 l 683 36 q 731 47 714 36 q 749 78 749 58 q 744 101 749 89 l 675 292 l 286 292 l 215 101 q 213 85 213 96 q 233 49 213 63 q 282 36 254 36 l 307 36 l 307 0 l 7 0 l 7 36 l 28 36 q 85 50 56 36 q 122 86 114 64 l 451 950 l 553 992 l 900 85 q 934 49 908 63 q 986 36 960 36 l 1011 36 m 656 347 l 483 821 l 307 347 l 656 347 z "},"Æ":{"ha":1358,"x_min":15,"x_max":1308,"o":"m 15 36 l 36 36 q 103 58 78 36 q 151 122 128 81 l 621 899 q 625 913 625 906 q 619 928 625 921 q 606 935 614 935 l 563 935 l 563 972 l 1286 972 l 1286 732 l 1249 732 q 1221 858 1246 800 q 1128 915 1196 915 l 821 915 l 821 539 l 1046 539 q 1099 572 1086 539 q 1118 674 1113 606 l 1151 674 l 1151 349 l 1118 349 q 1099 450 1113 417 q 1046 483 1086 483 l 821 483 l 821 56 l 1149 56 q 1236 113 1208 56 q 1272 249 1264 171 l 1308 249 l 1285 0 l 578 0 l 578 36 l 610 36 q 664 49 643 36 q 685 86 685 61 l 685 292 l 339 292 l 221 90 q 217 78 217 85 q 241 49 217 61 q 290 36 265 36 l 315 36 l 315 0 l 15 0 l 15 36 m 685 347 l 685 864 l 372 347 l 685 347 z "},"Ǽ":{"ha":1358,"x_min":15,"x_max":1308,"o":"m 847 1121 l 1007 1269 q 1025 1286 1008 1271 q 1068 1301 1042 1301 q 1103 1289 1090 1301 q 1115 1260 1115 1276 q 1068 1201 1115 1228 l 871 1086 l 847 1121 m 15 36 l 36 36 q 103 58 78 36 q 151 122 128 81 l 621 899 q 625 913 625 906 q 619 928 625 921 q 606 935 614 935 l 563 935 l 563 972 l 1286 972 l 1286 732 l 1249 732 q 1221 858 1246 800 q 1128 915 1196 915 l 821 915 l 821 539 l 1046 539 q 1099 572 1086 539 q 1118 674 1113 606 l 1151 674 l 1151 349 l 1118 349 q 1099 450 1113 417 q 1046 483 1086 483 l 821 483 l 821 56 l 1149 56 q 1236 113 1208 56 q 1272 249 1264 171 l 1308 249 l 1285 0 l 578 0 l 578 36 l 610 36 q 664 49 643 36 q 685 86 685 61 l 685 292 l 339 292 l 221 90 q 217 78 217 85 q 241 49 217 61 q 290 36 265 36 l 315 36 l 315 0 l 15 0 l 15 36 m 685 347 l 685 864 l 372 347 l 685 347 z "},"B":{"ha":846,"x_min":25,"x_max":806,"o":"m 25 36 l 65 36 q 126 48 106 36 q 146 86 146 60 l 146 885 q 126 923 146 911 q 65 935 106 935 l 25 935 l 25 972 l 451 972 q 674 913 599 972 q 749 742 749 854 q 702 599 749 661 q 571 514 656 536 l 571 510 q 753 422 701 490 q 806 263 806 353 q 726 68 806 136 q 494 0 647 0 l 25 0 l 25 36 m 419 536 q 561 592 508 536 q 614 738 614 647 q 562 872 614 829 q 404 915 510 915 l 282 915 l 282 536 l 419 536 m 438 56 q 615 110 556 56 q 674 268 674 164 q 612 428 674 376 q 419 481 550 481 l 282 481 l 282 56 l 438 56 z "},"C":{"ha":932,"x_min":58,"x_max":889,"o":"m 515 -14 q 176 117 294 -14 q 58 486 58 249 q 113 754 58 642 q 273 926 168 867 q 525 986 378 986 q 794 903 679 986 q 800 900 796 903 q 807 897 804 897 q 819 918 819 897 l 819 979 l 869 979 l 869 713 l 829 713 q 740 872 818 815 q 551 928 663 928 q 288 808 381 928 q 196 486 196 689 q 281 161 196 279 q 536 43 367 43 q 717 91 633 43 q 835 238 801 139 l 889 238 q 764 53 864 121 q 515 -14 664 -14 z "},"Ć":{"ha":932,"x_min":58,"x_max":889,"o":"m 407 1121 l 567 1269 q 585 1286 568 1271 q 628 1301 601 1301 q 663 1289 650 1301 q 675 1260 675 1276 q 628 1201 675 1228 l 431 1086 l 407 1121 m 515 -14 q 176 117 294 -14 q 58 486 58 249 q 113 754 58 642 q 273 926 168 867 q 525 986 378 986 q 794 903 679 986 q 800 900 796 903 q 807 897 804 897 q 819 918 819 897 l 819 979 l 869 979 l 869 713 l 829 713 q 740 872 818 815 q 551 928 663 928 q 288 808 381 928 q 196 486 196 689 q 281 161 196 279 q 536 43 367 43 q 717 91 633 43 q 835 238 801 139 l 889 238 q 764 53 864 121 q 515 -14 664 -14 z "},"Č":{"ha":932,"x_min":58,"x_max":889,"o":"m 313 1265 l 339 1294 l 489 1176 q 522 1161 511 1161 q 554 1176 536 1161 l 704 1294 l 731 1265 l 558 1086 l 485 1086 l 313 1265 m 515 -14 q 176 117 294 -14 q 58 486 58 249 q 113 754 58 642 q 273 926 168 867 q 525 986 378 986 q 794 903 679 986 q 800 900 796 903 q 807 897 804 897 q 819 918 819 897 l 819 979 l 869 979 l 869 713 l 829 713 q 740 872 818 815 q 551 928 663 928 q 288 808 381 928 q 196 486 196 689 q 281 161 196 279 q 536 43 367 43 q 717 91 633 43 q 835 238 801 139 l 889 238 q 764 53 864 121 q 515 -14 664 -14 z "},"Ç":{"ha":932,"x_min":58,"x_max":889,"o":"m 889 238 q 775 61 865 128 q 550 -12 685 -6 l 514 -81 q 613 -103 569 -81 q 656 -179 656 -126 q 600 -274 656 -246 q 463 -301 544 -301 q 394 -294 432 -301 l 403 -254 q 446 -257 415 -257 q 568 -182 568 -257 q 531 -138 568 -150 q 453 -126 494 -126 l 436 -104 l 489 -14 q 169 125 281 -6 q 58 486 58 256 q 113 754 58 642 q 273 926 168 867 q 525 986 378 986 q 794 903 679 986 q 800 900 796 903 q 807 897 804 897 q 819 918 819 897 l 819 979 l 869 979 l 869 713 l 829 713 q 740 872 818 815 q 551 928 663 928 q 288 808 381 928 q 196 486 196 689 q 281 161 196 279 q 536 43 367 43 q 717 91 633 43 q 835 238 801 139 l 889 238 z "},"Ĉ":{"ha":932,"x_min":58,"x_max":889,"o":"m 318 1115 l 490 1294 l 564 1294 l 736 1115 l 710 1086 l 560 1206 q 528 1221 536 1221 q 494 1206 515 1221 l 344 1086 l 318 1115 m 515 -14 q 176 117 294 -14 q 58 486 58 249 q 113 754 58 642 q 273 926 168 867 q 525 986 378 986 q 794 903 679 986 q 800 900 796 903 q 807 897 804 897 q 819 918 819 897 l 819 979 l 869 979 l 869 713 l 829 713 q 740 872 818 815 q 551 928 663 928 q 288 808 381 928 q 196 486 196 689 q 281 161 196 279 q 536 43 367 43 q 717 91 633 43 q 835 238 801 139 l 889 238 q 764 53 864 121 q 515 -14 664 -14 z "},"Ċ":{"ha":932,"x_min":58,"x_max":889,"o":"m 539 1063 q 492 1081 510 1063 q 474 1126 474 1099 q 491 1174 474 1156 q 539 1192 508 1192 q 585 1174 568 1192 q 603 1126 603 1156 q 585 1081 603 1099 q 539 1063 568 1063 m 515 -14 q 176 117 294 -14 q 58 486 58 249 q 113 754 58 642 q 273 926 168 867 q 525 986 378 986 q 794 903 679 986 q 800 900 796 903 q 807 897 804 897 q 819 918 819 897 l 819 979 l 869 979 l 869 713 l 829 713 q 740 872 818 815 q 551 928 663 928 q 288 808 381 928 q 196 486 196 689 q 281 161 196 279 q 536 43 367 43 q 717 91 633 43 q 835 238 801 139 l 889 238 q 764 53 864 121 q 515 -14 664 -14 z "},"D":{"ha":957,"x_min":24,"x_max":900,"o":"m 24 36 l 65 36 q 146 86 146 36 l 146 885 q 65 935 146 935 l 24 935 l 24 972 l 463 972 q 790 848 681 972 q 900 486 900 724 q 790 123 900 246 q 461 0 681 0 l 24 0 l 24 36 m 458 54 q 685 167 608 54 q 763 486 763 279 q 687 804 763 692 q 461 917 611 917 l 282 917 l 282 54 l 458 54 z "},"Ð":{"ha":957,"x_min":24,"x_max":900,"o":"m 463 972 q 790 848 681 972 q 900 486 900 724 q 790 123 900 246 q 461 0 681 0 l 24 0 l 24 36 l 65 36 q 146 86 146 36 l 146 453 l 38 453 l 38 517 l 146 517 l 146 885 q 65 935 146 935 l 24 935 l 24 972 l 463 972 m 458 54 q 685 167 608 54 q 763 486 763 279 q 687 804 763 692 q 461 917 611 917 l 282 917 l 282 517 l 574 517 l 574 453 l 282 453 l 282 54 l 458 54 z "},"Ď":{"ha":957,"x_min":24,"x_max":900,"o":"m 247 1289 l 274 1318 l 424 1200 q 457 1185 446 1185 q 489 1200 471 1185 l 639 1318 l 665 1289 l 493 1110 l 419 1110 l 247 1289 m 24 36 l 65 36 q 146 86 146 36 l 146 885 q 65 935 146 935 l 24 935 l 24 972 l 463 972 q 790 848 681 972 q 900 486 900 724 q 790 123 900 246 q 461 0 681 0 l 24 0 l 24 36 m 458 54 q 685 167 608 54 q 763 486 763 279 q 687 804 763 692 q 461 917 611 917 l 282 917 l 282 54 l 458 54 z "},"Đ":{"ha":957,"x_min":24,"x_max":900,"o":"m 463 972 q 790 848 681 972 q 900 486 900 724 q 790 123 900 246 q 461 0 681 0 l 24 0 l 24 36 l 65 36 q 146 86 146 36 l 146 453 l 38 453 l 38 517 l 146 517 l 146 885 q 65 935 146 935 l 24 935 l 24 972 l 463 972 m 458 54 q 685 167 608 54 q 763 486 763 279 q 687 804 763 692 q 461 917 611 917 l 282 917 l 282 517 l 574 517 l 574 453 l 282 453 l 282 54 l 458 54 z "},"Ḍ":{"ha":957,"x_min":24,"x_max":900,"o":"m 24 36 l 65 36 q 146 86 146 36 l 146 885 q 65 935 146 935 l 24 935 l 24 972 l 463 972 q 790 848 681 972 q 900 486 900 724 q 790 123 900 246 q 461 0 681 0 l 24 0 l 24 36 m 458 54 q 685 167 608 54 q 763 486 763 279 q 687 804 763 692 q 461 917 611 917 l 282 917 l 282 54 l 458 54 m 386 -156 q 404 -108 386 -126 q 451 -89 422 -89 q 498 -108 481 -89 q 515 -156 515 -126 q 498 -203 515 -185 q 451 -221 481 -221 q 404 -203 422 -221 q 386 -156 386 -185 z "},"Ḏ":{"ha":957,"x_min":24,"x_max":900,"o":"m 24 36 l 65 36 q 146 86 146 36 l 146 885 q 65 935 146 935 l 24 935 l 24 972 l 463 972 q 790 848 681 972 q 900 486 900 724 q 790 123 900 246 q 461 0 681 0 l 24 0 l 24 36 m 458 54 q 685 167 608 54 q 763 486 763 279 q 687 804 763 692 q 461 917 611 917 l 282 917 l 282 54 l 458 54 m 222 -100 l 683 -100 l 683 -153 l 222 -153 l 222 -100 z "},"E":{"ha":843,"x_min":22,"x_max":793,"o":"m 793 249 l 769 0 l 22 0 l 22 36 l 61 36 q 143 86 143 36 l 143 885 q 61 935 143 935 l 22 935 l 22 972 l 771 972 l 771 732 l 733 732 q 704 860 728 804 q 613 915 681 915 l 279 915 l 279 539 l 526 539 q 581 572 568 539 q 599 674 593 604 l 632 674 l 632 349 l 599 349 q 581 451 593 418 q 526 483 568 483 l 279 483 l 279 56 l 633 56 q 720 113 693 56 q 756 249 747 171 l 793 249 z "},"É":{"ha":843,"x_min":22,"x_max":793,"o":"m 356 1086 l 332 1121 l 492 1269 q 510 1286 493 1271 q 553 1301 526 1301 q 588 1289 575 1301 q 600 1260 600 1276 q 553 1201 600 1228 l 356 1086 m 793 249 l 769 0 l 22 0 l 22 36 l 61 36 q 143 86 143 36 l 143 885 q 61 935 143 935 l 22 935 l 22 972 l 771 972 l 771 732 l 733 732 q 704 860 728 804 q 613 915 681 915 l 279 915 l 279 539 l 526 539 q 581 572 568 539 q 599 674 593 604 l 632 674 l 632 349 l 599 349 q 581 451 593 418 q 526 483 568 483 l 279 483 l 279 56 l 633 56 q 720 113 693 56 q 756 249 747 171 l 793 249 z "},"Ĕ":{"ha":843,"x_min":22,"x_max":793,"o":"m 463 1078 q 312 1126 361 1078 q 258 1260 263 1174 l 304 1260 q 352 1171 311 1200 q 463 1142 393 1142 q 572 1171 531 1142 q 618 1260 613 1200 l 664 1260 q 610 1127 660 1176 q 463 1078 561 1078 m 793 249 l 769 0 l 22 0 l 22 36 l 61 36 q 143 86 143 36 l 143 885 q 61 935 143 935 l 22 935 l 22 972 l 771 972 l 771 732 l 733 732 q 704 860 728 804 q 613 915 681 915 l 279 915 l 279 539 l 526 539 q 581 572 568 539 q 599 674 593 604 l 632 674 l 632 349 l 599 349 q 581 451 593 418 q 526 483 568 483 l 279 483 l 279 56 l 633 56 q 720 113 693 56 q 756 249 747 171 l 793 249 z "},"Ě":{"ha":843,"x_min":22,"x_max":793,"o":"m 422 1086 l 250 1265 l 276 1294 l 426 1176 q 460 1161 449 1161 q 492 1176 474 1161 l 642 1294 l 668 1265 l 496 1086 l 422 1086 m 793 249 l 769 0 l 22 0 l 22 36 l 61 36 q 143 86 143 36 l 143 885 q 61 935 143 935 l 22 935 l 22 972 l 771 972 l 771 732 l 733 732 q 704 860 728 804 q 613 915 681 915 l 279 915 l 279 539 l 526 539 q 581 572 568 539 q 599 674 593 604 l 632 674 l 632 349 l 599 349 q 581 451 593 418 q 526 483 568 483 l 279 483 l 279 56 l 633 56 q 720 113 693 56 q 756 249 747 171 l 793 249 z "},"Ê":{"ha":843,"x_min":22,"x_max":793,"o":"m 272 1086 l 246 1115 l 418 1294 l 492 1294 l 664 1115 l 638 1086 l 488 1206 q 456 1221 465 1221 q 422 1206 443 1221 l 272 1086 m 793 249 l 769 0 l 22 0 l 22 36 l 61 36 q 143 86 143 36 l 143 885 q 61 935 143 935 l 22 935 l 22 972 l 771 972 l 771 732 l 733 732 q 704 860 728 804 q 613 915 681 915 l 279 915 l 279 539 l 526 539 q 581 572 568 539 q 599 674 593 604 l 632 674 l 632 349 l 599 349 q 581 451 593 418 q 526 483 568 483 l 279 483 l 279 56 l 633 56 q 720 113 693 56 q 756 249 747 171 l 793 249 z "},"Ế":{"ha":843,"x_min":22,"x_max":821,"o":"m 774 1436 q 808 1423 796 1436 q 821 1393 821 1410 q 808 1362 821 1378 q 771 1333 794 1346 l 601 1240 l 576 1271 l 710 1400 q 774 1436 746 1436 m 263 1085 l 238 1115 l 407 1294 l 478 1294 l 647 1115 l 621 1085 l 474 1204 q 442 1219 450 1219 q 403 1197 431 1219 l 263 1085 m 633 56 q 720 113 693 56 q 756 249 747 171 l 793 249 l 769 0 l 22 0 l 22 36 l 61 36 q 143 86 143 36 l 143 885 q 61 935 143 935 l 22 935 l 22 972 l 771 972 l 771 732 l 733 732 q 704 860 728 804 q 613 915 681 915 l 279 915 l 279 539 l 526 539 q 581 572 568 539 q 599 674 593 604 l 632 674 l 632 349 l 599 349 q 581 451 593 418 q 526 483 568 483 l 279 483 l 279 56 l 633 56 z "},"Ệ":{"ha":843,"x_min":22,"x_max":793,"o":"m 258 1086 l 232 1115 l 404 1294 l 478 1294 l 650 1115 l 624 1086 l 474 1206 q 442 1221 450 1221 q 408 1206 429 1221 l 258 1086 m 793 249 l 769 0 l 22 0 l 22 36 l 61 36 q 143 86 143 36 l 143 885 q 61 935 143 935 l 22 935 l 22 972 l 771 972 l 771 732 l 733 732 q 704 860 728 804 q 613 915 681 915 l 279 915 l 279 539 l 526 539 q 581 572 568 539 q 599 674 593 604 l 632 674 l 632 349 l 599 349 q 581 451 593 418 q 526 483 568 483 l 279 483 l 279 56 l 633 56 q 720 113 693 56 q 756 249 747 171 l 793 249 m 447 -89 q 494 -108 476 -89 q 511 -156 511 -126 q 494 -203 511 -185 q 447 -221 476 -221 q 400 -203 418 -221 q 382 -156 382 -185 q 400 -108 382 -126 q 447 -89 418 -89 z "},"Ề":{"ha":843,"x_min":22,"x_max":793,"o":"m 122 1333 q 85 1362 99 1346 q 72 1393 72 1378 q 85 1423 72 1410 q 118 1436 97 1436 q 183 1400 147 1436 l 315 1271 l 292 1240 l 122 1333 m 238 1115 l 407 1294 l 478 1294 l 647 1115 l 621 1085 l 474 1204 q 442 1219 450 1219 q 403 1197 431 1219 l 263 1085 l 238 1115 m 793 249 l 769 0 l 22 0 l 22 36 l 61 36 q 143 86 143 36 l 143 885 q 61 935 143 935 l 22 935 l 22 972 l 771 972 l 771 732 l 733 732 q 704 860 728 804 q 613 915 681 915 l 279 915 l 279 539 l 526 539 q 581 572 568 539 q 599 674 593 604 l 632 674 l 632 349 l 599 349 q 581 451 593 418 q 526 483 568 483 l 279 483 l 279 56 l 633 56 q 720 113 693 56 q 756 249 747 171 l 793 249 z "},"Ể":{"ha":843,"x_min":22,"x_max":793,"o":"m 563 1390 q 542 1399 551 1390 q 533 1419 533 1407 q 566 1463 533 1449 q 639 1476 599 1476 q 722 1458 688 1476 q 756 1403 756 1439 q 739 1363 756 1379 q 690 1329 722 1347 q 656 1306 667 1315 q 644 1286 644 1297 q 654 1264 644 1272 q 685 1247 664 1256 l 672 1222 q 606 1240 626 1222 q 585 1285 585 1257 q 598 1316 585 1303 q 636 1346 611 1329 q 674 1376 661 1363 q 686 1407 686 1389 q 675 1434 686 1424 q 644 1444 664 1444 q 613 1437 622 1444 q 594 1414 604 1429 q 581 1396 588 1401 q 563 1390 575 1390 m 263 1085 l 238 1115 l 407 1294 l 478 1294 l 647 1115 l 621 1085 l 474 1204 q 442 1219 450 1219 q 397 1192 428 1219 l 263 1085 m 793 249 l 769 0 l 22 0 l 22 36 l 61 36 q 143 86 143 36 l 143 885 q 61 935 143 935 l 22 935 l 22 972 l 771 972 l 771 732 l 733 732 q 704 860 728 804 q 613 915 681 915 l 279 915 l 279 539 l 526 539 q 581 572 568 539 q 599 674 593 604 l 632 674 l 632 349 l 599 349 q 581 451 593 418 q 526 483 568 483 l 279 483 l 279 56 l 633 56 q 720 113 693 56 q 756 249 747 171 l 793 249 z "},"Ễ":{"ha":843,"x_min":22,"x_max":793,"o":"m 336 1414 q 284 1393 304 1414 q 250 1331 264 1372 l 222 1347 q 267 1442 233 1404 q 351 1479 301 1479 q 397 1470 375 1479 q 454 1442 419 1461 q 510 1415 488 1424 q 553 1406 532 1406 q 606 1427 586 1406 q 639 1493 625 1449 l 668 1476 q 622 1378 654 1417 q 538 1339 589 1339 q 494 1348 515 1339 q 438 1376 474 1357 q 383 1404 406 1394 q 336 1414 360 1414 m 478 1294 l 647 1115 l 621 1085 l 474 1204 q 442 1219 450 1219 q 403 1197 431 1219 l 263 1085 l 238 1115 l 407 1294 l 478 1294 m 793 249 l 769 0 l 22 0 l 22 36 l 61 36 q 143 86 143 36 l 143 885 q 61 935 143 935 l 22 935 l 22 972 l 771 972 l 771 732 l 733 732 q 704 860 728 804 q 613 915 681 915 l 279 915 l 279 539 l 526 539 q 581 572 568 539 q 599 674 593 604 l 632 674 l 632 349 l 599 349 q 581 451 593 418 q 526 483 568 483 l 279 483 l 279 56 l 633 56 q 720 113 693 56 q 756 249 747 171 l 793 249 z "},"Ë":{"ha":843,"x_min":22,"x_max":793,"o":"m 313 1085 q 266 1103 283 1085 q 249 1149 249 1121 q 266 1197 249 1178 q 313 1215 283 1215 q 360 1197 342 1215 q 378 1149 378 1178 q 360 1103 378 1121 q 313 1085 343 1085 m 613 1085 q 565 1103 583 1085 q 547 1149 547 1121 q 565 1197 547 1178 q 613 1215 583 1215 q 660 1197 642 1215 q 678 1149 678 1178 q 660 1103 678 1121 q 613 1085 643 1085 m 793 249 l 769 0 l 22 0 l 22 36 l 61 36 q 143 86 143 36 l 143 885 q 61 935 143 935 l 22 935 l 22 972 l 771 972 l 771 732 l 733 732 q 704 860 728 804 q 613 915 681 915 l 279 915 l 279 539 l 526 539 q 581 572 568 539 q 599 674 593 604 l 632 674 l 632 349 l 599 349 q 581 451 593 418 q 526 483 568 483 l 279 483 l 279 56 l 633 56 q 720 113 693 56 q 756 249 747 171 l 793 249 z "},"Ė":{"ha":843,"x_min":22,"x_max":793,"o":"m 464 1063 q 417 1081 435 1063 q 399 1126 399 1099 q 416 1174 399 1156 q 464 1192 433 1192 q 510 1174 493 1192 q 528 1126 528 1156 q 510 1081 528 1099 q 464 1063 493 1063 m 793 249 l 769 0 l 22 0 l 22 36 l 61 36 q 143 86 143 36 l 143 885 q 61 935 143 935 l 22 935 l 22 972 l 771 972 l 771 732 l 733 732 q 704 860 728 804 q 613 915 681 915 l 279 915 l 279 539 l 526 539 q 581 572 568 539 q 599 674 593 604 l 632 674 l 632 349 l 599 349 q 581 451 593 418 q 526 483 568 483 l 279 483 l 279 56 l 633 56 q 720 113 693 56 q 756 249 747 171 l 793 249 z "},"Ẹ":{"ha":843,"x_min":22,"x_max":793,"o":"m 793 249 l 769 0 l 22 0 l 22 36 l 61 36 q 143 86 143 36 l 143 885 q 61 935 143 935 l 22 935 l 22 972 l 771 972 l 771 732 l 733 732 q 704 860 728 804 q 613 915 681 915 l 279 915 l 279 539 l 526 539 q 581 572 568 539 q 599 674 593 604 l 632 674 l 632 349 l 599 349 q 581 451 593 418 q 526 483 568 483 l 279 483 l 279 56 l 633 56 q 720 113 693 56 q 756 249 747 171 l 793 249 m 438 -89 q 484 -108 467 -89 q 501 -156 501 -126 q 484 -203 501 -185 q 438 -221 467 -221 q 390 -203 408 -221 q 372 -156 372 -185 q 390 -108 372 -126 q 438 -89 408 -89 z "},"È":{"ha":843,"x_min":22,"x_max":793,"o":"m 367 1201 q 324 1261 324 1226 q 335 1290 324 1278 q 368 1301 347 1301 q 431 1268 397 1301 l 590 1121 l 565 1086 l 367 1201 m 793 249 l 769 0 l 22 0 l 22 36 l 61 36 q 143 86 143 36 l 143 885 q 61 935 143 935 l 22 935 l 22 972 l 771 972 l 771 732 l 733 732 q 704 860 728 804 q 613 915 681 915 l 279 915 l 279 539 l 526 539 q 581 572 568 539 q 599 674 593 604 l 632 674 l 632 349 l 599 349 q 581 451 593 418 q 526 483 568 483 l 279 483 l 279 56 l 633 56 q 720 113 693 56 q 756 249 747 171 l 793 249 z "},"Ẻ":{"ha":843,"x_min":22,"x_max":793,"o":"m 376 1271 q 344 1306 344 1271 q 380 1358 344 1339 q 467 1376 415 1376 q 557 1353 524 1376 q 590 1288 590 1331 q 572 1243 590 1261 q 518 1203 554 1225 q 479 1175 492 1186 q 467 1150 467 1164 q 477 1125 467 1133 q 510 1108 488 1117 l 497 1081 q 424 1100 447 1081 q 401 1150 401 1119 q 415 1185 401 1171 q 458 1222 428 1200 q 501 1256 486 1242 q 515 1292 515 1271 q 502 1323 515 1310 q 468 1336 489 1336 q 435 1329 450 1336 q 415 1308 421 1322 q 411 1295 414 1306 q 399 1278 408 1285 q 376 1271 390 1271 m 793 249 l 769 0 l 22 0 l 22 36 l 61 36 q 143 86 143 36 l 143 885 q 61 935 143 935 l 22 935 l 22 972 l 771 972 l 771 732 l 733 732 q 704 860 728 804 q 613 915 681 915 l 279 915 l 279 539 l 526 539 q 581 572 568 539 q 599 674 593 604 l 632 674 l 632 349 l 599 349 q 581 451 593 418 q 526 483 568 483 l 279 483 l 279 56 l 633 56 q 720 113 693 56 q 756 249 747 171 l 793 249 z "},"Ē":{"ha":843,"x_min":22,"x_max":793,"o":"m 688 1086 l 225 1086 l 225 1144 l 688 1144 l 688 1086 m 793 249 l 769 0 l 22 0 l 22 36 l 61 36 q 143 86 143 36 l 143 885 q 61 935 143 935 l 22 935 l 22 972 l 771 972 l 771 732 l 733 732 q 704 860 728 804 q 613 915 681 915 l 279 915 l 279 539 l 526 539 q 581 572 568 539 q 599 674 593 604 l 632 674 l 632 349 l 599 349 q 581 451 593 418 q 526 483 568 483 l 279 483 l 279 56 l 633 56 q 720 113 693 56 q 756 249 747 171 l 793 249 z "},"Ę":{"ha":843,"x_min":22,"x_max":793,"o":"m 700 0 q 631 -70 656 -32 q 607 -147 607 -108 q 630 -206 607 -186 q 690 -225 653 -225 q 754 -211 717 -225 l 763 -239 q 653 -272 714 -272 q 553 -237 583 -272 q 522 -158 522 -201 q 554 -69 522 -110 q 640 0 586 -29 l 22 0 l 22 36 l 61 36 q 143 86 143 36 l 143 885 q 61 935 143 935 l 22 935 l 22 972 l 771 972 l 771 732 l 733 732 q 704 860 728 804 q 613 915 681 915 l 279 915 l 279 539 l 526 539 q 581 572 568 539 q 599 674 593 604 l 632 674 l 632 349 l 599 349 q 581 451 593 418 q 526 483 568 483 l 279 483 l 279 56 l 633 56 q 720 113 693 56 q 756 249 747 171 l 793 249 l 769 0 l 700 0 z "},"Ẽ":{"ha":843,"x_min":22,"x_max":793,"o":"m 335 1164 q 281 1144 301 1164 q 244 1082 260 1124 l 214 1097 q 263 1193 228 1156 q 351 1231 299 1231 q 398 1222 375 1231 q 460 1193 421 1213 q 517 1166 494 1175 q 563 1157 540 1157 q 616 1178 596 1157 q 654 1243 636 1199 l 683 1228 q 635 1128 669 1167 q 544 1089 600 1089 q 500 1098 522 1089 q 440 1126 478 1107 q 384 1154 408 1144 q 335 1164 360 1164 m 793 249 l 769 0 l 22 0 l 22 36 l 61 36 q 143 86 143 36 l 143 885 q 61 935 143 935 l 22 935 l 22 972 l 771 972 l 771 732 l 733 732 q 704 860 728 804 q 613 915 681 915 l 279 915 l 279 539 l 526 539 q 581 572 568 539 q 599 674 593 604 l 632 674 l 632 349 l 599 349 q 581 451 593 418 q 526 483 568 483 l 279 483 l 279 56 l 633 56 q 720 113 693 56 q 756 249 747 171 l 793 249 z "},"F":{"ha":806,"x_min":22,"x_max":771,"o":"m 771 972 l 771 732 l 733 732 q 704 859 728 803 q 614 915 681 915 l 279 915 l 279 500 l 506 500 q 560 533 547 500 q 579 635 574 567 l 613 635 l 613 310 l 579 310 q 560 411 574 378 q 506 444 547 444 l 279 444 l 279 86 q 361 36 279 36 l 400 36 l 400 0 l 22 0 l 22 36 l 63 36 q 143 86 143 36 l 143 885 q 63 935 143 935 l 22 935 l 22 972 l 771 972 z "},"G":{"ha":990,"x_min":58,"x_max":979,"o":"m 515 -14 q 176 117 294 -14 q 58 486 58 249 q 114 754 58 642 q 275 926 169 867 q 528 986 381 986 q 678 963 604 986 q 796 904 753 939 q 811 897 807 897 q 822 902 819 897 q 825 918 825 907 l 825 979 l 875 979 l 875 713 l 835 713 q 744 872 822 815 q 553 928 665 928 q 290 808 383 928 q 196 486 196 689 q 281 161 196 279 q 536 43 367 43 q 658 58 596 43 q 764 108 721 72 l 764 385 q 739 438 764 422 q 658 454 714 454 l 633 454 l 633 486 l 979 486 l 979 458 l 963 458 q 908 435 921 458 q 894 346 894 413 l 894 96 q 731 13 819 40 q 515 -14 643 -14 z "},"Ğ":{"ha":990,"x_min":58,"x_max":979,"o":"m 521 1101 q 370 1149 419 1101 q 317 1283 321 1197 l 363 1283 q 410 1194 369 1224 q 521 1165 451 1165 q 630 1194 589 1165 q 676 1283 671 1224 l 722 1283 q 669 1151 718 1200 q 521 1101 619 1101 m 515 -14 q 176 117 294 -14 q 58 486 58 249 q 114 754 58 642 q 275 926 169 867 q 528 986 381 986 q 678 963 604 986 q 796 904 753 939 q 811 897 807 897 q 822 902 819 897 q 825 918 825 907 l 825 979 l 875 979 l 875 713 l 835 713 q 744 872 822 815 q 553 928 665 928 q 290 808 383 928 q 196 486 196 689 q 281 161 196 279 q 536 43 367 43 q 658 58 596 43 q 764 108 721 72 l 764 385 q 739 438 764 422 q 658 454 714 454 l 633 454 l 633 486 l 979 486 l 979 458 l 963 458 q 908 435 921 458 q 894 346 894 413 l 894 96 q 731 13 819 40 q 515 -14 643 -14 z "},"Ǧ":{"ha":990,"x_min":58,"x_max":979,"o":"m 343 1265 l 369 1294 l 519 1176 q 553 1161 542 1161 q 585 1176 567 1161 l 735 1294 l 761 1265 l 589 1086 l 515 1086 l 343 1265 m 515 -14 q 176 117 294 -14 q 58 486 58 249 q 114 754 58 642 q 275 926 169 867 q 528 986 381 986 q 678 963 604 986 q 796 904 753 939 q 811 897 807 897 q 822 902 819 897 q 825 918 825 907 l 825 979 l 875 979 l 875 713 l 835 713 q 744 872 822 815 q 553 928 665 928 q 290 808 383 928 q 196 486 196 689 q 281 161 196 279 q 536 43 367 43 q 658 58 596 43 q 764 108 721 72 l 764 385 q 739 438 764 422 q 658 454 714 454 l 633 454 l 633 486 l 979 486 l 979 458 l 963 458 q 908 435 921 458 q 894 346 894 413 l 894 96 q 731 13 819 40 q 515 -14 643 -14 z "},"Ĝ":{"ha":990,"x_min":58,"x_max":979,"o":"m 318 1139 l 490 1318 l 564 1318 l 736 1139 l 710 1110 l 560 1229 q 528 1244 536 1244 q 494 1229 515 1244 l 344 1110 l 318 1139 m 515 -14 q 176 117 294 -14 q 58 486 58 249 q 114 754 58 642 q 275 926 169 867 q 528 986 381 986 q 678 963 604 986 q 796 904 753 939 q 811 897 807 897 q 822 902 819 897 q 825 918 825 907 l 825 979 l 875 979 l 875 713 l 835 713 q 744 872 822 815 q 553 928 665 928 q 290 808 383 928 q 196 486 196 689 q 281 161 196 279 q 536 43 367 43 q 658 58 596 43 q 764 108 721 72 l 764 385 q 739 438 764 422 q 658 454 714 454 l 633 454 l 633 486 l 979 486 l 979 458 l 963 458 q 908 435 921 458 q 894 346 894 413 l 894 96 q 731 13 819 40 q 515 -14 643 -14 z "},"Ģ":{"ha":990,"x_min":58,"x_max":979,"o":"m 515 -14 q 176 117 294 -14 q 58 486 58 249 q 114 754 58 642 q 275 926 169 867 q 528 986 381 986 q 678 963 604 986 q 796 904 753 939 q 811 897 807 897 q 822 902 819 897 q 825 918 825 907 l 825 979 l 875 979 l 875 713 l 835 713 q 744 872 822 815 q 553 928 665 928 q 290 808 383 928 q 196 486 196 689 q 281 161 196 279 q 536 43 367 43 q 658 58 596 43 q 764 108 721 72 l 764 385 q 739 438 764 422 q 658 454 714 454 l 633 454 l 633 486 l 979 486 l 979 458 l 963 458 q 908 435 921 458 q 894 346 894 413 l 894 96 q 731 13 819 40 q 515 -14 643 -14 m 453 -392 q 526 -260 526 -321 q 520 -233 526 -243 q 501 -206 514 -222 q 483 -180 489 -190 q 478 -154 478 -169 q 495 -110 478 -128 q 542 -93 513 -93 q 594 -117 574 -93 q 615 -187 615 -140 q 577 -310 615 -250 q 476 -415 539 -369 l 453 -392 z "},"Ġ":{"ha":990,"x_min":58,"x_max":979,"o":"m 525 1086 q 478 1104 496 1086 q 460 1150 460 1122 q 477 1197 460 1179 q 525 1215 494 1215 q 572 1197 554 1215 q 589 1150 589 1179 q 572 1104 589 1122 q 525 1086 554 1086 m 515 -14 q 176 117 294 -14 q 58 486 58 249 q 114 754 58 642 q 275 926 169 867 q 528 986 381 986 q 678 963 604 986 q 796 904 753 939 q 811 897 807 897 q 822 902 819 897 q 825 918 825 907 l 825 979 l 875 979 l 875 713 l 835 713 q 744 872 822 815 q 553 928 665 928 q 290 808 383 928 q 196 486 196 689 q 281 161 196 279 q 536 43 367 43 q 658 58 596 43 q 764 108 721 72 l 764 385 q 739 438 764 422 q 658 454 714 454 l 633 454 l 633 486 l 979 486 l 979 458 l 963 458 q 908 435 921 458 q 894 346 894 413 l 894 96 q 731 13 819 40 q 515 -14 643 -14 z "},"Ḡ":{"ha":990,"x_min":58,"x_max":979,"o":"m 289 1157 l 751 1157 l 751 1099 l 289 1099 l 289 1157 m 515 -14 q 176 117 294 -14 q 58 486 58 249 q 114 754 58 642 q 275 926 169 867 q 528 986 381 986 q 678 963 604 986 q 796 904 753 939 q 811 897 807 897 q 822 902 819 897 q 825 918 825 907 l 825 979 l 875 979 l 875 713 l 835 713 q 744 872 822 815 q 553 928 665 928 q 290 808 383 928 q 196 486 196 689 q 281 161 196 279 q 536 43 367 43 q 658 58 596 43 q 764 108 721 72 l 764 385 q 739 438 764 422 q 658 454 714 454 l 633 454 l 633 486 l 979 486 l 979 458 l 963 458 q 908 435 921 458 q 894 346 894 413 l 894 96 q 731 13 819 40 q 515 -14 643 -14 z "},"H":{"ha":1074,"x_min":31,"x_max":1043,"o":"m 1003 935 q 922 885 922 935 l 922 86 q 1003 36 922 36 l 1043 36 l 1043 0 l 665 0 l 665 36 l 704 36 q 786 86 786 36 l 786 483 l 288 483 l 288 86 q 368 36 288 36 l 410 36 l 410 0 l 31 0 l 31 36 l 71 36 q 131 48 111 36 q 151 86 151 60 l 151 885 q 131 923 151 911 q 71 935 111 935 l 31 935 l 31 972 l 410 972 l 410 935 l 368 935 q 288 885 288 935 l 288 540 l 786 540 l 786 885 q 704 935 786 935 l 665 935 l 665 972 l 1043 972 l 1043 935 l 1003 935 z "},"Ħ":{"ha":1074,"x_min":31,"x_max":1043,"o":"m 1003 935 q 922 885 922 935 l 922 756 l 999 756 l 999 700 l 922 700 l 922 86 q 1003 36 922 36 l 1043 36 l 1043 0 l 665 0 l 665 36 l 704 36 q 786 86 786 36 l 786 483 l 288 483 l 288 86 q 368 36 288 36 l 410 36 l 410 0 l 31 0 l 31 36 l 71 36 q 131 48 111 36 q 151 86 151 60 l 151 700 l 60 700 l 60 756 l 151 756 l 151 885 q 131 923 151 911 q 71 935 111 935 l 31 935 l 31 972 l 410 972 l 410 935 l 368 935 q 288 885 288 935 l 288 756 l 786 756 l 786 885 q 704 935 786 935 l 665 935 l 665 972 l 1043 972 l 1043 935 l 1003 935 m 786 700 l 288 700 l 288 540 l 786 540 l 786 700 z "},"Ḫ":{"ha":1074,"x_min":31,"x_max":1043,"o":"m 1003 935 q 922 885 922 935 l 922 86 q 1003 36 922 36 l 1043 36 l 1043 0 l 665 0 l 665 36 l 704 36 q 786 86 786 36 l 786 483 l 288 483 l 288 86 q 368 36 288 36 l 410 36 l 410 0 l 31 0 l 31 36 l 71 36 q 131 48 111 36 q 151 86 151 60 l 151 885 q 131 923 151 911 q 71 935 111 935 l 31 935 l 31 972 l 410 972 l 410 935 l 368 935 q 288 885 288 935 l 288 540 l 786 540 l 786 885 q 704 935 786 935 l 665 935 l 665 972 l 1043 972 l 1043 935 l 1003 935 m 535 -190 q 644 -161 603 -190 q 690 -74 685 -132 l 736 -74 q 683 -206 732 -157 q 535 -254 633 -254 q 384 -206 433 -254 q 331 -74 335 -158 l 376 -74 q 425 -161 383 -132 q 535 -190 467 -190 z "},"Ĥ":{"ha":1074,"x_min":31,"x_max":1043,"o":"m 353 1086 l 326 1115 l 499 1294 l 572 1294 l 744 1115 l 718 1086 l 568 1206 q 536 1221 544 1221 q 503 1206 524 1221 l 353 1086 m 1003 935 q 922 885 922 935 l 922 86 q 1003 36 922 36 l 1043 36 l 1043 0 l 665 0 l 665 36 l 704 36 q 786 86 786 36 l 786 483 l 288 483 l 288 86 q 368 36 288 36 l 410 36 l 410 0 l 31 0 l 31 36 l 71 36 q 131 48 111 36 q 151 86 151 60 l 151 885 q 131 923 151 911 q 71 935 111 935 l 31 935 l 31 972 l 410 972 l 410 935 l 368 935 q 288 885 288 935 l 288 540 l 786 540 l 786 885 q 704 935 786 935 l 665 935 l 665 972 l 1043 972 l 1043 935 l 1003 935 z "},"Ḥ":{"ha":1074,"x_min":31,"x_max":1043,"o":"m 1003 935 q 922 885 922 935 l 922 86 q 1003 36 922 36 l 1043 36 l 1043 0 l 665 0 l 665 36 l 704 36 q 786 86 786 36 l 786 483 l 288 483 l 288 86 q 368 36 288 36 l 410 36 l 410 0 l 31 0 l 31 36 l 71 36 q 131 48 111 36 q 151 86 151 60 l 151 885 q 131 923 151 911 q 71 935 111 935 l 31 935 l 31 972 l 410 972 l 410 935 l 368 935 q 288 885 288 935 l 288 540 l 786 540 l 786 885 q 704 935 786 935 l 665 935 l 665 972 l 1043 972 l 1043 935 l 1003 935 m 535 -89 q 581 -108 564 -89 q 599 -156 599 -126 q 581 -203 599 -185 q 535 -221 564 -221 q 488 -203 506 -221 q 469 -156 469 -185 q 488 -108 469 -126 q 535 -89 506 -89 z "},"I":{"ha":450,"x_min":36,"x_max":414,"o":"m 36 36 l 76 36 q 157 86 157 36 l 157 885 q 76 935 157 935 l 36 935 l 36 972 l 414 972 l 414 935 l 375 935 q 293 885 293 935 l 293 86 q 375 36 293 36 l 414 36 l 414 0 l 36 0 l 36 36 z "},"Ĳ":{"ha":938,"x_min":36,"x_max":901,"o":"m 36 36 l 76 36 q 157 86 157 36 l 157 885 q 76 935 157 935 l 36 935 l 36 972 l 414 972 l 414 935 l 375 935 q 293 885 293 935 l 293 86 q 375 36 293 36 l 414 36 l 414 0 l 36 0 l 36 36 m 471 -129 q 600 -45 557 -111 q 643 125 643 21 l 643 885 q 623 923 643 911 q 563 935 603 935 l 522 935 l 522 972 l 901 972 l 901 935 l 860 935 q 779 885 779 935 l 779 124 q 697 -85 779 -12 q 476 -158 615 -158 l 471 -129 z "},"Í":{"ha":450,"x_min":36,"x_max":414,"o":"m 90 1121 l 250 1269 q 268 1286 251 1271 q 311 1301 285 1301 q 346 1289 333 1301 q 358 1260 358 1276 q 311 1201 358 1228 l 114 1086 l 90 1121 m 36 36 l 76 36 q 157 86 157 36 l 157 885 q 76 935 157 935 l 36 935 l 36 972 l 414 972 l 414 935 l 375 935 q 293 885 293 935 l 293 86 q 375 36 293 36 l 414 36 l 414 0 l 36 0 l 36 36 z "},"Ĭ":{"ha":450,"x_min":22,"x_max":428,"o":"m 226 1078 q 76 1126 125 1078 q 22 1260 26 1174 l 68 1260 q 116 1171 75 1200 q 226 1142 157 1142 q 335 1171 294 1142 q 382 1260 376 1200 l 428 1260 q 374 1127 424 1176 q 226 1078 325 1078 m 36 36 l 76 36 q 157 86 157 36 l 157 885 q 76 935 157 935 l 36 935 l 36 972 l 414 972 l 414 935 l 375 935 q 293 885 293 935 l 293 86 q 375 36 293 36 l 414 36 l 414 0 l 36 0 l 36 36 z "},"Ǐ":{"ha":451,"x_min":15,"x_max":433,"o":"m 15 1265 l 42 1294 l 192 1176 q 225 1161 214 1161 q 257 1176 239 1161 l 407 1294 l 433 1265 l 261 1086 l 188 1086 l 15 1265 m 36 36 l 76 36 q 157 86 157 36 l 157 885 q 76 935 157 935 l 36 935 l 36 972 l 414 972 l 414 935 l 375 935 q 293 885 293 935 l 293 86 q 375 36 293 36 l 414 36 l 414 0 l 36 0 l 36 36 z "},"Î":{"ha":450,"x_min":15,"x_max":433,"o":"m 15 1115 l 188 1294 l 261 1294 l 433 1115 l 407 1086 l 257 1206 q 225 1221 235 1221 q 192 1206 213 1221 l 42 1086 l 15 1115 m 36 36 l 76 36 q 157 86 157 36 l 157 885 q 76 935 157 935 l 36 935 l 36 972 l 414 972 l 414 935 l 375 935 q 293 885 293 935 l 293 86 q 375 36 293 36 l 414 36 l 414 0 l 36 0 l 36 36 z "},"Ï":{"ha":450,"x_min":10,"x_max":439,"o":"m 74 1085 q 27 1103 44 1085 q 10 1149 10 1121 q 27 1197 10 1178 q 74 1215 44 1215 q 121 1197 103 1215 q 139 1149 139 1178 q 122 1103 139 1121 q 74 1085 104 1085 m 374 1085 q 326 1103 344 1085 q 308 1149 308 1121 q 326 1197 308 1178 q 374 1215 344 1215 q 421 1197 403 1215 q 439 1149 439 1178 q 422 1103 439 1121 q 374 1085 404 1085 m 36 36 l 76 36 q 157 86 157 36 l 157 885 q 76 935 157 935 l 36 935 l 36 972 l 414 972 l 414 935 l 375 935 q 293 885 293 935 l 293 86 q 375 36 293 36 l 414 36 l 414 0 l 36 0 l 36 36 z "},"İ":{"ha":450,"x_min":36,"x_max":414,"o":"m 225 1085 q 178 1103 196 1085 q 160 1149 160 1121 q 177 1196 160 1178 q 225 1214 194 1214 q 272 1196 254 1214 q 289 1149 289 1178 q 272 1103 289 1121 q 225 1085 254 1085 m 36 36 l 76 36 q 157 86 157 36 l 157 885 q 76 935 157 935 l 36 935 l 36 972 l 414 972 l 414 935 l 375 935 q 293 885 293 935 l 293 86 q 375 36 293 36 l 414 36 l 414 0 l 36 0 l 36 36 z "},"Ị":{"ha":451,"x_min":36,"x_max":414,"o":"m 36 36 l 76 36 q 157 86 157 36 l 157 885 q 76 935 157 935 l 36 935 l 36 972 l 414 972 l 414 935 l 375 935 q 293 885 293 935 l 293 86 q 375 36 293 36 l 414 36 l 414 0 l 36 0 l 36 36 m 225 -221 q 178 -203 196 -221 q 160 -156 160 -185 q 178 -108 160 -126 q 225 -89 196 -89 q 272 -108 254 -89 q 289 -156 289 -126 q 272 -203 289 -185 q 225 -221 254 -221 z "},"Ì":{"ha":450,"x_min":36,"x_max":414,"o":"m 135 1201 q 92 1261 92 1226 q 103 1290 92 1278 q 136 1301 115 1301 q 199 1268 165 1301 l 358 1121 l 333 1086 l 135 1201 m 36 36 l 76 36 q 157 86 157 36 l 157 885 q 76 935 157 935 l 36 935 l 36 972 l 414 972 l 414 935 l 375 935 q 293 885 293 935 l 293 86 q 375 36 293 36 l 414 36 l 414 0 l 36 0 l 36 36 z "},"Ỉ":{"ha":451,"x_min":36,"x_max":414,"o":"m 271 1081 q 198 1100 221 1081 q 175 1150 175 1119 q 188 1185 175 1171 q 232 1222 201 1200 q 274 1256 260 1242 q 289 1292 289 1271 q 276 1323 289 1310 q 242 1336 263 1336 q 209 1329 224 1336 q 189 1308 194 1322 q 185 1295 188 1306 q 173 1278 182 1285 q 150 1271 164 1271 q 118 1306 118 1271 q 153 1358 118 1339 q 240 1376 189 1376 q 331 1353 297 1376 q 364 1288 364 1331 q 346 1243 364 1261 q 292 1203 328 1225 q 253 1175 265 1186 q 240 1150 240 1164 q 251 1125 240 1133 q 283 1108 261 1117 l 271 1081 m 36 36 l 76 36 q 157 86 157 36 l 157 885 q 76 935 157 935 l 36 935 l 36 972 l 414 972 l 414 935 l 375 935 q 293 885 293 935 l 293 86 q 375 36 293 36 l 414 36 l 414 0 l 36 0 l 36 36 z "},"Ī":{"ha":450,"x_min":-43,"x_max":493,"o":"m -43 1150 l 493 1150 l 493 1086 l -43 1086 l -43 1150 m 36 36 l 76 36 q 157 86 157 36 l 157 885 q 76 935 157 935 l 36 935 l 36 972 l 414 972 l 414 935 l 375 935 q 293 885 293 935 l 293 86 q 375 36 293 36 l 414 36 l 414 0 l 36 0 l 36 36 z "},"Į":{"ha":450,"x_min":36,"x_max":414,"o":"m 375 935 q 293 885 293 935 l 293 86 q 375 36 293 36 l 414 36 l 414 0 l 351 0 q 283 -70 307 -32 q 258 -147 258 -108 q 281 -206 258 -186 q 342 -225 304 -225 q 406 -211 368 -225 l 414 -239 q 304 -272 365 -272 q 204 -237 235 -272 q 174 -158 174 -201 q 206 -69 174 -110 q 292 0 238 -29 l 36 0 l 36 36 l 76 36 q 157 86 157 36 l 157 885 q 76 935 157 935 l 36 935 l 36 972 l 414 972 l 414 935 l 375 935 z "},"Ĩ":{"ha":450,"x_min":-10,"x_max":460,"o":"m -10 1101 q 40 1197 4 1160 q 128 1235 75 1235 q 174 1226 151 1235 q 236 1197 197 1217 q 294 1170 271 1179 q 339 1161 317 1161 q 392 1182 372 1161 q 431 1247 413 1203 l 460 1232 q 411 1132 446 1171 q 321 1093 376 1093 q 276 1102 299 1093 q 217 1131 254 1111 q 160 1158 185 1149 q 111 1168 136 1168 q 57 1148 78 1168 q 21 1086 36 1128 l -10 1101 m 36 36 l 76 36 q 157 86 157 36 l 157 885 q 76 935 157 935 l 36 935 l 36 972 l 414 972 l 414 935 l 375 935 q 293 885 293 935 l 293 86 q 375 36 293 36 l 414 36 l 414 0 l 36 0 l 36 36 z "},"J":{"ha":514,"x_min":47,"x_max":478,"o":"m 47 -129 q 176 -45 133 -111 q 219 125 219 21 l 219 885 q 199 923 219 911 q 139 935 179 935 l 99 935 l 99 972 l 478 972 l 478 935 l 436 935 q 356 885 356 935 l 356 124 q 274 -85 356 -12 q 53 -158 192 -158 l 47 -129 z "},"Ĵ":{"ha":514,"x_min":47,"x_max":494,"o":"m 76 1139 l 249 1318 l 322 1318 l 494 1139 l 468 1110 l 318 1229 q 286 1244 296 1244 q 253 1229 274 1244 l 103 1110 l 76 1139 m 47 -129 q 176 -45 133 -111 q 219 125 219 21 l 219 885 q 199 923 219 911 q 139 935 179 935 l 99 935 l 99 972 l 478 972 l 478 935 l 436 935 q 356 885 356 935 l 356 124 q 274 -85 356 -12 q 53 -158 192 -158 l 47 -129 z "},"K":{"ha":974,"x_min":31,"x_max":951,"o":"m 951 36 l 951 0 l 729 0 l 289 450 l 288 450 l 288 86 q 368 36 288 36 l 410 36 l 410 0 l 31 0 l 31 36 l 71 36 q 131 48 111 36 q 151 86 151 60 l 151 885 q 131 923 151 911 q 71 935 111 935 l 31 935 l 31 972 l 410 972 l 410 935 l 368 935 q 288 885 288 935 l 288 536 l 689 889 q 699 908 699 899 q 646 935 699 935 l 625 935 l 625 972 l 903 972 l 903 935 l 875 935 q 830 926 849 935 q 794 901 811 917 l 378 529 l 797 100 q 853 52 829 68 q 911 36 878 36 l 951 36 z "},"Ķ":{"ha":974,"x_min":31,"x_max":951,"o":"m 951 36 l 951 0 l 729 0 l 289 450 l 288 450 l 288 86 q 368 36 288 36 l 410 36 l 410 0 l 31 0 l 31 36 l 71 36 q 131 48 111 36 q 151 86 151 60 l 151 885 q 131 923 151 911 q 71 935 111 935 l 31 935 l 31 972 l 410 972 l 410 935 l 368 935 q 288 885 288 935 l 288 536 l 689 889 q 699 908 699 899 q 646 935 699 935 l 625 935 l 625 972 l 903 972 l 903 935 l 875 935 q 830 926 849 935 q 794 901 811 917 l 378 529 l 797 100 q 853 52 829 68 q 911 36 878 36 l 951 36 m 521 -93 q 574 -117 553 -93 q 594 -187 594 -140 q 556 -310 594 -250 q 456 -415 518 -369 l 432 -392 q 506 -260 506 -321 q 499 -233 506 -243 q 481 -206 493 -222 q 463 -180 468 -190 q 457 -154 457 -169 q 474 -110 457 -128 q 521 -93 492 -93 z "},"L":{"ha":829,"x_min":33,"x_max":801,"o":"m 33 36 l 74 36 q 156 86 156 36 l 156 885 q 74 935 156 935 l 33 935 l 33 972 l 413 972 l 413 935 l 372 935 q 312 923 332 935 q 292 885 292 911 l 292 113 q 375 56 292 56 l 638 56 q 724 122 694 56 q 763 258 754 189 l 801 258 l 778 0 l 33 0 l 33 36 z "},"Ĺ":{"ha":829,"x_min":33,"x_max":801,"o":"m 157 1121 l 317 1269 q 335 1286 318 1271 q 378 1301 351 1301 q 413 1289 400 1301 q 425 1260 425 1276 q 378 1201 425 1228 l 181 1086 l 157 1121 m 33 36 l 74 36 q 156 86 156 36 l 156 885 q 74 935 156 935 l 33 935 l 33 972 l 413 972 l 413 935 l 372 935 q 312 923 332 935 q 292 885 292 911 l 292 113 q 375 56 292 56 l 638 56 q 724 122 694 56 q 763 258 754 189 l 801 258 l 778 0 l 33 0 l 33 36 z "},"Ľ":{"ha":829,"x_min":33,"x_max":801,"o":"m 518 683 q 590 815 590 756 q 585 841 590 831 q 574 859 581 851 q 567 869 568 867 q 549 893 556 882 q 543 919 543 904 q 560 963 543 946 q 607 981 578 981 q 659 958 639 981 q 679 889 679 935 q 640 765 679 826 q 540 660 601 704 l 518 683 m 33 36 l 74 36 q 156 86 156 36 l 156 885 q 74 935 156 935 l 33 935 l 33 972 l 413 972 l 413 935 l 372 935 q 312 923 332 935 q 292 885 292 911 l 292 113 q 375 56 292 56 l 638 56 q 724 122 694 56 q 763 258 754 189 l 801 258 l 778 0 l 33 0 l 33 36 z "},"Ļ":{"ha":829,"x_min":33,"x_max":801,"o":"m 33 36 l 74 36 q 156 86 156 36 l 156 885 q 74 935 156 935 l 33 935 l 33 972 l 413 972 l 413 935 l 372 935 q 312 923 332 935 q 292 885 292 911 l 292 113 q 375 56 292 56 l 638 56 q 724 122 694 56 q 763 258 754 189 l 801 258 l 778 0 l 33 0 l 33 36 m 325 -392 q 399 -260 399 -321 q 392 -233 399 -243 q 374 -206 386 -222 q 356 -180 361 -190 q 350 -154 350 -169 q 367 -110 350 -128 q 414 -93 385 -93 q 467 -117 446 -93 q 488 -187 488 -140 q 449 -310 488 -250 q 349 -415 411 -369 l 325 -392 z "},"Ŀ":{"ha":829,"x_min":33,"x_max":801,"o":"m 33 36 l 74 36 q 156 86 156 36 l 156 885 q 74 935 156 935 l 33 935 l 33 972 l 413 972 l 413 935 l 372 935 q 312 923 332 935 q 292 885 292 911 l 292 113 q 375 56 292 56 l 638 56 q 724 122 694 56 q 763 258 754 189 l 801 258 l 778 0 l 33 0 l 33 36 m 536 433 q 490 452 507 433 q 472 500 472 471 q 490 547 472 529 q 536 565 507 565 q 583 547 565 565 q 601 500 601 528 q 583 452 601 471 q 536 433 565 433 z "},"Ḷ":{"ha":829,"x_min":33,"x_max":801,"o":"m 33 36 l 74 36 q 156 86 156 36 l 156 885 q 74 935 156 935 l 33 935 l 33 972 l 413 972 l 413 935 l 372 935 q 312 923 332 935 q 292 885 292 911 l 292 113 q 375 56 292 56 l 638 56 q 724 122 694 56 q 763 258 754 189 l 801 258 l 778 0 l 33 0 l 33 36 m 447 -221 q 400 -203 418 -221 q 382 -156 382 -185 q 400 -108 382 -126 q 447 -89 418 -89 q 494 -108 476 -89 q 511 -156 511 -126 q 494 -203 511 -185 q 447 -221 476 -221 z "},"Ḹ":{"ha":829,"x_min":33,"x_max":801,"o":"m 68 1157 l 531 1157 l 531 1099 l 68 1099 l 68 1157 m 33 36 l 74 36 q 156 86 156 36 l 156 885 q 74 935 156 935 l 33 935 l 33 972 l 413 972 l 413 935 l 372 935 q 312 923 332 935 q 292 885 292 911 l 292 113 q 375 56 292 56 l 638 56 q 724 122 694 56 q 763 258 754 189 l 801 258 l 778 0 l 33 0 l 33 36 m 447 -221 q 400 -203 418 -221 q 382 -156 382 -185 q 400 -108 382 -126 q 447 -89 418 -89 q 494 -108 476 -89 q 511 -156 511 -126 q 494 -203 511 -185 q 447 -221 476 -221 z "},"Ḻ":{"ha":829,"x_min":33,"x_max":801,"o":"m 33 36 l 74 36 q 156 86 156 36 l 156 885 q 74 935 156 935 l 33 935 l 33 972 l 413 972 l 413 935 l 372 935 q 312 923 332 935 q 292 885 292 911 l 292 113 q 375 56 292 56 l 638 56 q 724 122 694 56 q 763 258 754 189 l 801 258 l 778 0 l 33 0 l 33 36 m 182 -100 l 643 -100 l 643 -153 l 182 -153 l 182 -100 z "},"Ł":{"ha":829,"x_min":33,"x_max":801,"o":"m 801 258 l 778 0 l 33 0 l 33 36 l 74 36 q 156 86 156 36 l 156 374 l 44 333 l 44 406 l 156 446 l 156 885 q 74 935 156 935 l 33 935 l 33 972 l 413 972 l 413 935 l 372 935 q 312 923 332 935 q 292 885 292 911 l 292 494 l 583 600 l 583 529 l 292 424 l 292 113 q 375 56 292 56 l 638 56 q 724 122 694 56 q 763 258 754 189 l 801 258 z "},"M":{"ha":1254,"x_min":31,"x_max":1224,"o":"m 31 36 l 71 36 q 131 48 111 36 q 151 86 151 60 l 151 885 q 131 923 151 911 q 71 935 111 935 l 31 935 l 31 972 l 296 972 l 619 229 l 946 972 l 1224 972 l 1224 935 l 1183 935 q 1123 923 1143 935 q 1103 885 1103 911 l 1103 86 q 1123 48 1103 60 q 1183 36 1143 36 l 1224 36 l 1224 0 l 844 0 l 844 36 l 885 36 q 967 86 967 36 l 967 853 l 632 106 l 551 106 l 221 850 l 221 86 q 301 36 221 36 l 343 36 l 343 0 l 31 0 l 31 36 z "},"Ṃ":{"ha":1254,"x_min":31,"x_max":1224,"o":"m 31 36 l 71 36 q 131 48 111 36 q 151 86 151 60 l 151 885 q 131 923 151 911 q 71 935 111 935 l 31 935 l 31 972 l 296 972 l 619 229 l 946 972 l 1224 972 l 1224 935 l 1183 935 q 1123 923 1143 935 q 1103 885 1103 911 l 1103 86 q 1123 48 1103 60 q 1183 36 1143 36 l 1224 36 l 1224 0 l 844 0 l 844 36 l 885 36 q 967 86 967 36 l 967 853 l 632 106 l 551 106 l 221 850 l 221 86 q 301 36 221 36 l 343 36 l 343 0 l 31 0 l 31 36 m 626 -221 q 579 -203 597 -221 q 561 -156 561 -185 q 579 -108 561 -126 q 626 -89 597 -89 q 673 -108 656 -89 q 690 -156 690 -126 q 673 -203 690 -185 q 626 -221 656 -221 z "},"N":{"ha":1049,"x_min":31,"x_max":1018,"o":"m 31 36 l 71 36 q 131 48 111 36 q 151 86 151 60 l 151 885 q 131 923 151 911 q 71 935 111 935 l 31 935 l 31 972 l 301 972 l 826 175 l 826 885 q 806 923 826 911 q 746 935 786 935 l 706 935 l 706 972 l 1018 972 l 1018 935 l 976 935 q 896 885 896 935 l 896 0 l 815 0 l 221 892 l 221 86 q 301 36 221 36 l 343 36 l 343 0 l 31 0 l 31 36 z "},"Ń":{"ha":1049,"x_min":31,"x_max":1018,"o":"m 415 1121 l 575 1269 q 593 1286 576 1271 q 636 1301 610 1301 q 671 1289 658 1301 q 683 1260 683 1276 q 636 1201 683 1228 l 439 1086 l 415 1121 m 31 36 l 71 36 q 131 48 111 36 q 151 86 151 60 l 151 885 q 131 923 151 911 q 71 935 111 935 l 31 935 l 31 972 l 301 972 l 826 175 l 826 885 q 806 923 826 911 q 746 935 786 935 l 706 935 l 706 972 l 1018 972 l 1018 935 l 976 935 q 896 885 896 935 l 896 0 l 815 0 l 221 892 l 221 86 q 301 36 221 36 l 343 36 l 343 0 l 31 0 l 31 36 z "},"Ň":{"ha":1049,"x_min":31,"x_max":1018,"o":"m 314 1265 l 340 1294 l 490 1176 q 524 1161 513 1161 q 556 1176 538 1161 l 706 1294 l 732 1265 l 560 1086 l 486 1086 l 314 1265 m 31 36 l 71 36 q 131 48 111 36 q 151 86 151 60 l 151 885 q 131 923 151 911 q 71 935 111 935 l 31 935 l 31 972 l 301 972 l 826 175 l 826 885 q 806 923 826 911 q 746 935 786 935 l 706 935 l 706 972 l 1018 972 l 1018 935 l 976 935 q 896 885 896 935 l 896 0 l 815 0 l 221 892 l 221 86 q 301 36 221 36 l 343 36 l 343 0 l 31 0 l 31 36 z "},"Ņ":{"ha":1049,"x_min":31,"x_max":1018,"o":"m 31 36 l 71 36 q 131 48 111 36 q 151 86 151 60 l 151 885 q 131 923 151 911 q 71 935 111 935 l 31 935 l 31 972 l 301 972 l 826 175 l 826 885 q 806 923 826 911 q 746 935 786 935 l 706 935 l 706 972 l 1018 972 l 1018 935 l 976 935 q 896 885 896 935 l 896 0 l 815 0 l 221 892 l 221 86 q 301 36 221 36 l 343 36 l 343 0 l 31 0 l 31 36 m 411 -392 q 485 -260 485 -321 q 478 -233 485 -243 q 460 -206 472 -222 q 442 -180 447 -190 q 436 -154 436 -169 q 453 -110 436 -128 q 500 -93 471 -93 q 553 -117 532 -93 q 574 -187 574 -140 q 535 -310 574 -250 q 435 -415 497 -369 l 411 -392 z "},"Ṅ":{"ha":1049,"x_min":31,"x_max":1018,"o":"m 524 1063 q 476 1081 494 1063 q 458 1126 458 1099 q 476 1174 458 1156 q 524 1192 493 1192 q 570 1174 553 1192 q 588 1126 588 1156 q 570 1081 588 1099 q 524 1063 553 1063 m 31 36 l 71 36 q 131 48 111 36 q 151 86 151 60 l 151 885 q 131 923 151 911 q 71 935 111 935 l 31 935 l 31 972 l 301 972 l 826 175 l 826 885 q 806 923 826 911 q 746 935 786 935 l 706 935 l 706 972 l 1018 972 l 1018 935 l 976 935 q 896 885 896 935 l 896 0 l 815 0 l 221 892 l 221 86 q 301 36 221 36 l 343 36 l 343 0 l 31 0 l 31 36 z "},"Ṇ":{"ha":1049,"x_min":31,"x_max":1018,"o":"m 31 36 l 71 36 q 131 48 111 36 q 151 86 151 60 l 151 885 q 131 923 151 911 q 71 935 111 935 l 31 935 l 31 972 l 301 972 l 826 175 l 826 885 q 806 923 826 911 q 746 935 786 935 l 706 935 l 706 972 l 1018 972 l 1018 935 l 976 935 q 896 885 896 935 l 896 0 l 815 0 l 221 892 l 221 86 q 301 36 221 36 l 343 36 l 343 0 l 31 0 l 31 36 m 538 -221 q 490 -203 508 -221 q 472 -156 472 -185 q 490 -108 472 -126 q 538 -89 508 -89 q 584 -108 567 -89 q 601 -156 601 -126 q 584 -203 601 -185 q 538 -221 567 -221 z "},"Ŋ":{"ha":1049,"x_min":31,"x_max":1018,"o":"m 588 -337 q 701 -303 649 -333 q 783 -222 753 -274 q 814 -106 814 -171 l 814 0 l 221 899 l 221 86 q 301 36 221 36 l 343 36 l 343 0 l 31 0 l 31 36 l 71 36 q 133 48 114 36 q 151 86 151 60 l 151 885 q 131 923 151 911 q 71 935 111 935 l 31 935 l 31 972 l 304 972 l 826 174 l 826 885 q 806 923 826 911 q 746 935 786 935 l 706 935 l 706 972 l 1018 972 l 1018 935 l 976 935 q 896 885 896 935 l 896 -50 q 828 -285 896 -208 q 593 -372 760 -362 l 588 -337 z "},"Ṉ":{"ha":1049,"x_min":31,"x_max":1018,"o":"m 31 36 l 71 36 q 131 48 111 36 q 151 86 151 60 l 151 885 q 131 923 151 911 q 71 935 111 935 l 31 935 l 31 972 l 301 972 l 826 175 l 826 885 q 806 923 826 911 q 746 935 786 935 l 706 935 l 706 972 l 1018 972 l 1018 935 l 976 935 q 896 885 896 935 l 896 0 l 815 0 l 221 892 l 221 86 q 301 36 221 36 l 343 36 l 343 0 l 31 0 l 31 36 m 292 -100 l 753 -100 l 753 -153 l 292 -153 l 292 -100 z "},"Ñ":{"ha":1049,"x_min":31,"x_max":1018,"o":"m 303 1099 q 352 1194 317 1157 q 440 1232 388 1232 q 487 1223 464 1232 q 549 1194 510 1214 q 606 1167 583 1176 q 651 1158 629 1158 q 705 1179 685 1158 q 743 1244 725 1200 l 772 1229 q 724 1129 758 1168 q 633 1090 689 1090 q 589 1099 611 1090 q 529 1128 567 1108 q 473 1156 497 1146 q 424 1165 449 1165 q 369 1145 390 1165 q 333 1083 349 1125 l 303 1099 m 31 36 l 71 36 q 131 48 111 36 q 151 86 151 60 l 151 885 q 131 923 151 911 q 71 935 111 935 l 31 935 l 31 972 l 301 972 l 826 175 l 826 885 q 806 923 826 911 q 746 935 786 935 l 706 935 l 706 972 l 1018 972 l 1018 935 l 976 935 q 896 885 896 935 l 896 0 l 815 0 l 221 892 l 221 86 q 301 36 221 36 l 343 36 l 343 0 l 31 0 l 31 36 z "},"O":{"ha":1049,"x_min":50,"x_max":999,"o":"m 525 -14 q 172 117 294 -14 q 50 486 50 249 q 172 854 50 722 q 525 986 294 986 q 876 854 754 986 q 999 486 999 722 q 877 117 999 249 q 525 -14 756 -14 m 524 44 q 776 163 690 44 q 861 486 861 281 q 776 810 861 692 q 524 928 690 928 q 273 809 358 928 q 188 486 188 690 q 273 163 188 281 q 524 44 358 44 z "},"Ó":{"ha":1049,"x_min":50,"x_max":999,"o":"m 390 1121 l 550 1269 q 568 1286 551 1271 q 611 1301 585 1301 q 646 1289 633 1301 q 658 1260 658 1276 q 611 1201 658 1228 l 414 1086 l 390 1121 m 525 -14 q 172 117 294 -14 q 50 486 50 249 q 172 854 50 722 q 525 986 294 986 q 876 854 754 986 q 999 486 999 722 q 877 117 999 249 q 525 -14 756 -14 m 524 44 q 776 163 690 44 q 861 486 861 281 q 776 810 861 692 q 524 928 690 928 q 273 809 358 928 q 188 486 188 690 q 273 163 188 281 q 524 44 358 44 z "},"Ŏ":{"ha":1049,"x_min":50,"x_max":999,"o":"m 525 1075 q 374 1123 424 1075 q 321 1257 325 1171 l 367 1257 q 415 1168 374 1197 q 525 1139 456 1139 q 634 1168 593 1139 q 681 1257 675 1197 l 726 1257 q 673 1124 722 1174 q 525 1075 624 1075 m 525 -14 q 172 117 294 -14 q 50 486 50 249 q 172 854 50 722 q 525 986 294 986 q 876 854 754 986 q 999 486 999 722 q 877 117 999 249 q 525 -14 756 -14 m 524 44 q 776 163 690 44 q 861 486 861 281 q 776 810 861 692 q 524 928 690 928 q 273 809 358 928 q 188 486 188 690 q 273 163 188 281 q 524 44 358 44 z "},"Ǒ":{"ha":1049,"x_min":50,"x_max":999,"o":"m 315 1265 l 342 1294 l 492 1176 q 525 1161 514 1161 q 557 1176 539 1161 l 707 1294 l 733 1265 l 561 1086 l 488 1086 l 315 1265 m 525 -14 q 172 117 294 -14 q 50 486 50 249 q 172 854 50 722 q 525 986 294 986 q 876 854 754 986 q 999 486 999 722 q 877 117 999 249 q 525 -14 756 -14 m 524 44 q 776 163 690 44 q 861 486 861 281 q 776 810 861 692 q 524 928 690 928 q 273 809 358 928 q 188 486 188 690 q 273 163 188 281 q 524 44 358 44 z "},"Ô":{"ha":1049,"x_min":50,"x_max":999,"o":"m 315 1115 l 488 1294 l 561 1294 l 733 1115 l 707 1086 l 557 1206 q 525 1221 533 1221 q 492 1206 513 1221 l 342 1086 l 315 1115 m 525 -14 q 172 117 294 -14 q 50 486 50 249 q 172 854 50 722 q 525 986 294 986 q 876 854 754 986 q 999 486 999 722 q 877 117 999 249 q 525 -14 756 -14 m 524 44 q 776 163 690 44 q 861 486 861 281 q 776 810 861 692 q 524 928 690 928 q 273 809 358 928 q 188 486 188 690 q 273 163 188 281 q 524 44 358 44 z "},"Ố":{"ha":1049,"x_min":50,"x_max":999,"o":"m 657 1269 l 790 1399 q 854 1435 826 1435 q 889 1422 876 1435 q 901 1392 901 1408 q 888 1360 901 1376 q 851 1332 875 1344 l 682 1239 l 657 1269 m 318 1114 l 488 1293 l 558 1293 l 728 1114 l 701 1083 l 554 1203 q 522 1218 532 1218 q 483 1196 511 1218 l 343 1083 l 318 1114 m 525 -14 q 172 117 294 -14 q 50 486 50 249 q 172 854 50 722 q 525 986 294 986 q 876 854 754 986 q 999 486 999 722 q 877 117 999 249 q 525 -14 756 -14 m 524 44 q 776 163 690 44 q 861 486 861 281 q 776 810 861 692 q 524 928 690 928 q 273 809 358 928 q 188 486 188 690 q 273 163 188 281 q 524 44 358 44 z "},"Ộ":{"ha":1049,"x_min":50,"x_max":999,"o":"m 486 1294 l 560 1294 l 732 1115 l 706 1086 l 556 1206 q 524 1221 532 1221 q 490 1206 511 1221 l 340 1086 l 314 1115 l 486 1294 m 50 486 q 172 854 50 722 q 525 986 294 986 q 876 854 754 986 q 999 486 999 722 q 877 117 999 249 q 525 -14 756 -14 q 172 117 294 -14 q 50 486 50 249 m 188 486 q 273 163 188 281 q 524 44 358 44 q 776 163 690 44 q 861 486 861 281 q 776 810 861 692 q 524 928 690 928 q 273 809 358 928 q 188 486 188 690 m 458 -156 q 476 -108 458 -126 q 524 -89 494 -89 q 570 -108 553 -89 q 588 -156 588 -126 q 570 -203 588 -185 q 524 -221 553 -221 q 476 -203 494 -221 q 458 -156 458 -185 z "},"Ồ":{"ha":1049,"x_min":50,"x_max":999,"o":"m 203 1332 q 166 1360 179 1344 q 153 1392 153 1376 q 165 1422 153 1408 q 199 1435 178 1435 q 264 1399 228 1435 l 396 1269 l 372 1239 l 203 1332 m 318 1114 l 488 1293 l 558 1293 l 728 1114 l 701 1083 l 554 1203 q 522 1218 532 1218 q 483 1196 511 1218 l 343 1083 l 318 1114 m 525 -14 q 172 117 294 -14 q 50 486 50 249 q 172 854 50 722 q 525 986 294 986 q 876 854 754 986 q 999 486 999 722 q 877 117 999 249 q 525 -14 756 -14 m 524 44 q 776 163 690 44 q 861 486 861 281 q 776 810 861 692 q 524 928 690 928 q 273 809 358 928 q 188 486 188 690 q 273 163 188 281 q 524 44 358 44 z "},"Ổ":{"ha":1049,"x_min":50,"x_max":999,"o":"m 753 1222 q 686 1240 707 1222 q 665 1285 665 1257 q 678 1316 665 1303 q 717 1346 692 1329 q 754 1376 742 1363 q 767 1407 767 1389 q 756 1434 767 1424 q 725 1444 744 1444 q 694 1437 703 1444 q 675 1414 685 1429 q 662 1396 668 1401 q 643 1390 656 1390 q 623 1399 632 1390 q 614 1419 614 1407 q 647 1463 614 1449 q 719 1476 679 1476 q 802 1458 768 1476 q 836 1403 836 1439 q 819 1363 836 1379 q 771 1329 803 1347 q 736 1306 747 1315 q 725 1286 725 1297 q 735 1264 725 1272 q 765 1247 744 1256 l 753 1222 m 318 1115 l 488 1294 l 558 1294 l 728 1115 l 701 1085 l 554 1204 q 522 1219 532 1219 q 478 1192 508 1219 l 343 1085 l 318 1115 m 525 -14 q 172 117 294 -14 q 50 486 50 249 q 172 854 50 722 q 525 986 294 986 q 876 854 754 986 q 999 486 999 722 q 877 117 999 249 q 525 -14 756 -14 m 524 44 q 776 163 690 44 q 861 486 861 281 q 776 810 861 692 q 524 928 690 928 q 273 809 358 928 q 188 486 188 690 q 273 163 188 281 q 524 44 358 44 z "},"Ỗ":{"ha":1049,"x_min":50,"x_max":999,"o":"m 303 1347 q 348 1442 314 1404 q 432 1479 382 1479 q 478 1470 456 1479 q 535 1442 500 1461 q 590 1415 568 1424 q 633 1406 613 1406 q 686 1427 667 1406 q 719 1493 706 1449 l 749 1476 q 702 1378 735 1417 q 618 1339 669 1339 q 575 1348 596 1339 q 518 1376 554 1357 q 463 1404 486 1394 q 417 1414 440 1414 q 365 1393 385 1414 q 331 1331 344 1372 l 303 1347 m 318 1115 l 488 1294 l 558 1294 l 728 1115 l 701 1085 l 554 1204 q 522 1219 532 1219 q 483 1197 511 1219 l 343 1085 l 318 1115 m 525 -14 q 172 117 294 -14 q 50 486 50 249 q 172 854 50 722 q 525 986 294 986 q 876 854 754 986 q 999 486 999 722 q 877 117 999 249 q 525 -14 756 -14 m 524 44 q 776 163 690 44 q 861 486 861 281 q 776 810 861 692 q 524 928 690 928 q 273 809 358 928 q 188 486 188 690 q 273 163 188 281 q 524 44 358 44 z "},"Ö":{"ha":1049,"x_min":50,"x_max":999,"o":"m 374 1085 q 327 1103 344 1085 q 310 1149 310 1121 q 327 1197 310 1178 q 374 1215 344 1215 q 421 1197 403 1215 q 439 1149 439 1178 q 422 1103 439 1121 q 374 1085 404 1085 m 674 1085 q 626 1103 644 1085 q 608 1149 608 1121 q 626 1197 608 1178 q 674 1215 644 1215 q 721 1197 703 1215 q 739 1149 739 1178 q 722 1103 739 1121 q 674 1085 704 1085 m 525 -14 q 172 117 294 -14 q 50 486 50 249 q 172 854 50 722 q 525 986 294 986 q 876 854 754 986 q 999 486 999 722 q 877 117 999 249 q 525 -14 756 -14 m 524 44 q 776 163 690 44 q 861 486 861 281 q 776 810 861 692 q 524 928 690 928 q 273 809 358 928 q 188 486 188 690 q 273 163 188 281 q 524 44 358 44 z "},"Ọ":{"ha":1049,"x_min":50,"x_max":999,"o":"m 50 486 q 172 854 50 722 q 525 986 294 986 q 876 854 754 986 q 999 486 999 722 q 877 117 999 249 q 525 -14 756 -14 q 172 117 294 -14 q 50 486 50 249 m 188 486 q 273 163 188 281 q 524 44 358 44 q 776 163 690 44 q 861 486 861 281 q 776 810 861 692 q 524 928 690 928 q 273 809 358 928 q 188 486 188 690 m 458 -156 q 476 -108 458 -126 q 524 -89 494 -89 q 570 -108 553 -89 q 588 -156 588 -126 q 570 -203 588 -185 q 524 -221 553 -221 q 476 -203 494 -221 q 458 -156 458 -185 z "},"Ò":{"ha":1049,"x_min":50,"x_max":999,"o":"m 414 1201 q 371 1261 371 1226 q 383 1290 371 1278 q 415 1301 394 1301 q 478 1268 444 1301 l 638 1121 l 613 1086 l 414 1201 m 525 -14 q 172 117 294 -14 q 50 486 50 249 q 172 854 50 722 q 525 986 294 986 q 876 854 754 986 q 999 486 999 722 q 877 117 999 249 q 525 -14 756 -14 m 524 44 q 776 163 690 44 q 861 486 861 281 q 776 810 861 692 q 524 928 690 928 q 273 809 358 928 q 188 486 188 690 q 273 163 188 281 q 524 44 358 44 z "},"Ỏ":{"ha":1049,"x_min":50,"x_max":999,"o":"m 553 1081 q 480 1100 503 1081 q 457 1150 457 1119 q 470 1185 457 1171 q 514 1222 483 1200 q 556 1256 542 1242 q 571 1292 571 1271 q 558 1323 571 1310 q 524 1336 544 1336 q 491 1329 506 1336 q 471 1308 476 1322 q 467 1295 469 1306 q 455 1278 464 1285 q 432 1271 446 1271 q 400 1306 400 1271 q 435 1358 400 1339 q 522 1376 471 1376 q 613 1353 579 1376 q 646 1288 646 1331 q 628 1243 646 1261 q 574 1203 610 1225 q 535 1175 547 1186 q 522 1150 522 1164 q 533 1125 522 1133 q 565 1108 543 1117 l 553 1081 m 525 -14 q 172 117 294 -14 q 50 486 50 249 q 172 854 50 722 q 525 986 294 986 q 876 854 754 986 q 999 486 999 722 q 877 117 999 249 q 525 -14 756 -14 m 524 44 q 776 163 690 44 q 861 486 861 281 q 776 810 861 692 q 524 928 690 928 q 273 809 358 928 q 188 486 188 690 q 273 163 188 281 q 524 44 358 44 z "},"Ơ":{"ha":1060,"x_min":51,"x_max":1050,"o":"m 1050 979 q 1016 872 1050 924 q 929 786 982 819 q 1000 486 1000 668 q 878 117 1000 249 q 526 -14 757 -14 q 174 117 296 -14 q 51 486 51 249 q 174 854 51 722 q 526 986 296 986 q 752 943 656 986 q 908 818 849 900 q 957 907 957 863 q 951 935 957 924 q 933 961 946 946 q 917 986 922 975 q 911 1013 911 997 q 928 1055 911 1038 q 974 1072 944 1072 q 1028 1049 1006 1072 q 1050 979 1050 1025 m 525 44 q 777 163 692 44 q 863 486 863 281 q 777 810 863 692 q 525 928 692 928 q 274 809 360 928 q 189 486 189 690 q 274 163 189 281 q 525 44 360 44 z "},"Ớ":{"ha":1060,"x_min":51,"x_max":1050,"o":"m 392 1085 l 368 1119 l 528 1268 q 546 1285 529 1269 q 589 1300 563 1300 q 624 1288 611 1300 q 636 1258 636 1275 q 589 1200 636 1226 l 392 1085 m 1050 979 q 1016 872 1050 924 q 929 786 982 819 q 1000 486 1000 668 q 878 117 1000 249 q 526 -14 757 -14 q 174 117 296 -14 q 51 486 51 249 q 174 854 51 722 q 526 986 296 986 q 752 943 656 986 q 908 818 849 900 q 957 907 957 863 q 951 935 957 924 q 933 961 946 946 q 917 986 922 975 q 911 1013 911 997 q 928 1055 911 1038 q 974 1072 944 1072 q 1028 1049 1006 1072 q 1050 979 1050 1025 m 525 44 q 777 163 692 44 q 863 486 863 281 q 777 810 863 692 q 525 928 692 928 q 274 809 360 928 q 189 486 189 690 q 274 163 189 281 q 525 44 360 44 z "},"Ợ":{"ha":1060,"x_min":51,"x_max":1050,"o":"m 1050 979 q 1016 872 1050 924 q 929 786 982 819 q 1000 486 1000 668 q 878 117 1000 249 q 526 -14 757 -14 q 174 117 296 -14 q 51 486 51 249 q 174 854 51 722 q 526 986 296 986 q 752 943 656 986 q 908 818 849 900 q 957 907 957 863 q 951 935 957 924 q 933 961 946 946 q 917 986 922 975 q 911 1013 911 997 q 928 1055 911 1038 q 974 1072 944 1072 q 1028 1049 1006 1072 q 1050 979 1050 1025 m 525 44 q 777 163 692 44 q 863 486 863 281 q 777 810 863 692 q 525 928 692 928 q 274 809 360 928 q 189 486 189 690 q 274 163 189 281 q 525 44 360 44 m 510 -89 q 556 -108 539 -89 q 574 -156 574 -126 q 556 -203 574 -185 q 510 -221 539 -221 q 463 -203 481 -221 q 444 -156 444 -185 q 463 -108 444 -126 q 510 -89 481 -89 z "},"Ờ":{"ha":1060,"x_min":51,"x_max":1050,"o":"m 421 1214 q 378 1274 378 1239 q 390 1302 378 1290 q 422 1314 401 1314 q 485 1281 451 1314 l 644 1133 l 619 1099 l 421 1214 m 1050 979 q 1016 872 1050 924 q 929 786 982 819 q 1000 486 1000 668 q 878 117 1000 249 q 526 -14 757 -14 q 174 117 296 -14 q 51 486 51 249 q 174 854 51 722 q 526 986 296 986 q 752 943 656 986 q 908 818 849 900 q 957 907 957 863 q 951 935 957 924 q 933 961 946 946 q 917 986 922 975 q 911 1013 911 997 q 928 1055 911 1038 q 974 1072 944 1072 q 1028 1049 1006 1072 q 1050 979 1050 1025 m 525 44 q 777 163 692 44 q 863 486 863 281 q 777 810 863 692 q 525 928 692 928 q 274 809 360 928 q 189 486 189 690 q 274 163 189 281 q 525 44 360 44 z "},"Ở":{"ha":1060,"x_min":51,"x_max":1050,"o":"m 439 1286 q 407 1321 407 1286 q 442 1373 407 1354 q 529 1392 478 1392 q 619 1369 586 1392 q 653 1303 653 1346 q 635 1258 653 1276 q 581 1218 617 1240 q 542 1190 554 1201 q 529 1165 529 1179 q 540 1140 529 1149 q 572 1124 550 1132 l 560 1096 q 487 1115 510 1096 q 464 1165 464 1135 q 477 1201 464 1186 q 521 1238 490 1215 q 563 1272 549 1257 q 578 1307 578 1286 q 565 1338 578 1325 q 531 1351 551 1351 q 498 1344 513 1351 q 478 1324 483 1338 q 474 1310 476 1321 q 462 1293 471 1300 q 439 1286 453 1286 m 1050 979 q 1016 872 1050 924 q 929 786 982 819 q 1000 486 1000 668 q 878 117 1000 249 q 526 -14 757 -14 q 174 117 296 -14 q 51 486 51 249 q 174 854 51 722 q 526 986 296 986 q 752 943 656 986 q 908 818 849 900 q 957 907 957 863 q 951 935 957 924 q 933 961 946 946 q 917 986 922 975 q 911 1013 911 997 q 928 1055 911 1038 q 974 1072 944 1072 q 1028 1049 1006 1072 q 1050 979 1050 1025 m 525 44 q 777 163 692 44 q 863 486 863 281 q 777 810 863 692 q 525 928 692 928 q 274 809 360 928 q 189 486 189 690 q 274 163 189 281 q 525 44 360 44 z "},"Ỡ":{"ha":1060,"x_min":51,"x_max":1050,"o":"m 396 1179 q 342 1159 363 1179 q 306 1097 321 1139 l 275 1113 q 324 1208 289 1171 q 413 1246 360 1246 q 459 1237 436 1246 q 521 1208 482 1228 q 578 1181 556 1190 q 624 1172 601 1172 q 677 1193 657 1172 q 715 1258 697 1214 l 744 1243 q 696 1143 731 1182 q 606 1104 661 1104 q 561 1113 583 1104 q 501 1142 539 1122 q 445 1169 469 1160 q 396 1179 421 1179 m 1050 979 q 1016 872 1050 924 q 929 786 982 819 q 1000 486 1000 668 q 878 117 1000 249 q 526 -14 757 -14 q 174 117 296 -14 q 51 486 51 249 q 174 854 51 722 q 526 986 296 986 q 752 943 656 986 q 908 818 849 900 q 957 907 957 863 q 951 935 957 924 q 933 961 946 946 q 917 986 922 975 q 911 1013 911 997 q 928 1055 911 1038 q 974 1072 944 1072 q 1028 1049 1006 1072 q 1050 979 1050 1025 m 525 44 q 777 163 692 44 q 863 486 863 281 q 777 810 863 692 q 525 928 692 928 q 274 809 360 928 q 189 486 189 690 q 274 163 189 281 q 525 44 360 44 z "},"Ő":{"ha":1049,"x_min":50,"x_max":999,"o":"m 328 1121 l 486 1268 q 554 1301 525 1301 q 585 1290 575 1301 q 596 1261 596 1278 q 549 1200 596 1228 l 351 1086 l 328 1121 m 550 1121 l 708 1268 q 728 1285 710 1269 q 772 1301 746 1301 q 806 1290 794 1301 q 818 1261 818 1278 q 772 1200 818 1228 l 575 1086 l 550 1121 m 525 -14 q 172 117 294 -14 q 50 486 50 249 q 172 854 50 722 q 525 986 294 986 q 876 854 754 986 q 999 486 999 722 q 877 117 999 249 q 525 -14 756 -14 m 524 44 q 776 163 690 44 q 861 486 861 281 q 776 810 861 692 q 524 928 690 928 q 273 809 358 928 q 188 486 188 690 q 273 163 188 281 q 524 44 358 44 z "},"Ō":{"ha":1049,"x_min":50,"x_max":999,"o":"m 292 1160 l 754 1160 l 754 1101 l 292 1101 l 292 1160 m 525 -14 q 172 117 294 -14 q 50 486 50 249 q 172 854 50 722 q 525 986 294 986 q 876 854 754 986 q 999 486 999 722 q 877 117 999 249 q 525 -14 756 -14 m 524 44 q 776 163 690 44 q 861 486 861 281 q 776 810 861 692 q 524 928 690 928 q 273 809 358 928 q 188 486 188 690 q 273 163 188 281 q 524 44 358 44 z "},"Ø":{"ha":1049,"x_min":50,"x_max":999,"o":"m 856 875 q 963 713 926 811 q 999 486 999 614 q 877 117 999 249 q 525 -14 756 -14 q 219 75 336 -14 l 135 -31 l 82 6 l 171 118 q 50 486 50 250 q 172 854 50 722 q 525 986 294 986 q 804 914 692 986 l 878 1007 l 932 971 l 856 875 m 188 486 q 244 210 188 319 l 747 843 q 524 928 663 928 q 273 809 358 928 q 188 486 188 690 m 524 44 q 776 163 690 44 q 861 486 861 281 q 789 790 861 676 l 281 153 q 524 44 367 44 z "},"Ǿ":{"ha":1049,"x_min":50,"x_max":999,"o":"m 421 1086 l 397 1121 l 557 1269 q 575 1286 558 1271 q 618 1301 592 1301 q 653 1289 640 1301 q 665 1260 665 1276 q 618 1201 665 1228 l 421 1086 m 856 875 q 963 713 926 811 q 999 486 999 614 q 877 117 999 249 q 525 -14 756 -14 q 219 75 336 -14 l 135 -31 l 82 6 l 171 118 q 50 486 50 250 q 172 854 50 722 q 525 986 294 986 q 804 914 692 986 l 878 1007 l 932 971 l 856 875 m 188 486 q 244 210 188 319 l 747 843 q 524 928 663 928 q 273 809 358 928 q 188 486 188 690 m 524 44 q 776 163 690 44 q 861 486 861 281 q 789 790 861 676 l 281 153 q 524 44 367 44 z "},"Õ":{"ha":1049,"x_min":50,"x_max":999,"o":"m 285 1099 q 334 1194 299 1157 q 422 1232 369 1232 q 469 1223 446 1232 q 531 1194 492 1214 q 588 1167 565 1176 q 633 1158 611 1158 q 687 1179 667 1158 q 725 1244 707 1200 l 754 1229 q 706 1129 740 1168 q 615 1090 671 1090 q 571 1099 593 1090 q 511 1128 549 1108 q 455 1156 479 1146 q 406 1165 431 1165 q 351 1145 372 1165 q 315 1083 331 1125 l 285 1099 m 525 -14 q 172 117 294 -14 q 50 486 50 249 q 172 854 50 722 q 525 986 294 986 q 876 854 754 986 q 999 486 999 722 q 877 117 999 249 q 525 -14 756 -14 m 524 44 q 776 163 690 44 q 861 486 861 281 q 776 810 861 692 q 524 928 690 928 q 273 809 358 928 q 188 486 188 690 q 273 163 188 281 q 524 44 358 44 z "},"Œ":{"ha":1450,"x_min":50,"x_max":1400,"o":"m 1400 249 l 1376 0 l 775 0 l 775 67 q 515 -14 671 -14 q 172 118 293 -14 q 50 486 50 250 q 172 853 50 721 q 515 986 294 986 q 775 904 671 986 l 775 972 l 1376 972 l 1376 732 l 1340 732 q 1311 860 1335 804 q 1219 915 1288 915 l 911 915 l 911 539 l 1153 539 q 1206 572 1193 539 q 1225 674 1219 606 l 1257 674 l 1257 349 l 1225 349 q 1206 450 1219 417 q 1153 483 1193 483 l 911 483 l 911 56 l 1239 56 q 1364 249 1339 56 l 1400 249 m 528 43 q 775 163 688 43 l 775 808 q 528 928 688 928 q 275 809 363 928 q 188 486 188 690 q 275 162 188 281 q 528 43 363 43 z "},"P":{"ha":832,"x_min":31,"x_max":806,"o":"m 31 36 l 71 36 q 131 48 111 36 q 151 86 151 60 l 151 885 q 131 923 151 911 q 71 935 111 935 l 31 935 l 31 972 l 506 972 q 806 676 806 972 q 506 381 806 381 l 288 381 l 288 86 q 368 36 288 36 l 410 36 l 410 0 l 31 0 l 31 36 m 481 436 q 626 499 579 436 q 672 676 672 563 q 481 915 672 915 l 288 915 l 288 436 l 481 436 z "},"Þ":{"ha":832,"x_min":31,"x_max":806,"o":"m 31 36 l 71 36 q 131 48 111 36 q 151 86 151 60 l 151 885 q 131 923 151 911 q 71 935 111 935 l 31 935 l 31 972 l 288 972 l 288 817 l 506 817 q 735 739 665 817 q 806 521 806 661 q 506 225 806 225 l 288 225 l 288 86 q 368 36 288 36 l 410 36 l 410 0 l 31 0 l 31 36 m 481 282 q 672 521 672 282 q 481 761 672 761 l 288 761 l 288 282 l 481 282 z "},"Q":{"ha":1049,"x_min":50,"x_max":999,"o":"m 947 -40 q 949 -65 949 -49 q 924 -150 949 -111 q 858 -212 900 -189 q 767 -235 815 -235 q 665 -214 711 -235 q 553 -153 618 -193 q 471 -107 503 -122 q 407 -92 439 -92 q 275 -132 340 -92 l 264 -112 q 425 -7 342 -44 q 146 149 242 21 q 50 486 50 276 q 172 854 50 722 q 525 986 294 986 q 876 854 754 986 q 999 486 999 722 q 877 117 999 249 q 525 -14 756 -14 q 492 -12 503 -14 q 435 -49 456 -32 l 451 -49 q 530 -60 492 -49 q 628 -97 568 -72 q 722 -133 683 -121 q 800 -146 760 -146 q 876 -120 847 -146 q 921 -40 906 -94 l 947 -40 m 188 486 q 273 163 188 281 q 524 44 358 44 q 776 163 690 44 q 861 486 861 281 q 776 810 861 692 q 524 928 690 928 q 273 809 358 928 q 188 486 188 690 z "},"R":{"ha":926,"x_min":31,"x_max":879,"o":"m 718 243 q 754 135 738 175 q 801 66 771 94 q 879 36 832 38 l 879 0 l 768 0 q 663 35 701 0 q 604 142 625 71 l 585 217 q 552 333 568 289 q 506 403 536 376 l 500 403 l 288 403 l 288 86 q 368 36 288 36 l 410 36 l 410 0 l 31 0 l 31 36 l 71 36 q 131 48 111 36 q 151 86 151 60 l 151 885 q 131 923 151 911 q 71 935 111 935 l 31 935 l 31 972 l 500 972 q 732 899 661 972 q 803 688 803 825 q 618 417 803 463 q 678 353 658 393 q 718 243 697 314 m 474 460 q 669 688 669 460 q 622 858 669 800 q 474 915 575 915 l 288 915 l 288 460 l 474 460 z "},"Ŕ":{"ha":926,"x_min":31,"x_max":879,"o":"m 360 1086 l 336 1121 l 496 1269 q 514 1286 497 1271 q 557 1301 531 1301 q 592 1289 579 1301 q 604 1260 604 1276 q 557 1201 604 1228 l 360 1086 m 718 243 q 754 135 738 175 q 801 66 771 94 q 879 36 832 38 l 879 0 l 768 0 q 663 35 701 0 q 604 142 625 71 l 585 217 q 552 333 568 289 q 506 403 536 376 l 500 403 l 288 403 l 288 86 q 368 36 288 36 l 410 36 l 410 0 l 31 0 l 31 36 l 71 36 q 131 48 111 36 q 151 86 151 60 l 151 885 q 131 923 151 911 q 71 935 111 935 l 31 935 l 31 972 l 500 972 q 732 899 661 972 q 803 688 803 825 q 618 417 803 463 q 678 353 658 393 q 718 243 697 314 m 474 460 q 669 688 669 460 q 622 858 669 800 q 474 915 575 915 l 288 915 l 288 460 l 474 460 z "},"Ř":{"ha":926,"x_min":31,"x_max":879,"o":"m 433 1086 l 261 1265 l 288 1294 l 438 1176 q 471 1161 460 1161 q 503 1176 485 1161 l 653 1294 l 679 1265 l 507 1086 l 433 1086 m 718 243 q 754 135 738 175 q 801 66 771 94 q 879 36 832 38 l 879 0 l 768 0 q 663 35 701 0 q 604 142 625 71 l 585 217 q 552 333 568 289 q 506 403 536 376 l 500 403 l 288 403 l 288 86 q 368 36 288 36 l 410 36 l 410 0 l 31 0 l 31 36 l 71 36 q 131 48 111 36 q 151 86 151 60 l 151 885 q 131 923 151 911 q 71 935 111 935 l 31 935 l 31 972 l 500 972 q 732 899 661 972 q 803 688 803 825 q 618 417 803 463 q 678 353 658 393 q 718 243 697 314 m 474 460 q 669 688 669 460 q 622 858 669 800 q 474 915 575 915 l 288 915 l 288 460 l 474 460 z "},"Ŗ":{"ha":926,"x_min":31,"x_max":879,"o":"m 718 243 q 754 135 738 175 q 801 66 771 94 q 879 36 832 38 l 879 0 l 768 0 q 663 35 701 0 q 604 142 625 71 l 585 217 q 552 333 568 289 q 506 403 536 376 l 500 403 l 288 403 l 288 86 q 368 36 288 36 l 410 36 l 410 0 l 31 0 l 31 36 l 71 36 q 131 48 111 36 q 151 86 151 60 l 151 885 q 131 923 151 911 q 71 935 111 935 l 31 935 l 31 972 l 500 972 q 732 899 661 972 q 803 688 803 825 q 618 417 803 463 q 678 353 658 393 q 718 243 697 314 m 474 460 q 669 688 669 460 q 622 858 669 800 q 474 915 575 915 l 288 915 l 288 460 l 474 460 m 478 -93 q 531 -117 510 -93 q 551 -187 551 -140 q 513 -310 551 -250 q 413 -415 475 -369 l 389 -392 q 463 -260 463 -321 q 456 -233 463 -243 q 438 -206 450 -222 q 419 -180 425 -190 q 414 -154 414 -169 q 431 -110 414 -128 q 478 -93 449 -93 z "},"Ṛ":{"ha":926,"x_min":31,"x_max":879,"o":"m 718 243 q 754 135 738 175 q 801 66 771 94 q 879 36 832 38 l 879 0 l 768 0 q 663 35 701 0 q 604 142 625 71 l 585 217 q 552 333 568 289 q 506 403 536 376 l 500 403 l 288 403 l 288 86 q 368 36 288 36 l 410 36 l 410 0 l 31 0 l 31 36 l 71 36 q 131 48 111 36 q 151 86 151 60 l 151 885 q 131 923 151 911 q 71 935 111 935 l 31 935 l 31 972 l 500 972 q 732 899 661 972 q 803 688 803 825 q 618 417 803 463 q 678 353 658 393 q 718 243 697 314 m 474 460 q 669 688 669 460 q 622 858 669 800 q 474 915 575 915 l 288 915 l 288 460 l 474 460 m 485 -89 q 531 -108 514 -89 q 549 -156 549 -126 q 531 -203 549 -185 q 485 -221 514 -221 q 438 -203 456 -221 q 419 -156 419 -185 q 438 -108 419 -126 q 485 -89 456 -89 z "},"Ṝ":{"ha":926,"x_min":31,"x_max":879,"o":"m 649 1082 l 186 1082 l 186 1140 l 649 1140 l 649 1082 m 718 243 q 754 135 738 175 q 801 66 771 94 q 879 36 832 38 l 879 0 l 768 0 q 663 35 701 0 q 604 142 625 71 l 585 217 q 552 333 568 289 q 506 403 536 376 l 500 403 l 288 403 l 288 86 q 368 36 288 36 l 410 36 l 410 0 l 31 0 l 31 36 l 71 36 q 131 48 111 36 q 151 86 151 60 l 151 885 q 131 923 151 911 q 71 935 111 935 l 31 935 l 31 972 l 500 972 q 732 899 661 972 q 803 688 803 825 q 618 417 803 463 q 678 353 658 393 q 718 243 697 314 m 474 460 q 669 688 669 460 q 622 858 669 800 q 474 915 575 915 l 288 915 l 288 460 l 474 460 m 485 -89 q 531 -108 514 -89 q 549 -156 549 -126 q 531 -203 549 -185 q 485 -221 514 -221 q 438 -203 456 -221 q 419 -156 419 -185 q 438 -108 419 -126 q 485 -89 456 -89 z "},"Ṟ":{"ha":926,"x_min":31,"x_max":879,"o":"m 718 243 q 754 135 738 175 q 801 66 771 94 q 879 36 832 38 l 879 0 l 768 0 q 663 35 701 0 q 604 142 625 71 l 585 217 q 552 333 568 289 q 506 403 536 376 l 500 403 l 288 403 l 288 86 q 368 36 288 36 l 410 36 l 410 0 l 31 0 l 31 36 l 71 36 q 131 48 111 36 q 151 86 151 60 l 151 885 q 131 923 151 911 q 71 935 111 935 l 31 935 l 31 972 l 500 972 q 732 899 661 972 q 803 688 803 825 q 618 417 803 463 q 678 353 658 393 q 718 243 697 314 m 474 460 q 669 688 669 460 q 622 858 669 800 q 474 915 575 915 l 288 915 l 288 460 l 474 460 m 208 -100 l 669 -100 l 669 -153 l 208 -153 l 208 -100 z "},"S":{"ha":808,"x_min":54,"x_max":753,"o":"m 415 -14 q 276 8 336 -14 q 158 64 217 31 q 117 83 125 83 q 108 77 111 83 q 104 60 104 71 l 104 0 l 54 0 l 54 264 l 94 264 q 145 149 103 199 q 249 71 188 99 q 378 43 311 43 q 550 93 485 43 q 615 236 615 143 q 581 334 615 293 q 499 402 547 375 q 364 467 450 429 q 210 540 268 507 q 113 626 153 574 q 72 754 72 678 q 160 926 72 867 q 393 986 247 986 q 513 968 463 986 q 621 921 564 950 q 653 906 644 906 q 661 918 661 906 l 661 981 l 713 981 l 713 715 l 672 715 q 592 872 661 815 q 422 928 522 928 q 266 885 322 928 q 210 771 210 843 q 241 685 210 721 q 318 625 272 649 q 444 568 364 601 q 605 493 543 528 q 710 400 667 458 q 753 256 753 342 q 658 57 753 128 q 415 -14 564 -14 z "},"Ś":{"ha":808,"x_min":54,"x_max":753,"o":"m 269 1121 l 429 1269 q 447 1286 431 1271 q 490 1301 464 1301 q 525 1289 513 1301 q 538 1260 538 1276 q 490 1201 538 1228 l 293 1086 l 269 1121 m 415 -14 q 276 8 336 -14 q 158 64 217 31 q 117 83 125 83 q 108 77 111 83 q 104 60 104 71 l 104 0 l 54 0 l 54 264 l 94 264 q 145 149 103 199 q 249 71 188 99 q 378 43 311 43 q 550 93 485 43 q 615 236 615 143 q 581 334 615 293 q 499 402 547 375 q 364 467 450 429 q 210 540 268 507 q 113 626 153 574 q 72 754 72 678 q 160 926 72 867 q 393 986 247 986 q 513 968 463 986 q 621 921 564 950 q 653 906 644 906 q 661 918 661 906 l 661 981 l 713 981 l 713 715 l 672 715 q 592 872 661 815 q 422 928 522 928 q 266 885 322 928 q 210 771 210 843 q 241 685 210 721 q 318 625 272 649 q 444 568 364 601 q 605 493 543 528 q 710 400 667 458 q 753 256 753 342 q 658 57 753 128 q 415 -14 564 -14 z "},"Š":{"ha":808,"x_min":54,"x_max":753,"o":"m 185 1265 l 211 1294 l 361 1176 q 394 1161 383 1161 q 426 1176 408 1161 l 576 1294 l 603 1265 l 431 1086 l 357 1086 l 185 1265 m 415 -14 q 276 8 336 -14 q 158 64 217 31 q 117 83 125 83 q 108 77 111 83 q 104 60 104 71 l 104 0 l 54 0 l 54 264 l 94 264 q 145 149 103 199 q 249 71 188 99 q 378 43 311 43 q 550 93 485 43 q 615 236 615 143 q 581 334 615 293 q 499 402 547 375 q 364 467 450 429 q 210 540 268 507 q 113 626 153 574 q 72 754 72 678 q 160 926 72 867 q 393 986 247 986 q 513 968 463 986 q 621 921 564 950 q 653 906 644 906 q 661 918 661 906 l 661 981 l 713 981 l 713 715 l 672 715 q 592 872 661 815 q 422 928 522 928 q 266 885 322 928 q 210 771 210 843 q 241 685 210 721 q 318 625 272 649 q 444 568 364 601 q 605 493 543 528 q 710 400 667 458 q 753 256 753 342 q 658 57 753 128 q 415 -14 564 -14 z "},"Ş":{"ha":808,"x_min":54,"x_max":753,"o":"m 410 -14 l 376 -76 q 475 -99 432 -76 q 518 -175 518 -122 q 463 -269 518 -242 q 325 -297 407 -297 q 257 -290 294 -297 l 265 -250 q 308 -253 278 -253 q 431 -178 431 -253 q 394 -134 431 -146 q 315 -122 357 -122 l 299 -100 l 351 -10 q 252 17 293 -1 q 157 64 211 35 q 138 75 151 67 q 117 83 124 83 q 108 77 111 83 q 104 60 104 71 l 104 0 l 54 0 l 54 264 l 94 264 q 145 149 103 199 q 249 71 188 99 q 378 43 311 43 q 550 93 485 43 q 615 236 615 143 q 581 334 615 293 q 499 402 547 375 q 364 467 450 429 q 210 540 268 507 q 113 626 153 574 q 72 754 72 678 q 160 926 72 867 q 393 986 247 986 q 513 968 463 986 q 621 921 564 950 q 653 906 644 906 q 661 918 661 906 l 661 981 l 713 981 l 713 715 l 672 715 q 592 872 661 815 q 422 928 522 928 q 266 885 322 928 q 210 771 210 843 q 241 685 210 721 q 318 625 272 649 q 444 568 364 601 q 605 493 543 528 q 710 400 667 458 q 753 256 753 342 q 658 57 753 128 q 415 -14 564 -14 l 410 -14 z "},"Ŝ":{"ha":808,"x_min":54,"x_max":753,"o":"m 185 1115 l 357 1294 l 431 1294 l 603 1115 l 576 1086 l 426 1206 q 394 1221 404 1221 q 361 1206 382 1221 l 211 1086 l 185 1115 m 415 -14 q 276 8 336 -14 q 158 64 217 31 q 117 83 125 83 q 108 77 111 83 q 104 60 104 71 l 104 0 l 54 0 l 54 264 l 94 264 q 145 149 103 199 q 249 71 188 99 q 378 43 311 43 q 550 93 485 43 q 615 236 615 143 q 581 334 615 293 q 499 402 547 375 q 364 467 450 429 q 210 540 268 507 q 113 626 153 574 q 72 754 72 678 q 160 926 72 867 q 393 986 247 986 q 513 968 463 986 q 621 921 564 950 q 653 906 644 906 q 661 918 661 906 l 661 981 l 713 981 l 713 715 l 672 715 q 592 872 661 815 q 422 928 522 928 q 266 885 322 928 q 210 771 210 843 q 241 685 210 721 q 318 625 272 649 q 444 568 364 601 q 605 493 543 528 q 710 400 667 458 q 753 256 753 342 q 658 57 753 128 q 415 -14 564 -14 z "},"Ș":{"ha":808,"x_min":54,"x_max":753,"o":"m 415 -14 q 276 8 336 -14 q 158 64 217 31 q 117 83 125 83 q 108 77 111 83 q 104 60 104 71 l 104 0 l 54 0 l 54 264 l 94 264 q 145 149 103 199 q 249 71 188 99 q 378 43 311 43 q 550 93 485 43 q 615 236 615 143 q 581 334 615 293 q 499 402 547 375 q 364 467 450 429 q 210 540 268 507 q 113 626 153 574 q 72 754 72 678 q 160 926 72 867 q 393 986 247 986 q 513 968 463 986 q 621 921 564 950 q 653 906 644 906 q 661 918 661 906 l 661 981 l 713 981 l 713 715 l 672 715 q 592 872 661 815 q 422 928 522 928 q 266 885 322 928 q 210 771 210 843 q 241 685 210 721 q 318 625 272 649 q 444 568 364 601 q 605 493 543 528 q 710 400 667 458 q 753 256 753 342 q 658 57 753 128 q 415 -14 564 -14 m 278 -375 q 351 -242 351 -301 q 345 -215 351 -226 q 326 -189 339 -203 q 309 -164 315 -175 q 303 -137 303 -153 q 320 -94 303 -111 q 367 -76 338 -76 q 419 -99 399 -76 q 440 -169 440 -122 q 402 -289 440 -231 q 301 -397 364 -347 l 278 -375 z "},"Ṡ":{"ha":808,"x_min":54,"x_max":753,"o":"m 411 1086 q 364 1104 382 1086 q 346 1150 346 1122 q 363 1197 346 1179 q 411 1215 381 1215 q 458 1197 440 1215 q 475 1150 475 1179 q 458 1104 475 1122 q 411 1086 440 1086 m 415 -14 q 276 8 336 -14 q 158 64 217 31 q 117 83 125 83 q 108 77 111 83 q 104 60 104 71 l 104 0 l 54 0 l 54 264 l 94 264 q 145 149 103 199 q 249 71 188 99 q 378 43 311 43 q 550 93 485 43 q 615 236 615 143 q 581 334 615 293 q 499 402 547 375 q 364 467 450 429 q 210 540 268 507 q 113 626 153 574 q 72 754 72 678 q 160 926 72 867 q 393 986 247 986 q 513 968 463 986 q 621 921 564 950 q 653 906 644 906 q 661 918 661 906 l 661 981 l 713 981 l 713 715 l 672 715 q 592 872 661 815 q 422 928 522 928 q 266 885 322 928 q 210 771 210 843 q 241 685 210 721 q 318 625 272 649 q 444 568 364 601 q 605 493 543 528 q 710 400 667 458 q 753 256 753 342 q 658 57 753 128 q 415 -14 564 -14 z "},"Ṣ":{"ha":808,"x_min":54,"x_max":753,"o":"m 415 -14 q 276 8 336 -14 q 158 64 217 31 q 117 83 125 83 q 108 77 111 83 q 104 60 104 71 l 104 0 l 54 0 l 54 264 l 94 264 q 145 149 103 199 q 249 71 188 99 q 378 43 311 43 q 550 93 485 43 q 615 236 615 143 q 581 334 615 293 q 499 402 547 375 q 364 467 450 429 q 210 540 268 507 q 113 626 153 574 q 72 754 72 678 q 160 926 72 867 q 393 986 247 986 q 513 968 463 986 q 621 921 564 950 q 653 906 644 906 q 661 918 661 906 l 661 981 l 713 981 l 713 715 l 672 715 q 592 872 661 815 q 422 928 522 928 q 266 885 322 928 q 210 771 210 843 q 241 685 210 721 q 318 625 272 649 q 444 568 364 601 q 605 493 543 528 q 710 400 667 458 q 753 256 753 342 q 658 57 753 128 q 415 -14 564 -14 m 404 -221 q 357 -203 375 -221 q 339 -156 339 -185 q 357 -108 339 -126 q 404 -89 375 -89 q 451 -108 433 -89 q 468 -156 468 -126 q 451 -203 468 -185 q 404 -221 433 -221 z "},"ẞ":{"ha":976,"x_min":7,"x_max":936,"o":"m 588 -14 q 385 19 471 -14 l 385 78 q 582 40 478 40 q 744 106 686 40 q 803 282 803 172 q 741 442 803 382 q 564 501 679 501 l 478 501 l 478 538 l 693 771 q 617 884 671 840 q 482 928 564 928 q 319 864 378 928 q 261 688 261 800 l 261 88 q 276 51 261 67 q 315 36 290 36 l 354 36 l 354 0 l 7 0 l 7 36 l 46 36 q 128 86 128 36 l 128 653 q 219 898 128 810 q 492 986 311 986 q 649 954 581 986 q 761 872 718 922 q 821 768 804 822 l 618 553 q 853 468 771 539 q 936 282 936 397 q 851 69 936 151 q 588 -14 767 -14 z "},"Ə":{"ha":961,"x_min":46,"x_max":914,"o":"m 449 986 q 698 924 593 986 q 858 749 803 863 q 914 481 914 635 q 797 115 914 244 q 458 -14 679 -14 q 226 44 318 -14 q 90 199 133 101 q 46 421 46 297 l 46 463 l 776 463 l 776 474 q 737 699 776 599 q 616 858 697 799 q 414 917 535 917 q 224 863 306 917 q 117 694 143 808 l 57 694 q 118 844 68 778 q 253 948 168 910 q 449 986 339 986 m 454 54 q 672 149 592 54 q 772 393 753 244 l 183 393 q 212 235 185 313 q 299 106 239 158 q 454 54 360 54 z "},"T":{"ha":906,"x_min":53,"x_max":853,"o":"m 264 36 l 303 36 q 385 86 385 36 l 385 915 l 192 915 q 114 846 136 915 q 90 706 92 776 l 53 706 l 53 972 l 853 972 l 853 706 l 815 706 q 790 847 811 779 q 714 915 768 915 l 521 915 l 521 86 q 601 36 521 36 l 642 36 l 642 0 l 264 0 l 264 36 z "},"Ŧ":{"ha":906,"x_min":53,"x_max":853,"o":"m 853 972 l 853 706 l 815 706 q 790 847 811 779 q 714 915 768 915 l 521 915 l 521 504 l 722 504 l 722 440 l 521 440 l 521 86 q 601 36 521 36 l 642 36 l 642 0 l 264 0 l 264 36 l 303 36 q 385 86 385 36 l 385 440 l 186 440 l 186 504 l 385 504 l 385 915 l 192 915 q 114 846 136 915 q 90 706 92 776 l 53 706 l 53 972 l 853 972 z "},"Ť":{"ha":906,"x_min":53,"x_max":853,"o":"m 243 1265 l 269 1294 l 419 1176 q 453 1161 442 1161 q 485 1176 467 1161 l 635 1294 l 661 1265 l 489 1086 l 415 1086 l 243 1265 m 264 36 l 303 36 q 385 86 385 36 l 385 915 l 192 915 q 114 846 136 915 q 90 706 92 776 l 53 706 l 53 972 l 853 972 l 853 706 l 815 706 q 790 847 811 779 q 714 915 768 915 l 521 915 l 521 86 q 601 36 521 36 l 642 36 l 642 0 l 264 0 l 264 36 z "},"Ţ":{"ha":906,"x_min":53,"x_max":853,"o":"m 853 972 l 853 706 l 815 706 q 790 847 811 779 q 714 915 768 915 l 521 915 l 521 86 q 601 36 521 36 l 642 36 l 642 0 l 479 0 l 439 -76 q 538 -99 494 -76 q 581 -175 581 -122 q 525 -269 581 -242 q 388 -297 469 -297 q 319 -290 357 -297 l 328 -250 q 371 -253 340 -253 q 493 -178 493 -253 q 456 -134 493 -146 q 378 -122 419 -122 l 361 -100 l 419 0 l 264 0 l 264 36 l 303 36 q 385 86 385 36 l 385 915 l 192 915 q 114 846 136 915 q 90 706 92 776 l 53 706 l 53 972 l 853 972 z "},"Ț":{"ha":906,"x_min":53,"x_max":853,"o":"m 264 36 l 303 36 q 385 86 385 36 l 385 915 l 192 915 q 114 846 136 915 q 90 706 92 776 l 53 706 l 53 972 l 853 972 l 853 706 l 815 706 q 790 847 811 779 q 714 915 768 915 l 521 915 l 521 86 q 601 36 521 36 l 642 36 l 642 0 l 264 0 l 264 36 m 350 -392 q 424 -260 424 -321 q 417 -233 424 -243 q 399 -206 411 -222 q 381 -180 386 -190 q 375 -154 375 -169 q 392 -110 375 -128 q 439 -93 410 -93 q 492 -117 471 -93 q 513 -187 513 -140 q 474 -310 513 -250 q 374 -415 436 -369 l 350 -392 z "},"Ṭ":{"ha":906,"x_min":53,"x_max":853,"o":"m 264 36 l 303 36 q 385 86 385 36 l 385 915 l 192 915 q 114 846 136 915 q 90 706 92 776 l 53 706 l 53 972 l 853 972 l 853 706 l 815 706 q 790 847 811 779 q 714 915 768 915 l 521 915 l 521 86 q 601 36 521 36 l 642 36 l 642 0 l 264 0 l 264 36 m 453 -221 q 406 -203 424 -221 q 388 -156 388 -185 q 406 -108 388 -126 q 453 -89 424 -89 q 499 -108 482 -89 q 517 -156 517 -126 q 499 -203 517 -185 q 453 -221 482 -221 z "},"Ṯ":{"ha":906,"x_min":53,"x_max":853,"o":"m 264 36 l 303 36 q 385 86 385 36 l 385 915 l 192 915 q 114 846 136 915 q 90 706 92 776 l 53 706 l 53 972 l 853 972 l 853 706 l 815 706 q 790 847 811 779 q 714 915 768 915 l 521 915 l 521 86 q 601 36 521 36 l 642 36 l 642 0 l 264 0 l 264 36 m 221 -100 l 682 -100 l 682 -153 l 221 -153 l 221 -100 z "},"U":{"ha":1031,"x_min":39,"x_max":990,"o":"m 521 -14 q 242 56 338 -14 q 146 283 146 125 l 146 885 q 125 922 146 910 q 71 935 104 935 l 39 935 l 39 972 l 389 972 l 389 935 l 357 935 q 303 922 324 935 q 282 885 282 910 l 282 274 q 353 94 282 144 q 551 43 425 43 q 739 95 664 43 q 814 274 814 147 l 814 885 q 794 922 814 910 q 739 935 774 935 l 708 935 l 708 972 l 990 972 l 990 935 l 958 935 q 904 922 925 935 q 883 885 883 910 l 883 283 q 790 58 883 129 q 521 -14 697 -14 z "},"Ú":{"ha":1031,"x_min":39,"x_max":990,"o":"m 400 1121 l 560 1269 q 578 1286 561 1271 q 621 1301 594 1301 q 656 1289 643 1301 q 668 1260 668 1276 q 621 1201 668 1228 l 424 1086 l 400 1121 m 521 -14 q 242 56 338 -14 q 146 283 146 125 l 146 885 q 125 922 146 910 q 71 935 104 935 l 39 935 l 39 972 l 389 972 l 389 935 l 357 935 q 303 922 324 935 q 282 885 282 910 l 282 274 q 353 94 282 144 q 551 43 425 43 q 739 95 664 43 q 814 274 814 147 l 814 885 q 794 922 814 910 q 739 935 774 935 l 708 935 l 708 972 l 990 972 l 990 935 l 958 935 q 904 922 925 935 q 883 885 883 910 l 883 283 q 790 58 883 129 q 521 -14 697 -14 z "},"Ŭ":{"ha":1031,"x_min":39,"x_max":990,"o":"m 533 1075 q 383 1123 432 1075 q 329 1257 333 1171 l 375 1257 q 423 1168 382 1197 q 533 1139 464 1139 q 642 1168 601 1139 q 689 1257 683 1197 l 735 1257 q 681 1124 731 1174 q 533 1075 632 1075 m 521 -14 q 242 56 338 -14 q 146 283 146 125 l 146 885 q 125 922 146 910 q 71 935 104 935 l 39 935 l 39 972 l 389 972 l 389 935 l 357 935 q 303 922 324 935 q 282 885 282 910 l 282 274 q 353 94 282 144 q 551 43 425 43 q 739 95 664 43 q 814 274 814 147 l 814 885 q 794 922 814 910 q 739 935 774 935 l 708 935 l 708 972 l 990 972 l 990 935 l 958 935 q 904 922 925 935 q 883 885 883 910 l 883 283 q 790 58 883 129 q 521 -14 697 -14 z "},"Ǔ":{"ha":1031,"x_min":39,"x_max":990,"o":"m 306 1265 l 332 1294 l 482 1176 q 515 1161 504 1161 q 547 1176 529 1161 l 697 1294 l 724 1265 l 551 1086 l 478 1086 l 306 1265 m 521 -14 q 242 56 338 -14 q 146 283 146 125 l 146 885 q 125 922 146 910 q 71 935 104 935 l 39 935 l 39 972 l 389 972 l 389 935 l 357 935 q 303 922 324 935 q 282 885 282 910 l 282 274 q 353 94 282 144 q 551 43 425 43 q 739 95 664 43 q 814 274 814 147 l 814 885 q 794 922 814 910 q 739 935 774 935 l 708 935 l 708 972 l 990 972 l 990 935 l 958 935 q 904 922 925 935 q 883 885 883 910 l 883 283 q 790 58 883 129 q 521 -14 697 -14 z "},"Û":{"ha":1031,"x_min":39,"x_max":990,"o":"m 324 1115 l 496 1294 l 569 1294 l 742 1115 l 715 1086 l 565 1206 q 533 1221 542 1221 q 500 1206 521 1221 l 350 1086 l 324 1115 m 521 -14 q 242 56 338 -14 q 146 283 146 125 l 146 885 q 125 922 146 910 q 71 935 104 935 l 39 935 l 39 972 l 389 972 l 389 935 l 357 935 q 303 922 324 935 q 282 885 282 910 l 282 274 q 353 94 282 144 q 551 43 425 43 q 739 95 664 43 q 814 274 814 147 l 814 885 q 794 922 814 910 q 739 935 774 935 l 708 935 l 708 972 l 990 972 l 990 935 l 958 935 q 904 922 925 935 q 883 885 883 910 l 883 283 q 790 58 883 129 q 521 -14 697 -14 z "},"Ü":{"ha":1031,"x_min":39,"x_max":990,"o":"m 382 1085 q 335 1103 353 1085 q 318 1149 318 1121 q 335 1197 318 1178 q 382 1215 353 1215 q 429 1197 411 1215 q 447 1149 447 1178 q 430 1103 447 1121 q 382 1085 413 1085 m 682 1085 q 635 1103 653 1085 q 617 1149 617 1121 q 635 1197 617 1178 q 682 1215 653 1215 q 729 1197 711 1215 q 747 1149 747 1178 q 730 1103 747 1121 q 682 1085 713 1085 m 521 -14 q 242 56 338 -14 q 146 283 146 125 l 146 885 q 125 922 146 910 q 71 935 104 935 l 39 935 l 39 972 l 389 972 l 389 935 l 357 935 q 303 922 324 935 q 282 885 282 910 l 282 274 q 353 94 282 144 q 551 43 425 43 q 739 95 664 43 q 814 274 814 147 l 814 885 q 794 922 814 910 q 739 935 774 935 l 708 935 l 708 972 l 990 972 l 990 935 l 958 935 q 904 922 925 935 q 883 885 883 910 l 883 283 q 790 58 883 129 q 521 -14 697 -14 z "},"Ǘ":{"ha":1031,"x_min":39,"x_max":990,"o":"m 478 1283 l 604 1407 q 668 1440 638 1440 q 701 1429 690 1440 q 711 1401 711 1418 q 668 1346 711 1371 l 503 1249 l 478 1283 m 364 1083 q 318 1101 336 1083 q 300 1149 300 1119 q 318 1197 300 1178 q 364 1215 336 1215 q 413 1197 394 1215 q 431 1149 431 1178 q 413 1101 431 1119 q 364 1083 394 1083 m 665 1083 q 618 1101 636 1083 q 600 1149 600 1119 q 618 1197 600 1178 q 665 1215 636 1215 q 713 1197 694 1215 q 731 1149 731 1178 q 713 1101 731 1119 q 665 1083 694 1083 m 521 -14 q 242 56 338 -14 q 146 283 146 125 l 146 885 q 125 922 146 910 q 71 935 104 935 l 39 935 l 39 972 l 389 972 l 389 935 l 357 935 q 303 922 324 935 q 282 885 282 910 l 282 274 q 353 94 282 144 q 551 43 425 43 q 739 95 664 43 q 814 274 814 147 l 814 885 q 794 922 814 910 q 739 935 774 935 l 708 935 l 708 972 l 990 972 l 990 935 l 958 935 q 904 922 925 935 q 883 885 883 910 l 883 283 q 790 58 883 129 q 521 -14 697 -14 z "},"Ǚ":{"ha":1031,"x_min":39,"x_max":990,"o":"m 317 1438 l 342 1467 l 482 1358 q 522 1338 511 1338 q 544 1347 532 1338 q 561 1358 557 1356 l 701 1467 l 726 1438 l 557 1265 l 486 1265 l 317 1438 m 371 1083 q 325 1101 343 1083 q 307 1149 307 1119 q 325 1197 307 1178 q 371 1215 343 1215 q 419 1197 401 1215 q 438 1149 438 1178 q 419 1101 438 1119 q 371 1083 401 1083 m 672 1083 q 625 1101 643 1083 q 607 1149 607 1119 q 625 1197 607 1178 q 672 1215 643 1215 q 719 1197 701 1215 q 738 1149 738 1178 q 719 1101 738 1119 q 672 1083 701 1083 m 521 -14 q 242 56 338 -14 q 146 283 146 125 l 146 885 q 125 922 146 910 q 71 935 104 935 l 39 935 l 39 972 l 389 972 l 389 935 l 357 935 q 303 922 324 935 q 282 885 282 910 l 282 274 q 353 94 282 144 q 551 43 425 43 q 739 95 664 43 q 814 274 814 147 l 814 885 q 794 922 814 910 q 739 935 774 935 l 708 935 l 708 972 l 990 972 l 990 935 l 958 935 q 904 922 925 935 q 883 885 883 910 l 883 283 q 790 58 883 129 q 521 -14 697 -14 z "},"Ǜ":{"ha":1031,"x_min":39,"x_max":990,"o":"m 369 1346 q 326 1401 326 1371 q 338 1428 326 1418 q 371 1439 349 1439 q 433 1407 401 1439 l 560 1283 l 535 1249 l 369 1346 m 371 1083 q 325 1101 343 1083 q 307 1149 307 1119 q 325 1197 307 1178 q 371 1215 343 1215 q 419 1197 401 1215 q 438 1149 438 1178 q 419 1101 438 1119 q 371 1083 401 1083 m 672 1083 q 625 1101 643 1083 q 607 1149 607 1119 q 625 1197 607 1178 q 672 1215 643 1215 q 719 1197 701 1215 q 738 1149 738 1178 q 719 1101 738 1119 q 672 1083 701 1083 m 521 -14 q 242 56 338 -14 q 146 283 146 125 l 146 885 q 125 922 146 910 q 71 935 104 935 l 39 935 l 39 972 l 389 972 l 389 935 l 357 935 q 303 922 324 935 q 282 885 282 910 l 282 274 q 353 94 282 144 q 551 43 425 43 q 739 95 664 43 q 814 274 814 147 l 814 885 q 794 922 814 910 q 739 935 774 935 l 708 935 l 708 972 l 990 972 l 990 935 l 958 935 q 904 922 925 935 q 883 885 883 910 l 883 283 q 790 58 883 129 q 521 -14 697 -14 z "},"Ǖ":{"ha":1031,"x_min":39,"x_max":990,"o":"m 283 1347 l 746 1347 l 746 1289 l 283 1289 l 283 1347 m 364 1085 q 317 1103 335 1085 q 300 1149 300 1121 q 317 1197 300 1178 q 364 1215 335 1215 q 411 1197 393 1215 q 429 1149 429 1178 q 412 1103 429 1121 q 364 1085 394 1085 m 664 1085 q 617 1103 635 1085 q 599 1149 599 1121 q 617 1197 599 1178 q 664 1215 635 1215 q 711 1197 693 1215 q 729 1149 729 1178 q 712 1103 729 1121 q 664 1085 694 1085 m 521 -14 q 242 56 338 -14 q 146 283 146 125 l 146 885 q 125 922 146 910 q 71 935 104 935 l 39 935 l 39 972 l 389 972 l 389 935 l 357 935 q 303 922 324 935 q 282 885 282 910 l 282 274 q 353 94 282 144 q 551 43 425 43 q 739 95 664 43 q 814 274 814 147 l 814 885 q 794 922 814 910 q 739 935 774 935 l 708 935 l 708 972 l 990 972 l 990 935 l 958 935 q 904 922 925 935 q 883 885 883 910 l 883 283 q 790 58 883 129 q 521 -14 697 -14 z "},"Ụ":{"ha":1031,"x_min":39,"x_max":990,"o":"m 521 -14 q 242 56 338 -14 q 146 283 146 125 l 146 885 q 125 922 146 910 q 71 935 104 935 l 39 935 l 39 972 l 389 972 l 389 935 l 357 935 q 303 922 324 935 q 282 885 282 910 l 282 274 q 353 94 282 144 q 551 43 425 43 q 739 95 664 43 q 814 274 814 147 l 814 885 q 794 922 814 910 q 739 935 774 935 l 708 935 l 708 972 l 990 972 l 990 935 l 958 935 q 904 922 925 935 q 883 885 883 910 l 883 283 q 790 58 883 129 q 521 -14 697 -14 m 524 -221 q 476 -203 494 -221 q 458 -156 458 -185 q 476 -108 458 -126 q 524 -89 494 -89 q 570 -108 553 -89 q 588 -156 588 -126 q 570 -203 588 -185 q 524 -221 553 -221 z "},"Ù":{"ha":1031,"x_min":39,"x_max":990,"o":"m 443 1201 q 400 1261 400 1226 q 412 1290 400 1278 q 444 1301 424 1301 q 507 1268 474 1301 l 667 1121 l 642 1086 l 443 1201 m 521 -14 q 242 56 338 -14 q 146 283 146 125 l 146 885 q 125 922 146 910 q 71 935 104 935 l 39 935 l 39 972 l 389 972 l 389 935 l 357 935 q 303 922 324 935 q 282 885 282 910 l 282 274 q 353 94 282 144 q 551 43 425 43 q 739 95 664 43 q 814 274 814 147 l 814 885 q 794 922 814 910 q 739 935 774 935 l 708 935 l 708 972 l 990 972 l 990 935 l 958 935 q 904 922 925 935 q 883 885 883 910 l 883 283 q 790 58 883 129 q 521 -14 697 -14 z "},"Ủ":{"ha":1031,"x_min":39,"x_max":990,"o":"m 589 1081 q 516 1100 539 1081 q 493 1150 493 1119 q 506 1185 493 1171 q 550 1222 519 1200 q 592 1256 578 1242 q 607 1292 607 1271 q 594 1323 607 1310 q 560 1336 581 1336 q 527 1329 542 1336 q 507 1308 513 1322 q 503 1295 506 1306 q 491 1278 500 1285 q 468 1271 482 1271 q 436 1306 436 1271 q 472 1358 436 1339 q 558 1376 507 1376 q 649 1353 615 1376 q 682 1288 682 1331 q 664 1243 682 1261 q 610 1203 646 1225 q 571 1175 583 1186 q 558 1150 558 1164 q 569 1125 558 1133 q 601 1108 579 1117 l 589 1081 m 521 -14 q 242 56 338 -14 q 146 283 146 125 l 146 885 q 125 922 146 910 q 71 935 104 935 l 39 935 l 39 972 l 389 972 l 389 935 l 357 935 q 303 922 324 935 q 282 885 282 910 l 282 274 q 353 94 282 144 q 551 43 425 43 q 739 95 664 43 q 814 274 814 147 l 814 885 q 794 922 814 910 q 739 935 774 935 l 708 935 l 708 972 l 990 972 l 990 935 l 958 935 q 904 922 925 935 q 883 885 883 910 l 883 283 q 790 58 883 129 q 521 -14 697 -14 z "},"Ư":{"ha":1031,"x_min":39,"x_max":1135,"o":"m 521 -14 q 242 56 338 -14 q 146 283 146 125 l 146 885 q 125 922 146 910 q 71 935 104 935 l 39 935 l 39 972 l 389 972 l 389 935 l 357 935 q 303 922 324 935 q 282 885 282 910 l 282 274 q 353 94 282 144 q 551 43 425 43 q 739 95 664 43 q 814 274 814 147 l 814 885 q 794 922 814 910 q 739 935 774 935 l 708 935 l 708 972 l 946 972 q 1017 998 993 972 q 1040 1063 1040 1024 q 1036 1084 1040 1075 q 1026 1100 1032 1093 q 1019 1110 1021 1107 q 1002 1134 1008 1122 q 996 1161 996 1146 q 1013 1205 996 1188 q 1060 1222 1031 1222 q 1113 1198 1092 1222 q 1135 1128 1135 1174 q 1088 994 1135 1050 q 965 936 1042 939 q 883 885 883 933 l 883 283 q 790 58 883 129 q 521 -14 697 -14 z "},"Ứ":{"ha":1031,"x_min":39,"x_max":1135,"o":"m 454 1118 l 614 1267 q 632 1283 615 1268 q 675 1299 649 1299 q 710 1286 697 1299 q 722 1257 722 1274 q 675 1199 722 1225 l 478 1083 l 454 1118 m 521 -14 q 242 56 338 -14 q 146 283 146 125 l 146 885 q 125 922 146 910 q 71 935 104 935 l 39 935 l 39 972 l 389 972 l 389 935 l 357 935 q 303 922 324 935 q 282 885 282 910 l 282 274 q 353 94 282 144 q 551 43 425 43 q 739 95 664 43 q 814 274 814 147 l 814 885 q 794 922 814 910 q 739 935 774 935 l 708 935 l 708 972 l 946 972 q 1017 998 993 972 q 1040 1063 1040 1024 q 1036 1084 1040 1075 q 1026 1100 1032 1093 q 1019 1110 1021 1107 q 1002 1134 1008 1122 q 996 1161 996 1146 q 1013 1205 996 1188 q 1060 1222 1031 1222 q 1113 1198 1092 1222 q 1135 1128 1135 1174 q 1088 994 1135 1050 q 965 936 1042 939 q 883 885 883 933 l 883 283 q 790 58 883 129 q 521 -14 697 -14 z "},"Ự":{"ha":1031,"x_min":39,"x_max":1135,"o":"m 521 -14 q 242 56 338 -14 q 146 283 146 125 l 146 885 q 125 922 146 910 q 71 935 104 935 l 39 935 l 39 972 l 389 972 l 389 935 l 357 935 q 303 922 324 935 q 282 885 282 910 l 282 274 q 353 94 282 144 q 551 43 425 43 q 739 95 664 43 q 814 274 814 147 l 814 885 q 794 922 814 910 q 739 935 774 935 l 708 935 l 708 972 l 946 972 q 1017 998 993 972 q 1040 1063 1040 1024 q 1036 1084 1040 1075 q 1026 1100 1032 1093 q 1019 1110 1021 1107 q 1002 1134 1008 1122 q 996 1161 996 1146 q 1013 1205 996 1188 q 1060 1222 1031 1222 q 1113 1198 1092 1222 q 1135 1128 1135 1174 q 1088 994 1135 1050 q 965 936 1042 939 q 883 885 883 933 l 883 283 q 790 58 883 129 q 521 -14 697 -14 m 542 -221 q 494 -203 513 -221 q 476 -156 476 -185 q 494 -108 476 -126 q 542 -89 513 -89 q 588 -108 571 -89 q 606 -156 606 -126 q 588 -203 606 -185 q 542 -221 571 -221 z "},"Ừ":{"ha":1031,"x_min":39,"x_max":1135,"o":"m 444 1199 q 401 1258 401 1224 q 413 1287 401 1275 q 446 1299 425 1299 q 508 1265 475 1299 l 668 1118 l 643 1083 l 444 1199 m 521 -14 q 242 56 338 -14 q 146 283 146 125 l 146 885 q 125 922 146 910 q 71 935 104 935 l 39 935 l 39 972 l 389 972 l 389 935 l 357 935 q 303 922 324 935 q 282 885 282 910 l 282 274 q 353 94 282 144 q 551 43 425 43 q 739 95 664 43 q 814 274 814 147 l 814 885 q 794 922 814 910 q 739 935 774 935 l 708 935 l 708 972 l 946 972 q 1017 998 993 972 q 1040 1063 1040 1024 q 1036 1084 1040 1075 q 1026 1100 1032 1093 q 1019 1110 1021 1107 q 1002 1134 1008 1122 q 996 1161 996 1146 q 1013 1205 996 1188 q 1060 1222 1031 1222 q 1113 1198 1092 1222 q 1135 1128 1135 1174 q 1088 994 1135 1050 q 965 936 1042 939 q 883 885 883 933 l 883 283 q 790 58 883 129 q 521 -14 697 -14 z "},"Ử":{"ha":1031,"x_min":39,"x_max":1135,"o":"m 601 1081 q 528 1100 551 1081 q 506 1150 506 1119 q 519 1185 506 1171 q 563 1222 532 1200 q 605 1256 590 1242 q 619 1292 619 1271 q 606 1323 619 1310 q 572 1336 593 1336 q 540 1329 554 1336 q 519 1308 525 1322 q 515 1295 518 1306 q 503 1278 513 1285 q 481 1271 494 1271 q 449 1306 449 1271 q 484 1358 449 1339 q 571 1376 519 1376 q 661 1353 628 1376 q 694 1288 694 1331 q 676 1243 694 1261 q 622 1203 658 1225 q 583 1175 596 1186 q 571 1150 571 1164 q 581 1125 571 1133 q 614 1108 592 1117 l 601 1081 m 521 -14 q 242 56 338 -14 q 146 283 146 125 l 146 885 q 125 922 146 910 q 71 935 104 935 l 39 935 l 39 972 l 389 972 l 389 935 l 357 935 q 303 922 324 935 q 282 885 282 910 l 282 274 q 353 94 282 144 q 551 43 425 43 q 739 95 664 43 q 814 274 814 147 l 814 885 q 794 922 814 910 q 739 935 774 935 l 708 935 l 708 972 l 946 972 q 1017 998 993 972 q 1040 1063 1040 1024 q 1036 1084 1040 1075 q 1026 1100 1032 1093 q 1019 1110 1021 1107 q 1002 1134 1008 1122 q 996 1161 996 1146 q 1013 1205 996 1188 q 1060 1222 1031 1222 q 1113 1198 1092 1222 q 1135 1128 1135 1174 q 1088 994 1135 1050 q 965 936 1042 939 q 883 885 883 933 l 883 283 q 790 58 883 129 q 521 -14 697 -14 z "},"Ữ":{"ha":1031,"x_min":39,"x_max":1135,"o":"m 314 1090 q 363 1186 328 1149 q 451 1224 399 1224 q 498 1215 475 1224 q 560 1186 521 1206 q 617 1159 594 1168 q 663 1150 640 1150 q 716 1171 696 1150 q 754 1236 736 1192 l 783 1221 q 735 1121 769 1160 q 644 1082 700 1082 q 600 1091 622 1082 q 540 1119 578 1100 q 484 1147 508 1138 q 435 1157 460 1157 q 381 1137 401 1157 q 344 1075 360 1117 l 314 1090 m 521 -14 q 242 56 338 -14 q 146 283 146 125 l 146 885 q 125 922 146 910 q 71 935 104 935 l 39 935 l 39 972 l 389 972 l 389 935 l 357 935 q 303 922 324 935 q 282 885 282 910 l 282 274 q 353 94 282 144 q 551 43 425 43 q 739 95 664 43 q 814 274 814 147 l 814 885 q 794 922 814 910 q 739 935 774 935 l 708 935 l 708 972 l 946 972 q 1017 998 993 972 q 1040 1063 1040 1024 q 1036 1084 1040 1075 q 1026 1100 1032 1093 q 1019 1110 1021 1107 q 1002 1134 1008 1122 q 996 1161 996 1146 q 1013 1205 996 1188 q 1060 1222 1031 1222 q 1113 1198 1092 1222 q 1135 1128 1135 1174 q 1088 994 1135 1050 q 965 936 1042 939 q 883 885 883 933 l 883 283 q 790 58 883 129 q 521 -14 697 -14 z "},"Ű":{"ha":1031,"x_min":39,"x_max":990,"o":"m 308 1121 l 467 1268 q 535 1301 506 1301 q 566 1290 556 1301 q 576 1261 576 1278 q 529 1200 576 1228 l 332 1086 l 308 1121 m 531 1121 l 689 1268 q 708 1285 690 1269 q 753 1301 726 1301 q 787 1290 775 1301 q 799 1261 799 1278 q 753 1200 799 1228 l 556 1086 l 531 1121 m 521 -14 q 242 56 338 -14 q 146 283 146 125 l 146 885 q 125 922 146 910 q 71 935 104 935 l 39 935 l 39 972 l 389 972 l 389 935 l 357 935 q 303 922 324 935 q 282 885 282 910 l 282 274 q 353 94 282 144 q 551 43 425 43 q 739 95 664 43 q 814 274 814 147 l 814 885 q 794 922 814 910 q 739 935 774 935 l 708 935 l 708 972 l 990 972 l 990 935 l 958 935 q 904 922 925 935 q 883 885 883 910 l 883 283 q 790 58 883 129 q 521 -14 697 -14 z "},"Ū":{"ha":1031,"x_min":39,"x_max":990,"o":"m 300 1144 l 763 1144 l 763 1086 l 300 1086 l 300 1144 m 521 -14 q 242 56 338 -14 q 146 283 146 125 l 146 885 q 125 922 146 910 q 71 935 104 935 l 39 935 l 39 972 l 389 972 l 389 935 l 357 935 q 303 922 324 935 q 282 885 282 910 l 282 274 q 353 94 282 144 q 551 43 425 43 q 739 95 664 43 q 814 274 814 147 l 814 885 q 794 922 814 910 q 739 935 774 935 l 708 935 l 708 972 l 990 972 l 990 935 l 958 935 q 904 922 925 935 q 883 885 883 910 l 883 283 q 790 58 883 129 q 521 -14 697 -14 z "},"Ų":{"ha":1031,"x_min":39,"x_max":990,"o":"m 990 972 l 990 935 l 958 935 q 904 922 925 935 q 883 885 883 910 l 883 283 q 647 -3 883 40 q 585 -70 607 -33 q 563 -144 563 -107 q 585 -203 563 -183 q 646 -222 608 -222 q 710 -208 672 -222 l 718 -236 q 608 -269 669 -269 q 508 -234 539 -269 q 478 -156 478 -199 q 503 -77 478 -114 q 571 -12 528 -40 q 521 -14 554 -14 q 242 56 338 -14 q 146 283 146 125 l 146 885 q 125 922 146 910 q 71 935 104 935 l 39 935 l 39 972 l 389 972 l 389 935 l 357 935 q 303 922 324 935 q 282 885 282 910 l 282 274 q 353 94 282 144 q 551 43 425 43 q 739 95 664 43 q 814 274 814 147 l 814 885 q 794 922 814 910 q 739 935 774 935 l 708 935 l 708 972 l 990 972 z "},"Ů":{"ha":1031,"x_min":39,"x_max":990,"o":"m 533 1065 q 438 1099 475 1065 q 401 1189 401 1133 q 438 1278 401 1244 q 533 1313 475 1313 q 626 1278 590 1313 q 663 1189 663 1244 q 626 1099 663 1133 q 533 1065 590 1065 m 533 1115 q 586 1135 565 1115 q 607 1189 607 1156 q 586 1243 607 1222 q 533 1264 565 1264 q 481 1244 501 1264 q 460 1189 460 1224 q 481 1135 460 1156 q 533 1115 501 1115 m 521 -14 q 242 56 338 -14 q 146 283 146 125 l 146 885 q 125 922 146 910 q 71 935 104 935 l 39 935 l 39 972 l 389 972 l 389 935 l 357 935 q 303 922 324 935 q 282 885 282 910 l 282 274 q 353 94 282 144 q 551 43 425 43 q 739 95 664 43 q 814 274 814 147 l 814 885 q 794 922 814 910 q 739 935 774 935 l 708 935 l 708 972 l 990 972 l 990 935 l 958 935 q 904 922 925 935 q 883 885 883 910 l 883 283 q 790 58 883 129 q 521 -14 697 -14 z "},"Ũ":{"ha":1031,"x_min":39,"x_max":990,"o":"m 297 1099 q 347 1194 311 1157 q 435 1232 382 1232 q 481 1223 458 1232 q 543 1194 504 1214 q 601 1167 578 1176 q 646 1158 624 1158 q 699 1179 679 1158 q 738 1244 719 1200 l 767 1229 q 718 1129 753 1168 q 628 1090 683 1090 q 583 1099 606 1090 q 524 1128 561 1108 q 467 1156 492 1146 q 418 1165 443 1165 q 364 1145 385 1165 q 328 1083 343 1125 l 297 1099 m 521 -14 q 242 56 338 -14 q 146 283 146 125 l 146 885 q 125 922 146 910 q 71 935 104 935 l 39 935 l 39 972 l 389 972 l 389 935 l 357 935 q 303 922 324 935 q 282 885 282 910 l 282 274 q 353 94 282 144 q 551 43 425 43 q 739 95 664 43 q 814 274 814 147 l 814 885 q 794 922 814 910 q 739 935 774 935 l 708 935 l 708 972 l 990 972 l 990 935 l 958 935 q 904 922 925 935 q 883 885 883 910 l 883 283 q 790 58 883 129 q 521 -14 697 -14 z "},"V":{"ha":1006,"x_min":14,"x_max":992,"o":"m 124 886 q 96 922 115 908 q 51 935 76 935 l 14 935 l 14 972 l 364 972 l 364 935 l 322 935 q 283 925 299 935 q 268 899 268 915 q 271 885 268 893 l 526 146 l 785 881 q 788 896 788 892 q 773 924 788 914 q 738 935 758 935 l 690 935 l 690 972 l 992 972 l 992 935 l 947 935 q 903 921 922 935 q 875 883 883 907 l 553 -6 l 451 -6 l 124 886 z "},"W":{"ha":1404,"x_min":14,"x_max":1390,"o":"m 1390 972 l 1390 935 l 1351 935 q 1303 922 1325 935 q 1274 885 1281 908 l 1019 -6 l 935 -6 l 715 663 l 482 -6 l 382 -6 l 124 886 q 94 922 117 908 q 46 935 72 935 l 14 935 l 14 972 l 364 972 l 364 935 l 332 935 q 282 920 299 935 q 271 883 265 906 l 457 150 l 676 782 l 642 886 q 608 922 633 908 q 557 935 582 935 l 532 935 l 532 972 l 867 972 l 867 935 l 833 935 q 786 921 806 935 q 772 888 767 907 l 996 150 l 1185 883 q 1186 894 1186 888 q 1169 924 1186 914 q 1129 935 1151 935 l 1089 935 l 1089 972 l 1390 972 z "},"Ẃ":{"ha":1404,"x_min":14,"x_max":1390,"o":"m 628 1086 l 604 1121 l 764 1269 q 782 1286 765 1271 q 825 1301 799 1301 q 860 1289 847 1301 q 872 1260 872 1276 q 825 1201 872 1228 l 628 1086 m 1390 972 l 1390 935 l 1351 935 q 1303 922 1325 935 q 1274 885 1281 908 l 1019 -6 l 935 -6 l 715 663 l 482 -6 l 382 -6 l 124 886 q 94 922 117 908 q 46 935 72 935 l 14 935 l 14 972 l 364 972 l 364 935 l 332 935 q 282 920 299 935 q 271 883 265 906 l 457 150 l 676 782 l 642 886 q 608 922 633 908 q 557 935 582 935 l 532 935 l 532 972 l 867 972 l 867 935 l 833 935 q 786 921 806 935 q 772 888 767 907 l 996 150 l 1185 883 q 1186 894 1186 888 q 1169 924 1186 914 q 1129 935 1151 935 l 1089 935 l 1089 972 l 1390 972 z "},"Ŵ":{"ha":1404,"x_min":14,"x_max":1390,"o":"m 554 1086 l 528 1115 l 700 1294 l 774 1294 l 946 1115 l 919 1086 l 769 1206 q 738 1221 746 1221 q 704 1206 725 1221 l 554 1086 m 1390 972 l 1390 935 l 1351 935 q 1303 922 1325 935 q 1274 885 1281 908 l 1019 -6 l 935 -6 l 715 663 l 482 -6 l 382 -6 l 124 886 q 94 922 117 908 q 46 935 72 935 l 14 935 l 14 972 l 364 972 l 364 935 l 332 935 q 282 920 299 935 q 271 883 265 906 l 457 150 l 676 782 l 642 886 q 608 922 633 908 q 557 935 582 935 l 532 935 l 532 972 l 867 972 l 867 935 l 833 935 q 786 921 806 935 q 772 888 767 907 l 996 150 l 1185 883 q 1186 894 1186 888 q 1169 924 1186 914 q 1129 935 1151 935 l 1089 935 l 1089 972 l 1390 972 z "},"Ẅ":{"ha":1404,"x_min":14,"x_max":1390,"o":"m 586 1085 q 540 1103 557 1085 q 522 1149 522 1121 q 540 1197 522 1178 q 586 1215 557 1215 q 633 1197 615 1215 q 651 1149 651 1178 q 634 1103 651 1121 q 586 1085 617 1085 m 886 1085 q 839 1103 857 1085 q 821 1149 821 1121 q 839 1197 821 1178 q 886 1215 857 1215 q 933 1197 915 1215 q 951 1149 951 1178 q 934 1103 951 1121 q 886 1085 917 1085 m 1390 972 l 1390 935 l 1351 935 q 1303 922 1325 935 q 1274 885 1281 908 l 1019 -6 l 935 -6 l 715 663 l 482 -6 l 382 -6 l 124 886 q 94 922 117 908 q 46 935 72 935 l 14 935 l 14 972 l 364 972 l 364 935 l 332 935 q 282 920 299 935 q 271 883 265 906 l 457 150 l 676 782 l 642 886 q 608 922 633 908 q 557 935 582 935 l 532 935 l 532 972 l 867 972 l 867 935 l 833 935 q 786 921 806 935 q 772 888 767 907 l 996 150 l 1185 883 q 1186 894 1186 888 q 1169 924 1186 914 q 1129 935 1151 935 l 1089 935 l 1089 972 l 1390 972 z "},"Ẁ":{"ha":1404,"x_min":14,"x_max":1390,"o":"m 649 1201 q 606 1261 606 1226 q 617 1290 606 1278 q 650 1301 629 1301 q 713 1268 679 1301 l 872 1121 l 847 1086 l 649 1201 m 1390 972 l 1390 935 l 1351 935 q 1303 922 1325 935 q 1274 885 1281 908 l 1019 -6 l 935 -6 l 715 663 l 482 -6 l 382 -6 l 124 886 q 94 922 117 908 q 46 935 72 935 l 14 935 l 14 972 l 364 972 l 364 935 l 332 935 q 282 920 299 935 q 271 883 265 906 l 457 150 l 676 782 l 642 886 q 608 922 633 908 q 557 935 582 935 l 532 935 l 532 972 l 867 972 l 867 935 l 833 935 q 786 921 806 935 q 772 888 767 907 l 996 150 l 1185 883 q 1186 894 1186 888 q 1169 924 1186 914 q 1129 935 1151 935 l 1089 935 l 1089 972 l 1390 972 z "},"X":{"ha":982,"x_min":14,"x_max":968,"o":"m 968 38 l 968 0 l 618 0 l 618 38 l 660 38 q 699 48 682 38 q 717 72 717 58 q 711 88 717 81 l 472 428 l 221 92 q 214 74 214 85 q 231 48 214 58 q 268 38 249 38 l 315 38 l 315 0 l 14 0 l 14 38 l 58 38 q 92 48 79 38 q 116 72 106 58 q 131 89 126 85 l 429 489 l 150 886 q 78 935 117 935 l 40 935 l 40 972 l 390 972 l 390 935 l 349 935 q 309 924 326 935 q 292 900 292 914 q 297 885 292 892 l 504 590 l 721 881 q 728 899 728 889 q 710 924 728 914 q 674 935 693 935 l 626 935 l 626 972 l 928 972 l 928 935 l 883 935 q 849 924 863 935 q 826 901 836 914 q 811 883 815 888 l 547 529 l 858 86 q 931 38 892 38 l 968 38 z "},"Y":{"ha":957,"x_min":14,"x_max":943,"o":"m 279 36 l 318 36 q 400 86 400 36 l 400 406 l 124 886 q 91 922 111 908 q 47 935 71 935 l 14 935 l 14 972 l 356 972 l 356 935 l 319 935 q 278 924 296 935 q 260 897 260 913 q 263 885 260 889 l 492 469 l 738 881 q 742 896 742 889 q 722 924 742 914 q 681 935 703 935 l 643 935 l 643 972 l 943 972 l 943 935 l 913 935 q 864 921 888 935 q 828 885 840 907 l 536 404 l 536 86 q 617 36 536 36 l 657 36 l 657 0 l 279 0 l 279 36 z "},"Ý":{"ha":957,"x_min":14,"x_max":943,"o":"m 374 1144 l 533 1293 q 551 1310 535 1294 q 594 1325 568 1325 q 629 1313 617 1325 q 642 1283 642 1300 q 594 1225 642 1251 l 397 1110 l 374 1144 m 279 36 l 318 36 q 400 86 400 36 l 400 406 l 124 886 q 91 922 111 908 q 47 935 71 935 l 14 935 l 14 972 l 356 972 l 356 935 l 319 935 q 278 924 296 935 q 260 897 260 913 q 263 885 260 889 l 492 469 l 738 881 q 742 896 742 889 q 722 924 742 914 q 681 935 703 935 l 643 935 l 643 972 l 943 972 l 943 935 l 913 935 q 864 921 888 935 q 828 885 840 907 l 536 404 l 536 86 q 617 36 536 36 l 657 36 l 657 0 l 279 0 l 279 36 z "},"Ŷ":{"ha":957,"x_min":14,"x_max":943,"o":"m 263 1139 l 435 1318 l 508 1318 l 681 1139 l 654 1110 l 504 1229 q 472 1244 482 1244 q 439 1229 460 1244 l 289 1110 l 263 1139 m 279 36 l 318 36 q 400 86 400 36 l 400 406 l 124 886 q 91 922 111 908 q 47 935 71 935 l 14 935 l 14 972 l 356 972 l 356 935 l 319 935 q 278 924 296 935 q 260 897 260 913 q 263 885 260 889 l 492 469 l 738 881 q 742 896 742 889 q 722 924 742 914 q 681 935 703 935 l 643 935 l 643 972 l 943 972 l 943 935 l 913 935 q 864 921 888 935 q 828 885 840 907 l 536 404 l 536 86 q 617 36 536 36 l 657 36 l 657 0 l 279 0 l 279 36 z "},"Ÿ":{"ha":957,"x_min":14,"x_max":943,"o":"m 344 1108 q 298 1126 315 1108 q 281 1172 281 1144 q 298 1220 281 1201 q 344 1239 315 1239 q 392 1220 374 1239 q 410 1172 410 1201 q 392 1126 410 1144 q 344 1108 375 1108 m 644 1108 q 597 1126 615 1108 q 579 1172 579 1144 q 597 1220 579 1201 q 644 1239 615 1239 q 692 1220 674 1239 q 710 1172 710 1201 q 692 1126 710 1144 q 644 1108 675 1108 m 279 36 l 318 36 q 400 86 400 36 l 400 406 l 124 886 q 91 922 111 908 q 47 935 71 935 l 14 935 l 14 972 l 356 972 l 356 935 l 319 935 q 278 924 296 935 q 260 897 260 913 q 263 885 260 889 l 492 469 l 738 881 q 742 896 742 889 q 722 924 742 914 q 681 935 703 935 l 643 935 l 643 972 l 943 972 l 943 935 l 913 935 q 864 921 888 935 q 828 885 840 907 l 536 404 l 536 86 q 617 36 536 36 l 657 36 l 657 0 l 279 0 l 279 36 z "},"Ẏ":{"ha":957,"x_min":14,"x_max":943,"o":"m 472 1063 q 425 1081 443 1063 q 407 1126 407 1099 q 424 1174 407 1156 q 472 1192 442 1192 q 519 1174 501 1192 q 536 1126 536 1156 q 519 1081 536 1099 q 472 1063 501 1063 m 279 36 l 318 36 q 400 86 400 36 l 400 406 l 124 886 q 91 922 111 908 q 47 935 71 935 l 14 935 l 14 972 l 356 972 l 356 935 l 319 935 q 278 924 296 935 q 260 897 260 913 q 263 885 260 889 l 492 469 l 738 881 q 742 896 742 889 q 722 924 742 914 q 681 935 703 935 l 643 935 l 643 972 l 943 972 l 943 935 l 913 935 q 864 921 888 935 q 828 885 840 907 l 536 404 l 536 86 q 617 36 536 36 l 657 36 l 657 0 l 279 0 l 279 36 z "},"Ỵ":{"ha":957,"x_min":14,"x_max":943,"o":"m 279 36 l 318 36 q 400 86 400 36 l 400 406 l 124 886 q 91 922 111 908 q 47 935 71 935 l 14 935 l 14 972 l 356 972 l 356 935 l 319 935 q 278 924 296 935 q 260 897 260 913 q 263 885 260 889 l 492 469 l 738 881 q 742 896 742 889 q 722 924 742 914 q 681 935 703 935 l 643 935 l 643 972 l 943 972 l 943 935 l 913 935 q 864 921 888 935 q 828 885 840 907 l 536 404 l 536 86 q 617 36 536 36 l 657 36 l 657 0 l 279 0 l 279 36 m 469 -221 q 422 -203 440 -221 q 404 -156 404 -185 q 422 -108 404 -126 q 469 -89 440 -89 q 516 -108 499 -89 q 533 -156 533 -126 q 516 -203 533 -185 q 469 -221 499 -221 z "},"Ỳ":{"ha":957,"x_min":14,"x_max":943,"o":"m 371 1225 q 328 1285 328 1250 q 340 1313 328 1301 q 372 1325 351 1325 q 435 1292 401 1325 l 594 1144 l 569 1110 l 371 1225 m 279 36 l 318 36 q 400 86 400 36 l 400 406 l 124 886 q 91 922 111 908 q 47 935 71 935 l 14 935 l 14 972 l 356 972 l 356 935 l 319 935 q 278 924 296 935 q 260 897 260 913 q 263 885 260 889 l 492 469 l 738 881 q 742 896 742 889 q 722 924 742 914 q 681 935 703 935 l 643 935 l 643 972 l 943 972 l 943 935 l 913 935 q 864 921 888 935 q 828 885 840 907 l 536 404 l 536 86 q 617 36 536 36 l 657 36 l 657 0 l 279 0 l 279 36 z "},"Ỷ":{"ha":957,"x_min":14,"x_max":943,"o":"m 551 1086 q 478 1106 501 1086 q 456 1156 456 1125 q 469 1191 456 1176 q 513 1228 482 1206 q 555 1262 540 1247 q 569 1297 569 1276 q 556 1328 569 1315 q 522 1342 543 1342 q 490 1335 504 1342 q 469 1314 475 1328 q 465 1301 468 1311 q 453 1283 463 1290 q 431 1276 444 1276 q 399 1311 399 1276 q 434 1363 399 1344 q 521 1382 469 1382 q 611 1359 578 1382 q 644 1293 644 1336 q 626 1249 644 1267 q 572 1208 608 1231 q 533 1181 546 1192 q 521 1156 521 1169 q 531 1131 521 1139 q 564 1114 542 1122 l 551 1086 m 279 36 l 318 36 q 400 86 400 36 l 400 406 l 124 886 q 91 922 111 908 q 47 935 71 935 l 14 935 l 14 972 l 356 972 l 356 935 l 319 935 q 278 924 296 935 q 260 897 260 913 q 263 885 260 889 l 492 469 l 738 881 q 742 896 742 889 q 722 924 742 914 q 681 935 703 935 l 643 935 l 643 972 l 943 972 l 943 935 l 913 935 q 864 921 888 935 q 828 885 840 907 l 536 404 l 536 86 q 617 36 536 36 l 657 36 l 657 0 l 279 0 l 279 36 z "},"Ỹ":{"ha":957,"x_min":14,"x_max":943,"o":"m 247 1099 q 297 1194 261 1157 q 385 1232 332 1232 q 431 1223 408 1232 q 493 1194 454 1214 q 551 1167 528 1176 q 596 1158 574 1158 q 649 1179 629 1158 q 688 1244 669 1200 l 717 1229 q 668 1129 703 1168 q 578 1090 633 1090 q 533 1099 556 1090 q 474 1128 511 1108 q 417 1156 442 1146 q 368 1165 393 1165 q 314 1145 335 1165 q 278 1083 293 1125 l 247 1099 m 279 36 l 318 36 q 400 86 400 36 l 400 406 l 124 886 q 91 922 111 908 q 47 935 71 935 l 14 935 l 14 972 l 356 972 l 356 935 l 319 935 q 278 924 296 935 q 260 897 260 913 q 263 885 260 889 l 492 469 l 738 881 q 742 896 742 889 q 722 924 742 914 q 681 935 703 935 l 643 935 l 643 972 l 943 972 l 943 935 l 913 935 q 864 921 888 935 q 828 885 840 907 l 536 404 l 536 86 q 617 36 536 36 l 657 36 l 657 0 l 279 0 l 279 36 z "},"Z":{"ha":793,"x_min":32,"x_max":747,"o":"m 32 35 l 600 915 l 242 915 q 150 860 174 915 q 121 732 126 804 l 85 732 l 85 972 l 747 972 l 747 944 l 179 56 l 585 56 q 710 247 685 56 l 746 247 l 722 0 l 32 0 l 32 35 z "},"Ź":{"ha":793,"x_min":32,"x_max":747,"o":"m 325 1121 l 485 1269 q 503 1286 486 1271 q 546 1301 519 1301 q 581 1289 568 1301 q 593 1260 593 1276 q 546 1201 593 1228 l 349 1086 l 325 1121 m 32 35 l 600 915 l 242 915 q 150 860 174 915 q 121 732 126 804 l 85 732 l 85 972 l 747 972 l 747 944 l 179 56 l 585 56 q 710 247 685 56 l 746 247 l 722 0 l 32 0 l 32 35 z "},"Ž":{"ha":793,"x_min":32,"x_max":747,"o":"m 197 1265 l 224 1294 l 374 1176 q 407 1161 396 1161 q 439 1176 421 1161 l 589 1294 l 615 1265 l 443 1086 l 369 1086 l 197 1265 m 32 35 l 600 915 l 242 915 q 150 860 174 915 q 121 732 126 804 l 85 732 l 85 972 l 747 972 l 747 944 l 179 56 l 585 56 q 710 247 685 56 l 746 247 l 722 0 l 32 0 l 32 35 z "},"Ż":{"ha":793,"x_min":32,"x_max":747,"o":"m 403 1063 q 356 1081 374 1063 q 338 1126 338 1099 q 355 1174 338 1156 q 403 1192 372 1192 q 449 1174 432 1192 q 467 1126 467 1156 q 449 1081 467 1099 q 403 1063 432 1063 m 32 35 l 600 915 l 242 915 q 150 860 174 915 q 121 732 126 804 l 85 732 l 85 972 l 747 972 l 747 944 l 179 56 l 585 56 q 710 247 685 56 l 746 247 l 722 0 l 32 0 l 32 35 z "},"Ẓ":{"ha":793,"x_min":32,"x_max":747,"o":"m 32 35 l 600 915 l 242 915 q 150 860 174 915 q 121 732 126 804 l 85 732 l 85 972 l 747 972 l 747 944 l 179 56 l 585 56 q 710 247 685 56 l 746 247 l 722 0 l 32 0 l 32 35 m 389 -221 q 342 -203 360 -221 q 324 -156 324 -185 q 342 -108 324 -126 q 389 -89 360 -89 q 435 -108 418 -89 q 453 -156 453 -126 q 435 -203 453 -185 q 389 -221 418 -221 z "},"a":{"ha":703,"x_min":40,"x_max":686,"o":"m 221 -14 q 88 26 136 -14 q 40 133 40 65 q 147 300 40 235 q 474 396 253 365 l 474 468 q 429 575 474 539 q 311 611 385 611 q 214 590 258 611 q 169 546 169 569 q 172 525 169 538 q 175 506 175 513 q 163 469 175 485 q 122 454 150 454 q 83 472 99 454 q 67 521 67 489 q 146 628 67 590 q 339 667 225 667 q 536 610 467 667 q 606 457 606 554 l 606 81 q 636 36 606 36 q 686 47 656 36 l 686 24 q 633 -4 665 6 q 568 -14 601 -14 q 503 1 531 -14 q 475 51 475 17 l 475 93 q 352 9 419 32 q 221 -14 285 -14 m 285 42 q 392 75 336 42 q 474 151 449 108 l 474 350 q 248 266 326 321 q 169 143 169 211 q 200 67 169 93 q 285 42 231 42 z "},"á":{"ha":703,"x_min":40,"x_max":686,"o":"m 232 794 l 392 943 q 410 960 393 944 q 453 975 426 975 q 488 963 475 975 q 500 933 500 950 q 453 875 500 901 l 256 760 l 232 794 m 221 -14 q 88 26 136 -14 q 40 133 40 65 q 147 300 40 235 q 474 396 253 365 l 474 468 q 429 575 474 539 q 311 611 385 611 q 214 590 258 611 q 169 546 169 569 q 172 525 169 538 q 175 506 175 513 q 163 469 175 485 q 122 454 150 454 q 83 472 99 454 q 67 521 67 489 q 146 628 67 590 q 339 667 225 667 q 536 610 467 667 q 606 457 606 554 l 606 81 q 636 36 606 36 q 686 47 656 36 l 686 24 q 633 -4 665 6 q 568 -14 601 -14 q 503 1 531 -14 q 475 51 475 17 l 475 93 q 352 9 419 32 q 221 -14 285 -14 m 285 42 q 392 75 336 42 q 474 151 449 108 l 474 350 q 248 266 326 321 q 169 143 169 211 q 200 67 169 93 q 285 42 231 42 z "},"ă":{"ha":703,"x_min":40,"x_max":686,"o":"m 344 751 q 194 799 243 751 q 140 933 144 847 l 186 933 q 234 844 193 874 q 344 815 275 815 q 453 844 413 815 q 500 933 494 874 l 546 933 q 492 801 542 850 q 344 751 443 751 m 221 -14 q 88 26 136 -14 q 40 133 40 65 q 147 300 40 235 q 474 396 253 365 l 474 468 q 429 575 474 539 q 311 611 385 611 q 214 590 258 611 q 169 546 169 569 q 172 525 169 538 q 175 506 175 513 q 163 469 175 485 q 122 454 150 454 q 83 472 99 454 q 67 521 67 489 q 146 628 67 590 q 339 667 225 667 q 536 610 467 667 q 606 457 606 554 l 606 81 q 636 36 606 36 q 686 47 656 36 l 686 24 q 633 -4 665 6 q 568 -14 601 -14 q 503 1 531 -14 q 475 51 475 17 l 475 93 q 352 9 419 32 q 221 -14 285 -14 m 285 42 q 392 75 336 42 q 474 151 449 108 l 474 350 q 248 266 326 321 q 169 143 169 211 q 200 67 169 93 q 285 42 231 42 z "},"ắ":{"ha":703,"x_min":40,"x_max":686,"o":"m 297 944 l 429 1074 q 494 1110 465 1110 q 528 1097 515 1110 q 542 1067 542 1083 q 490 1007 542 1033 l 322 914 l 297 944 m 353 747 q 203 795 253 747 q 151 929 154 843 l 196 929 q 242 842 201 871 q 353 813 283 813 q 463 842 422 813 q 510 929 504 871 l 556 929 q 502 797 551 846 q 353 747 453 747 m 221 -14 q 88 26 136 -14 q 40 133 40 65 q 147 300 40 235 q 474 396 253 365 l 474 468 q 429 575 474 539 q 311 611 385 611 q 214 590 258 611 q 169 546 169 569 q 172 525 169 538 q 175 506 175 513 q 163 469 175 485 q 122 454 150 454 q 83 472 99 454 q 67 521 67 489 q 146 628 67 590 q 339 667 225 667 q 536 610 467 667 q 606 457 606 554 l 606 81 q 636 36 606 36 q 686 47 656 36 l 686 24 q 633 -4 665 6 q 568 -14 601 -14 q 503 1 531 -14 q 475 51 475 17 l 475 93 q 352 9 419 32 q 221 -14 285 -14 m 285 42 q 392 75 336 42 q 474 151 449 108 l 474 350 q 248 266 326 321 q 169 143 169 211 q 200 67 169 93 q 285 42 231 42 z "},"ặ":{"ha":703,"x_min":40,"x_max":686,"o":"m 196 933 q 244 844 203 874 q 354 815 285 815 q 463 844 422 815 q 510 933 504 874 l 556 933 q 502 801 551 850 q 354 751 453 751 q 203 799 253 751 q 150 933 154 847 l 196 933 m 40 133 q 147 300 40 235 q 474 396 253 365 l 474 468 q 429 575 474 539 q 311 611 385 611 q 214 590 258 611 q 169 546 169 569 q 172 525 169 538 q 175 506 175 513 q 163 469 175 485 q 122 454 150 454 q 83 472 99 454 q 67 521 67 489 q 146 628 67 590 q 339 667 225 667 q 536 610 467 667 q 606 457 606 554 l 606 81 q 636 36 606 36 q 686 47 656 36 l 686 24 q 633 -4 665 6 q 568 -14 601 -14 q 503 1 531 -14 q 475 51 475 17 l 475 93 q 352 9 419 32 q 221 -14 285 -14 q 88 26 136 -14 q 40 133 40 65 m 169 143 q 200 67 169 93 q 285 42 231 42 q 392 75 336 42 q 474 151 449 108 l 474 350 q 248 266 326 321 q 169 143 169 211 m 286 -156 q 304 -108 286 -126 q 351 -89 322 -89 q 398 -108 381 -89 q 415 -156 415 -126 q 398 -203 415 -185 q 351 -221 381 -221 q 304 -203 322 -221 q 286 -156 286 -185 z "},"ằ":{"ha":703,"x_min":40,"x_max":686,"o":"m 206 1006 q 169 1034 182 1018 q 156 1065 156 1050 q 167 1095 156 1082 q 201 1108 179 1108 q 265 1072 232 1108 l 399 944 l 375 913 l 206 1006 m 353 747 q 203 795 253 747 q 151 929 154 843 l 196 929 q 242 842 201 871 q 353 813 283 813 q 463 842 422 813 q 510 929 504 871 l 556 929 q 502 797 551 846 q 353 747 453 747 m 221 -14 q 88 26 136 -14 q 40 133 40 65 q 147 300 40 235 q 474 396 253 365 l 474 468 q 429 575 474 539 q 311 611 385 611 q 214 590 258 611 q 169 546 169 569 q 172 525 169 538 q 175 506 175 513 q 163 469 175 485 q 122 454 150 454 q 83 472 99 454 q 67 521 67 489 q 146 628 67 590 q 339 667 225 667 q 536 610 467 667 q 606 457 606 554 l 606 81 q 636 36 606 36 q 686 47 656 36 l 686 24 q 633 -4 665 6 q 568 -14 601 -14 q 503 1 531 -14 q 475 51 475 17 l 475 93 q 352 9 419 32 q 221 -14 285 -14 m 285 42 q 392 75 336 42 q 474 151 449 108 l 474 350 q 248 266 326 321 q 169 143 169 211 q 200 67 169 93 q 285 42 231 42 z "},"ẳ":{"ha":703,"x_min":40,"x_max":686,"o":"m 383 892 q 317 909 338 892 q 296 954 296 926 q 309 985 296 972 q 347 1015 322 999 q 385 1045 372 1032 q 397 1076 397 1058 q 386 1103 397 1093 q 356 1114 375 1114 q 324 1106 333 1114 q 306 1083 315 1099 q 292 1065 299 1071 q 274 1060 286 1060 q 253 1068 263 1060 q 244 1089 244 1076 q 277 1132 244 1118 q 350 1146 310 1146 q 433 1127 399 1146 q 467 1072 467 1108 q 450 1033 467 1049 q 401 999 433 1017 q 367 976 378 985 q 356 956 356 967 q 365 933 356 942 q 396 917 375 925 l 383 892 m 353 747 q 203 795 253 747 q 151 929 154 843 l 196 929 q 242 842 201 871 q 353 813 283 813 q 463 842 422 813 q 510 929 504 871 l 556 929 q 502 797 551 846 q 353 747 453 747 m 221 -14 q 88 26 136 -14 q 40 133 40 65 q 147 300 40 235 q 474 396 253 365 l 474 468 q 429 575 474 539 q 311 611 385 611 q 214 590 258 611 q 169 546 169 569 q 172 525 169 538 q 175 506 175 513 q 163 469 175 485 q 122 454 150 454 q 83 472 99 454 q 67 521 67 489 q 146 628 67 590 q 339 667 225 667 q 536 610 467 667 q 606 457 606 554 l 606 81 q 636 36 606 36 q 686 47 656 36 l 686 24 q 633 -4 665 6 q 568 -14 601 -14 q 503 1 531 -14 q 475 51 475 17 l 475 93 q 352 9 419 32 q 221 -14 285 -14 m 285 42 q 392 75 336 42 q 474 151 449 108 l 474 350 q 248 266 326 321 q 169 143 169 211 q 200 67 169 93 q 285 42 231 42 z "},"ẵ":{"ha":703,"x_min":40,"x_max":686,"o":"m 126 1021 q 172 1115 138 1078 q 256 1153 206 1153 q 301 1144 279 1153 q 358 1115 324 1135 q 414 1088 392 1097 q 457 1079 436 1079 q 510 1101 490 1079 q 543 1167 529 1122 l 572 1150 q 526 1051 558 1090 q 442 1013 493 1013 q 399 1022 419 1013 q 342 1050 378 1031 q 287 1078 310 1068 q 240 1088 264 1088 q 188 1067 208 1088 q 154 1004 168 1046 l 126 1021 m 353 747 q 203 795 253 747 q 151 929 154 843 l 196 929 q 242 842 201 871 q 353 813 283 813 q 463 842 422 813 q 510 929 504 871 l 556 929 q 502 797 551 846 q 353 747 453 747 m 221 -14 q 88 26 136 -14 q 40 133 40 65 q 147 300 40 235 q 474 396 253 365 l 474 468 q 429 575 474 539 q 311 611 385 611 q 214 590 258 611 q 169 546 169 569 q 172 525 169 538 q 175 506 175 513 q 163 469 175 485 q 122 454 150 454 q 83 472 99 454 q 67 521 67 489 q 146 628 67 590 q 339 667 225 667 q 536 610 467 667 q 606 457 606 554 l 606 81 q 636 36 606 36 q 686 47 656 36 l 686 24 q 633 -4 665 6 q 568 -14 601 -14 q 503 1 531 -14 q 475 51 475 17 l 475 93 q 352 9 419 32 q 221 -14 285 -14 m 285 42 q 392 75 336 42 q 474 151 449 108 l 474 350 q 248 266 326 321 q 169 143 169 211 q 200 67 169 93 q 285 42 231 42 z "},"ǎ":{"ha":703,"x_min":40,"x_max":686,"o":"m 136 949 l 163 979 l 310 863 q 342 847 331 847 q 372 863 351 847 l 521 979 l 546 949 l 376 765 l 306 765 l 136 949 m 221 -14 q 88 26 136 -14 q 40 133 40 65 q 147 300 40 235 q 474 396 253 365 l 474 468 q 429 575 474 539 q 311 611 385 611 q 214 590 258 611 q 169 546 169 569 q 172 525 169 538 q 175 506 175 513 q 163 469 175 485 q 122 454 150 454 q 83 472 99 454 q 67 521 67 489 q 146 628 67 590 q 339 667 225 667 q 536 610 467 667 q 606 457 606 554 l 606 81 q 636 36 606 36 q 686 47 656 36 l 686 24 q 633 -4 665 6 q 568 -14 601 -14 q 503 1 531 -14 q 475 51 475 17 l 475 93 q 352 9 419 32 q 221 -14 285 -14 m 285 42 q 392 75 336 42 q 474 151 449 108 l 474 350 q 248 266 326 321 q 169 143 169 211 q 200 67 169 93 q 285 42 231 42 z "},"â":{"ha":703,"x_min":40,"x_max":686,"o":"m 138 789 l 310 968 l 383 968 l 556 789 l 529 760 l 379 879 q 347 894 357 894 q 314 879 335 894 l 164 760 l 138 789 m 221 -14 q 88 26 136 -14 q 40 133 40 65 q 147 300 40 235 q 474 396 253 365 l 474 468 q 429 575 474 539 q 311 611 385 611 q 214 590 258 611 q 169 546 169 569 q 172 525 169 538 q 175 506 175 513 q 163 469 175 485 q 122 454 150 454 q 83 472 99 454 q 67 521 67 489 q 146 628 67 590 q 339 667 225 667 q 536 610 467 667 q 606 457 606 554 l 606 81 q 636 36 606 36 q 686 47 656 36 l 686 24 q 633 -4 665 6 q 568 -14 601 -14 q 503 1 531 -14 q 475 51 475 17 l 475 93 q 352 9 419 32 q 221 -14 285 -14 m 285 42 q 392 75 336 42 q 474 151 449 108 l 474 350 q 248 266 326 321 q 169 143 169 211 q 200 67 169 93 q 285 42 231 42 z "},"ấ":{"ha":703,"x_min":40,"x_max":740,"o":"m 496 944 l 629 1074 q 693 1110 665 1110 q 728 1097 715 1110 q 740 1067 740 1083 q 727 1035 740 1051 q 690 1007 714 1019 l 521 914 l 496 944 m 157 789 l 326 968 l 397 968 l 567 789 l 540 758 l 393 878 q 361 893 369 893 q 322 871 350 893 l 182 758 l 157 789 m 221 -14 q 88 26 136 -14 q 40 133 40 65 q 147 300 40 235 q 474 396 253 365 l 474 468 q 429 575 474 539 q 311 611 385 611 q 214 590 258 611 q 169 546 169 569 q 172 525 169 538 q 175 506 175 513 q 163 469 175 485 q 122 454 150 454 q 83 472 99 454 q 67 521 67 489 q 146 628 67 590 q 339 667 225 667 q 536 610 467 667 q 606 457 606 554 l 606 81 q 636 36 606 36 q 686 47 656 36 l 686 24 q 633 -4 665 6 q 568 -14 601 -14 q 503 1 531 -14 q 475 51 475 17 l 475 93 q 352 9 419 32 q 221 -14 285 -14 m 285 42 q 392 75 336 42 q 474 151 449 108 l 474 350 q 248 266 326 321 q 169 143 169 211 q 200 67 169 93 q 285 42 231 42 z "},"ậ":{"ha":703,"x_min":40,"x_max":686,"o":"m 324 968 l 397 968 l 569 789 l 543 760 l 393 879 q 361 894 369 894 q 328 879 349 894 l 178 760 l 151 789 l 324 968 m 40 133 q 147 300 40 235 q 474 396 253 365 l 474 468 q 429 575 474 539 q 311 611 385 611 q 214 590 258 611 q 169 546 169 569 q 172 525 169 538 q 175 506 175 513 q 163 469 175 485 q 122 454 150 454 q 83 472 99 454 q 67 521 67 489 q 146 628 67 590 q 339 667 225 667 q 536 610 467 667 q 606 457 606 554 l 606 81 q 636 36 606 36 q 686 47 656 36 l 686 24 q 633 -4 665 6 q 568 -14 601 -14 q 503 1 531 -14 q 475 51 475 17 l 475 93 q 352 9 419 32 q 221 -14 285 -14 q 88 26 136 -14 q 40 133 40 65 m 169 143 q 200 67 169 93 q 285 42 231 42 q 392 75 336 42 q 474 151 449 108 l 474 350 q 248 266 326 321 q 169 143 169 211 m 299 -156 q 317 -108 299 -126 q 364 -89 335 -89 q 410 -108 393 -89 q 428 -156 428 -126 q 410 -203 428 -185 q 364 -221 393 -221 q 317 -203 335 -221 q 299 -156 299 -185 z "},"ầ":{"ha":703,"x_min":-8,"x_max":686,"o":"m 42 1007 q 5 1035 18 1019 q -8 1067 -8 1051 q 4 1097 -8 1083 q 38 1110 17 1110 q 103 1074 67 1110 l 235 944 l 211 914 l 42 1007 m 157 789 l 326 968 l 397 968 l 567 789 l 540 758 l 393 878 q 361 893 369 893 q 322 871 350 893 l 182 758 l 157 789 m 221 -14 q 88 26 136 -14 q 40 133 40 65 q 147 300 40 235 q 474 396 253 365 l 474 468 q 429 575 474 539 q 311 611 385 611 q 214 590 258 611 q 169 546 169 569 q 172 525 169 538 q 175 506 175 513 q 163 469 175 485 q 122 454 150 454 q 83 472 99 454 q 67 521 67 489 q 146 628 67 590 q 339 667 225 667 q 536 610 467 667 q 606 457 606 554 l 606 81 q 636 36 606 36 q 686 47 656 36 l 686 24 q 633 -4 665 6 q 568 -14 601 -14 q 503 1 531 -14 q 475 51 475 17 l 475 93 q 352 9 419 32 q 221 -14 285 -14 m 285 42 q 392 75 336 42 q 474 151 449 108 l 474 350 q 248 266 326 321 q 169 143 169 211 q 200 67 169 93 q 285 42 231 42 z "},"ẩ":{"ha":703,"x_min":40,"x_max":686,"o":"m 592 896 q 525 913 546 896 q 504 958 504 931 q 517 990 504 976 q 556 1019 531 1003 q 593 1049 581 1036 q 606 1081 606 1063 q 594 1108 606 1097 q 564 1118 583 1118 q 533 1110 542 1118 q 514 1088 524 1103 q 501 1069 507 1075 q 482 1064 494 1064 q 462 1072 471 1064 q 453 1093 453 1081 q 485 1136 453 1122 q 558 1150 518 1150 q 641 1131 607 1150 q 675 1076 675 1113 q 658 1037 675 1053 q 610 1003 642 1021 q 575 980 586 989 q 564 960 564 971 q 574 938 564 946 q 604 921 583 929 l 592 896 m 157 789 l 326 968 l 397 968 l 567 789 l 540 758 l 393 878 q 361 893 369 893 q 317 865 347 893 l 182 758 l 157 789 m 221 -14 q 88 26 136 -14 q 40 133 40 65 q 147 300 40 235 q 474 396 253 365 l 474 468 q 429 575 474 539 q 311 611 385 611 q 214 590 258 611 q 169 546 169 569 q 172 525 169 538 q 175 506 175 513 q 163 469 175 485 q 122 454 150 454 q 83 472 99 454 q 67 521 67 489 q 146 628 67 590 q 339 667 225 667 q 536 610 467 667 q 606 457 606 554 l 606 81 q 636 36 606 36 q 686 47 656 36 l 686 24 q 633 -4 665 6 q 568 -14 601 -14 q 503 1 531 -14 q 475 51 475 17 l 475 93 q 352 9 419 32 q 221 -14 285 -14 m 285 42 q 392 75 336 42 q 474 151 449 108 l 474 350 q 248 266 326 321 q 169 143 169 211 q 200 67 169 93 q 285 42 231 42 z "},"ẫ":{"ha":703,"x_min":40,"x_max":686,"o":"m 142 1021 q 187 1115 153 1078 q 271 1153 221 1153 q 317 1144 294 1153 q 374 1115 339 1135 q 429 1088 407 1097 q 472 1079 451 1079 q 525 1101 506 1079 q 558 1167 544 1122 l 588 1150 q 541 1051 574 1090 q 457 1013 508 1013 q 414 1022 435 1013 q 357 1050 393 1031 q 302 1078 325 1068 q 256 1088 279 1088 q 203 1067 224 1088 q 169 1004 183 1046 l 142 1021 m 157 789 l 326 968 l 397 968 l 567 789 l 540 758 l 393 878 q 361 893 369 893 q 322 871 350 893 l 182 758 l 157 789 m 221 -14 q 88 26 136 -14 q 40 133 40 65 q 147 300 40 235 q 474 396 253 365 l 474 468 q 429 575 474 539 q 311 611 385 611 q 214 590 258 611 q 169 546 169 569 q 172 525 169 538 q 175 506 175 513 q 163 469 175 485 q 122 454 150 454 q 83 472 99 454 q 67 521 67 489 q 146 628 67 590 q 339 667 225 667 q 536 610 467 667 q 606 457 606 554 l 606 81 q 636 36 606 36 q 686 47 656 36 l 686 24 q 633 -4 665 6 q 568 -14 601 -14 q 503 1 531 -14 q 475 51 475 17 l 475 93 q 352 9 419 32 q 221 -14 285 -14 m 285 42 q 392 75 336 42 q 474 151 449 108 l 474 350 q 248 266 326 321 q 169 143 169 211 q 200 67 169 93 q 285 42 231 42 z "},"ä":{"ha":703,"x_min":40,"x_max":686,"o":"m 192 758 q 145 776 163 758 q 128 822 128 794 q 145 870 128 851 q 192 889 163 889 q 239 870 221 889 q 257 822 257 851 q 240 776 257 794 q 192 758 222 758 m 492 758 q 444 776 463 758 q 426 822 426 794 q 444 870 426 851 q 492 889 463 889 q 539 870 521 889 q 557 822 557 851 q 540 776 557 794 q 492 758 522 758 m 221 -14 q 88 26 136 -14 q 40 133 40 65 q 147 300 40 235 q 474 396 253 365 l 474 468 q 429 575 474 539 q 311 611 385 611 q 214 590 258 611 q 169 546 169 569 q 172 525 169 538 q 175 506 175 513 q 163 469 175 485 q 122 454 150 454 q 83 472 99 454 q 67 521 67 489 q 146 628 67 590 q 339 667 225 667 q 536 610 467 667 q 606 457 606 554 l 606 81 q 636 36 606 36 q 686 47 656 36 l 686 24 q 633 -4 665 6 q 568 -14 601 -14 q 503 1 531 -14 q 475 51 475 17 l 475 93 q 352 9 419 32 q 221 -14 285 -14 m 285 42 q 392 75 336 42 q 474 151 449 108 l 474 350 q 248 266 326 321 q 169 143 169 211 q 200 67 169 93 q 285 42 231 42 z "},"ạ":{"ha":703,"x_min":40,"x_max":686,"o":"m 40 133 q 147 300 40 235 q 474 396 253 365 l 474 468 q 429 575 474 539 q 311 611 385 611 q 214 590 258 611 q 169 546 169 569 q 172 525 169 538 q 175 506 175 513 q 163 469 175 485 q 122 454 150 454 q 83 472 99 454 q 67 521 67 489 q 146 628 67 590 q 339 667 225 667 q 536 610 467 667 q 606 457 606 554 l 606 81 q 636 36 606 36 q 686 47 656 36 l 686 24 q 633 -4 665 6 q 568 -14 601 -14 q 503 1 531 -14 q 475 51 475 17 l 475 93 q 352 9 419 32 q 221 -14 285 -14 q 88 26 136 -14 q 40 133 40 65 m 169 143 q 200 67 169 93 q 285 42 231 42 q 392 75 336 42 q 474 151 449 108 l 474 350 q 248 266 326 321 q 169 143 169 211 m 292 -156 q 310 -108 292 -126 q 357 -89 328 -89 q 403 -108 386 -89 q 421 -156 421 -126 q 403 -203 421 -185 q 357 -221 386 -221 q 310 -203 328 -221 q 292 -156 292 -185 z "},"à":{"ha":703,"x_min":40,"x_max":686,"o":"m 254 875 q 211 935 211 900 q 223 963 211 951 q 256 975 235 975 q 318 942 285 975 l 478 794 l 453 760 l 254 875 m 221 -14 q 88 26 136 -14 q 40 133 40 65 q 147 300 40 235 q 474 396 253 365 l 474 468 q 429 575 474 539 q 311 611 385 611 q 214 590 258 611 q 169 546 169 569 q 172 525 169 538 q 175 506 175 513 q 163 469 175 485 q 122 454 150 454 q 83 472 99 454 q 67 521 67 489 q 146 628 67 590 q 339 667 225 667 q 536 610 467 667 q 606 457 606 554 l 606 81 q 636 36 606 36 q 686 47 656 36 l 686 24 q 633 -4 665 6 q 568 -14 601 -14 q 503 1 531 -14 q 475 51 475 17 l 475 93 q 352 9 419 32 q 221 -14 285 -14 m 285 42 q 392 75 336 42 q 474 151 449 108 l 474 350 q 248 266 326 321 q 169 143 169 211 q 200 67 169 93 q 285 42 231 42 z "},"ả":{"ha":703,"x_min":40,"x_max":686,"o":"m 390 760 q 317 779 340 760 q 294 829 294 799 q 308 865 294 850 q 351 901 321 879 q 394 935 379 921 q 408 971 408 950 q 395 1002 408 989 q 361 1015 382 1015 q 328 1008 343 1015 q 308 988 314 1001 q 304 974 307 985 q 292 957 301 964 q 269 950 283 950 q 238 985 238 950 q 273 1037 238 1018 q 360 1056 308 1056 q 450 1033 417 1056 q 483 967 483 1010 q 465 922 483 940 q 411 882 447 904 q 372 854 385 865 q 360 829 360 843 q 370 804 360 813 q 403 788 381 796 l 390 760 m 221 -14 q 88 26 136 -14 q 40 133 40 65 q 147 300 40 235 q 474 396 253 365 l 474 468 q 429 575 474 539 q 311 611 385 611 q 214 590 258 611 q 169 546 169 569 q 172 525 169 538 q 175 506 175 513 q 163 469 175 485 q 122 454 150 454 q 83 472 99 454 q 67 521 67 489 q 146 628 67 590 q 339 667 225 667 q 536 610 467 667 q 606 457 606 554 l 606 81 q 636 36 606 36 q 686 47 656 36 l 686 24 q 633 -4 665 6 q 568 -14 601 -14 q 503 1 531 -14 q 475 51 475 17 l 475 93 q 352 9 419 32 q 221 -14 285 -14 m 285 42 q 392 75 336 42 q 474 151 449 108 l 474 350 q 248 266 326 321 q 169 143 169 211 q 200 67 169 93 q 285 42 231 42 z "},"ɑ":{"ha":789,"x_min":36,"x_max":771,"o":"m 336 -14 q 111 65 186 -14 q 36 319 36 144 q 85 509 36 431 q 214 627 133 588 q 392 667 294 667 q 571 637 493 667 q 689 560 649 607 l 689 81 q 721 36 689 36 q 771 47 740 36 l 771 24 q 717 -4 749 6 q 653 -14 686 -14 q 587 1 614 -14 q 560 51 560 17 l 560 96 q 336 -14 494 -14 m 368 39 q 469 67 426 39 q 535 140 513 94 q 558 235 558 185 l 558 553 q 388 613 493 613 q 274 577 324 613 q 194 476 224 542 q 165 321 165 410 q 213 113 165 186 q 368 39 260 39 z "},"ā":{"ha":703,"x_min":40,"x_max":686,"o":"m 111 818 l 574 818 l 574 760 l 111 760 l 111 818 m 221 -14 q 88 26 136 -14 q 40 133 40 65 q 147 300 40 235 q 474 396 253 365 l 474 468 q 429 575 474 539 q 311 611 385 611 q 214 590 258 611 q 169 546 169 569 q 172 525 169 538 q 175 506 175 513 q 163 469 175 485 q 122 454 150 454 q 83 472 99 454 q 67 521 67 489 q 146 628 67 590 q 339 667 225 667 q 536 610 467 667 q 606 457 606 554 l 606 81 q 636 36 606 36 q 686 47 656 36 l 686 24 q 633 -4 665 6 q 568 -14 601 -14 q 503 1 531 -14 q 475 51 475 17 l 475 93 q 352 9 419 32 q 221 -14 285 -14 m 285 42 q 392 75 336 42 q 474 151 449 108 l 474 350 q 248 266 326 321 q 169 143 169 211 q 200 67 169 93 q 285 42 231 42 z "},"ą":{"ha":703,"x_min":40,"x_max":686,"o":"m 594 -12 q 544 -74 563 -40 q 526 -140 526 -107 q 549 -199 526 -179 q 610 -218 572 -218 q 674 -204 636 -218 l 682 -232 q 572 -265 633 -265 q 472 -230 503 -265 q 442 -151 442 -194 q 466 -74 442 -110 q 532 -10 490 -37 q 475 51 475 3 l 475 93 q 352 9 419 32 q 221 -14 285 -14 q 88 26 136 -14 q 40 133 40 65 q 147 300 40 235 q 474 396 253 365 l 474 468 q 429 575 474 539 q 311 611 385 611 q 214 590 258 611 q 169 546 169 569 q 172 525 169 538 q 175 506 175 513 q 163 469 175 485 q 122 454 150 454 q 83 472 99 454 q 67 521 67 489 q 146 628 67 590 q 339 667 225 667 q 536 610 467 667 q 606 457 606 554 l 606 81 q 636 36 606 36 q 686 47 656 36 l 686 24 q 594 -12 650 -6 m 474 350 q 248 266 326 321 q 169 143 169 211 q 200 67 169 93 q 285 42 231 42 q 392 75 336 42 q 474 151 449 108 l 474 350 z "},"å":{"ha":703,"x_min":40,"x_max":686,"o":"m 351 757 q 256 791 293 757 q 219 881 219 825 q 256 970 219 936 q 351 1004 293 1004 q 444 970 408 1004 q 481 881 481 936 q 444 791 481 825 q 351 757 408 757 m 351 807 q 404 827 383 807 q 425 881 425 847 q 404 935 425 914 q 351 956 383 956 q 299 935 319 956 q 278 881 278 915 q 299 827 278 847 q 351 807 319 807 m 221 -14 q 88 26 136 -14 q 40 133 40 65 q 147 300 40 235 q 474 396 253 365 l 474 468 q 429 575 474 539 q 311 611 385 611 q 214 590 258 611 q 169 546 169 569 q 172 525 169 538 q 175 506 175 513 q 163 469 175 485 q 122 454 150 454 q 83 472 99 454 q 67 521 67 489 q 146 628 67 590 q 339 667 225 667 q 536 610 467 667 q 606 457 606 554 l 606 81 q 636 36 606 36 q 686 47 656 36 l 686 24 q 633 -4 665 6 q 568 -14 601 -14 q 503 1 531 -14 q 475 51 475 17 l 475 93 q 352 9 419 32 q 221 -14 285 -14 m 285 42 q 392 75 336 42 q 474 151 449 108 l 474 350 q 248 266 326 321 q 169 143 169 211 q 200 67 169 93 q 285 42 231 42 z "},"ǻ":{"ha":703,"x_min":40,"x_max":686,"o":"m 218 1079 l 378 1228 q 396 1244 379 1229 q 439 1260 413 1260 q 474 1247 461 1260 q 486 1218 486 1235 q 439 1160 486 1186 l 242 1044 l 218 1079 m 351 757 q 256 791 293 757 q 219 881 219 825 q 256 970 219 936 q 351 1004 293 1004 q 444 970 408 1004 q 481 881 481 936 q 444 791 481 825 q 351 757 408 757 m 351 807 q 404 827 383 807 q 425 881 425 847 q 404 935 425 914 q 351 956 383 956 q 299 935 319 956 q 278 881 278 915 q 299 827 278 847 q 351 807 319 807 m 221 -14 q 88 26 136 -14 q 40 133 40 65 q 147 300 40 235 q 474 396 253 365 l 474 468 q 429 575 474 539 q 311 611 385 611 q 214 590 258 611 q 169 546 169 569 q 172 525 169 538 q 175 506 175 513 q 163 469 175 485 q 122 454 150 454 q 83 472 99 454 q 67 521 67 489 q 146 628 67 590 q 339 667 225 667 q 536 610 467 667 q 606 457 606 554 l 606 81 q 636 36 606 36 q 686 47 656 36 l 686 24 q 633 -4 665 6 q 568 -14 601 -14 q 503 1 531 -14 q 475 51 475 17 l 475 93 q 352 9 419 32 q 221 -14 285 -14 m 285 42 q 392 75 336 42 q 474 151 449 108 l 474 350 q 248 266 326 321 q 169 143 169 211 q 200 67 169 93 q 285 42 231 42 z "},"ã":{"ha":703,"x_min":40,"x_max":686,"o":"m 118 776 q 167 872 132 835 q 256 910 203 910 q 302 901 279 910 q 364 872 325 892 q 422 845 399 854 q 467 836 444 836 q 520 857 500 836 q 558 922 540 878 l 588 907 q 539 807 574 846 q 449 768 504 768 q 404 777 426 768 q 344 806 382 786 q 288 833 313 824 q 239 843 264 843 q 185 823 206 843 q 149 761 164 803 l 118 776 m 221 -14 q 88 26 136 -14 q 40 133 40 65 q 147 300 40 235 q 474 396 253 365 l 474 468 q 429 575 474 539 q 311 611 385 611 q 214 590 258 611 q 169 546 169 569 q 172 525 169 538 q 175 506 175 513 q 163 469 175 485 q 122 454 150 454 q 83 472 99 454 q 67 521 67 489 q 146 628 67 590 q 339 667 225 667 q 536 610 467 667 q 606 457 606 554 l 606 81 q 636 36 606 36 q 686 47 656 36 l 686 24 q 633 -4 665 6 q 568 -14 601 -14 q 503 1 531 -14 q 475 51 475 17 l 475 93 q 352 9 419 32 q 221 -14 285 -14 m 285 42 q 392 75 336 42 q 474 151 449 108 l 474 350 q 248 266 326 321 q 169 143 169 211 q 200 67 169 93 q 285 42 231 42 z "},"æ":{"ha":1121,"x_min":40,"x_max":1078,"o":"m 235 -14 q 90 25 139 -14 q 40 133 40 64 q 141 297 40 232 q 450 393 242 361 q 474 481 457 439 q 425 578 469 546 q 311 611 381 611 q 214 590 258 611 q 169 546 169 569 q 172 525 169 538 q 175 506 175 513 q 162 472 175 486 q 121 457 149 457 q 82 474 97 457 q 67 521 67 490 q 146 628 67 590 q 339 667 225 667 q 467 644 411 667 q 551 579 522 621 q 782 667 635 667 q 1002 590 926 667 q 1078 390 1078 513 l 1078 358 l 579 358 q 578 325 578 347 q 640 115 578 194 q 803 36 701 36 q 954 84 894 36 q 1031 232 1014 132 l 1074 232 q 990 53 1063 121 q 786 -14 917 -14 q 625 17 694 -14 q 513 106 556 47 q 385 15 458 43 q 235 -14 311 -14 m 961 413 q 918 552 960 490 q 788 614 876 614 q 651 559 703 614 q 585 413 600 504 l 961 413 m 285 42 q 397 73 339 42 q 486 143 456 104 q 446 343 446 217 q 240 259 311 311 q 169 143 169 207 q 200 67 169 93 q 285 42 231 42 z "},"ǽ":{"ha":1121,"x_min":40,"x_max":1078,"o":"m 531 794 l 690 943 q 708 960 692 944 q 751 975 725 975 q 786 963 774 975 q 799 933 799 950 q 751 875 799 901 l 554 760 l 531 794 m 235 -14 q 90 25 139 -14 q 40 133 40 64 q 141 297 40 232 q 450 393 242 361 q 474 481 457 439 q 425 578 469 546 q 311 611 381 611 q 214 590 258 611 q 169 546 169 569 q 172 525 169 538 q 175 506 175 513 q 162 472 175 486 q 121 457 149 457 q 82 474 97 457 q 67 521 67 490 q 146 628 67 590 q 339 667 225 667 q 467 644 411 667 q 551 579 522 621 q 782 667 635 667 q 1002 590 926 667 q 1078 390 1078 513 l 1078 358 l 579 358 q 578 325 578 347 q 640 115 578 194 q 803 36 701 36 q 954 84 894 36 q 1031 232 1014 132 l 1074 232 q 990 53 1063 121 q 786 -14 917 -14 q 625 17 694 -14 q 513 106 556 47 q 385 15 458 43 q 235 -14 311 -14 m 961 413 q 918 552 960 490 q 788 614 876 614 q 651 559 703 614 q 585 413 600 504 l 961 413 m 285 42 q 397 73 339 42 q 486 143 456 104 q 446 343 446 217 q 240 259 311 311 q 169 143 169 207 q 200 67 169 93 q 285 42 231 42 z "},"b":{"ha":810,"x_min":32,"x_max":763,"o":"m 450 -14 q 300 15 361 -14 q 210 96 239 44 l 174 0 l 111 0 l 111 883 q 83 913 111 913 q 42 901 69 913 l 32 933 l 207 996 l 242 996 l 242 554 q 338 638 275 610 q 464 667 400 667 q 682 581 601 667 q 763 336 763 496 q 681 67 763 149 q 450 -14 600 -14 m 432 39 q 586 117 539 39 q 633 329 633 196 q 425 611 633 611 q 339 588 382 611 q 269 522 296 564 q 242 425 242 479 l 242 240 q 265 143 242 189 q 331 68 288 97 q 432 39 374 39 z "},"c":{"ha":707,"x_min":39,"x_max":658,"o":"m 375 -14 q 127 74 215 -14 q 39 326 39 163 q 128 576 39 485 q 378 667 218 667 q 506 647 444 667 q 606 581 567 628 l 619 667 l 654 667 l 654 436 l 621 436 q 552 569 607 525 q 414 614 497 614 q 234 534 297 614 q 171 325 171 454 q 231 115 171 194 q 392 36 292 36 q 542 84 483 36 q 617 232 600 132 l 658 232 q 576 53 647 121 q 375 -14 506 -14 z "},"ć":{"ha":707,"x_min":39,"x_max":658,"o":"m 285 794 l 444 943 q 463 960 446 944 q 506 975 479 975 q 540 963 528 975 q 553 933 553 950 q 506 875 553 901 l 308 760 l 285 794 m 375 -14 q 127 74 215 -14 q 39 326 39 163 q 128 576 39 485 q 378 667 218 667 q 506 647 444 667 q 606 581 567 628 l 619 667 l 654 667 l 654 436 l 621 436 q 552 569 607 525 q 414 614 497 614 q 234 534 297 614 q 171 325 171 454 q 231 115 171 194 q 392 36 292 36 q 542 84 483 36 q 617 232 600 132 l 658 232 q 576 53 647 121 q 375 -14 506 -14 z "},"č":{"ha":707,"x_min":39,"x_max":658,"o":"m 163 939 l 189 968 l 339 850 q 372 835 361 835 q 404 850 386 835 l 554 968 l 581 939 l 408 760 l 335 760 l 163 939 m 375 -14 q 127 74 215 -14 q 39 326 39 163 q 128 576 39 485 q 378 667 218 667 q 506 647 444 667 q 606 581 567 628 l 619 667 l 654 667 l 654 436 l 621 436 q 552 569 607 525 q 414 614 497 614 q 234 534 297 614 q 171 325 171 454 q 231 115 171 194 q 392 36 292 36 q 542 84 483 36 q 617 232 600 132 l 658 232 q 576 53 647 121 q 375 -14 506 -14 z "},"ç":{"ha":707,"x_min":39,"x_max":658,"o":"m 658 232 q 578 55 647 122 q 383 -14 510 -12 l 346 -85 q 444 -108 401 -85 q 488 -183 488 -131 q 432 -278 488 -250 q 294 -306 376 -306 q 226 -299 264 -306 l 235 -258 q 278 -261 247 -261 q 400 -186 400 -261 q 363 -142 400 -154 q 285 -131 326 -131 l 268 -108 l 324 -11 q 113 90 188 3 q 39 326 39 176 q 128 576 39 485 q 378 667 218 667 q 506 647 444 667 q 606 581 567 628 l 619 667 l 654 667 l 654 436 l 621 436 q 552 569 607 525 q 414 614 497 614 q 234 534 297 614 q 171 325 171 454 q 231 115 171 194 q 392 36 292 36 q 542 84 483 36 q 617 232 600 132 l 658 232 z "},"ĉ":{"ha":707,"x_min":39,"x_max":658,"o":"m 167 789 l 339 968 l 413 968 l 585 789 l 558 760 l 408 879 q 376 894 386 894 q 343 879 364 894 l 193 760 l 167 789 m 375 -14 q 127 74 215 -14 q 39 326 39 163 q 128 576 39 485 q 378 667 218 667 q 506 647 444 667 q 606 581 567 628 l 619 667 l 654 667 l 654 436 l 621 436 q 552 569 607 525 q 414 614 497 614 q 234 534 297 614 q 171 325 171 454 q 231 115 171 194 q 392 36 292 36 q 542 84 483 36 q 617 232 600 132 l 658 232 q 576 53 647 121 q 375 -14 506 -14 z "},"ċ":{"ha":707,"x_min":39,"x_max":658,"o":"m 383 757 q 336 775 354 757 q 318 821 318 793 q 335 868 318 850 q 383 886 353 886 q 430 868 413 886 q 447 821 447 850 q 430 775 447 793 q 383 757 413 757 m 375 -14 q 127 74 215 -14 q 39 326 39 163 q 128 576 39 485 q 378 667 218 667 q 506 647 444 667 q 606 581 567 628 l 619 667 l 654 667 l 654 436 l 621 436 q 552 569 607 525 q 414 614 497 614 q 234 534 297 614 q 171 325 171 454 q 231 115 171 194 q 392 36 292 36 q 542 84 483 36 q 617 232 600 132 l 658 232 q 576 53 647 121 q 375 -14 506 -14 z "},"d":{"ha":813,"x_min":43,"x_max":783,"o":"m 338 -14 q 122 71 200 -14 q 43 340 43 156 q 81 519 43 446 q 185 630 119 593 q 336 667 251 667 q 563 569 490 667 l 563 883 q 535 913 563 913 q 493 901 521 913 l 485 933 l 658 996 l 693 996 l 693 96 q 708 59 693 71 q 751 47 722 47 l 783 47 l 783 15 l 586 -6 l 579 103 q 338 -14 510 -14 m 374 39 q 475 66 432 39 q 541 138 518 93 q 564 233 564 183 l 564 444 q 537 530 564 492 q 468 590 510 568 q 382 611 426 611 q 226 541 279 611 q 172 336 172 471 q 374 39 172 39 z "},"ð":{"ha":804,"x_min":43,"x_max":743,"o":"m 488 928 q 676 681 608 819 q 743 406 743 542 q 652 97 743 207 q 378 -14 561 -14 q 195 35 271 -14 q 81 165 119 83 q 43 344 43 247 q 80 512 43 431 q 194 645 117 593 q 386 697 271 697 q 502 674 446 697 q 594 603 558 650 q 526 749 572 675 q 417 888 481 824 l 190 758 l 168 821 q 364 935 307 901 q 213 1028 294 990 l 251 1078 q 432 974 353 1035 q 579 1063 461 990 l 610 1081 l 651 1021 l 488 928 m 381 39 q 549 135 489 39 q 610 375 610 232 q 582 506 610 444 q 504 605 554 568 q 392 642 454 642 q 279 603 329 642 q 201 498 229 565 q 174 344 174 431 q 198 192 174 263 q 269 81 222 122 q 381 39 317 39 z "},"ď":{"ha":953,"x_min":43,"x_max":936,"o":"m 338 -14 q 122 71 200 -14 q 43 340 43 156 q 81 519 43 446 q 185 630 119 593 q 336 667 251 667 q 563 569 490 667 l 563 883 q 535 913 563 913 q 493 901 521 913 l 485 933 l 658 996 l 693 996 l 693 96 q 708 59 693 71 q 751 47 722 47 l 783 47 l 783 15 l 586 -6 l 579 103 q 338 -14 510 -14 m 774 693 q 847 825 847 764 q 841 852 847 842 q 822 879 835 863 q 804 905 810 894 q 799 931 799 915 q 816 974 799 957 q 863 992 833 992 q 915 968 894 992 q 936 897 936 944 q 898 775 936 835 q 797 669 860 715 l 774 693 m 374 39 q 475 66 432 39 q 541 138 518 93 q 564 233 564 183 l 564 444 q 537 530 564 492 q 468 590 510 568 q 382 611 426 611 q 226 541 279 611 q 172 336 172 471 q 374 39 172 39 z "},"đ":{"ha":813,"x_min":43,"x_max":783,"o":"m 783 47 l 783 15 l 586 -6 l 579 103 q 338 -14 510 -14 q 122 71 200 -14 q 43 340 43 156 q 81 519 43 446 q 185 630 119 593 q 336 667 251 667 q 563 569 490 667 l 563 776 l 360 776 l 360 825 l 563 825 l 563 883 q 535 913 563 913 q 493 901 521 913 l 485 933 l 658 996 l 693 996 l 693 825 l 776 825 l 776 776 l 693 776 l 693 96 q 708 59 693 71 q 751 47 722 47 l 783 47 m 564 444 q 537 530 564 492 q 468 590 510 568 q 382 611 426 611 q 226 541 279 611 q 172 336 172 471 q 374 39 172 39 q 475 66 432 39 q 541 138 518 93 q 564 233 564 183 l 564 444 z "},"ḍ":{"ha":813,"x_min":43,"x_max":783,"o":"m 43 340 q 81 519 43 446 q 185 630 119 593 q 336 667 251 667 q 563 569 490 667 l 563 883 q 535 913 563 913 q 493 901 521 913 l 485 933 l 658 996 l 693 996 l 693 96 q 708 59 693 71 q 751 47 722 47 l 783 47 l 783 15 l 586 -6 l 579 103 q 338 -14 510 -14 q 122 71 200 -14 q 43 340 43 156 m 172 336 q 374 39 172 39 q 475 66 432 39 q 541 138 518 93 q 564 233 564 183 l 564 444 q 537 530 564 492 q 468 590 510 568 q 382 611 426 611 q 226 541 279 611 q 172 336 172 471 m 336 -156 q 354 -108 336 -126 q 401 -89 372 -89 q 448 -108 431 -89 q 465 -156 465 -126 q 448 -203 465 -185 q 401 -221 431 -221 q 354 -203 372 -221 q 336 -156 336 -185 z "},"ḏ":{"ha":813,"x_min":43,"x_max":783,"o":"m 338 -14 q 122 71 200 -14 q 43 340 43 156 q 81 519 43 446 q 185 630 119 593 q 336 667 251 667 q 563 569 490 667 l 563 883 q 535 913 563 913 q 493 901 521 913 l 485 933 l 658 996 l 693 996 l 693 96 q 708 59 693 71 q 751 47 722 47 l 783 47 l 783 15 l 586 -6 l 579 103 q 338 -14 510 -14 m 374 39 q 475 66 432 39 q 541 138 518 93 q 564 233 564 183 l 564 444 q 537 530 564 492 q 468 590 510 568 q 382 611 426 611 q 226 541 279 611 q 172 336 172 471 q 374 39 172 39 m 175 -100 l 636 -100 l 636 -153 l 175 -153 l 175 -100 z "},"e":{"ha":714,"x_min":39,"x_max":671,"o":"m 172 358 q 171 325 171 347 q 233 115 171 194 q 396 36 294 36 q 547 84 488 36 q 625 232 607 132 l 665 232 q 582 53 654 121 q 379 -14 510 -14 q 128 74 218 -14 q 39 326 39 163 q 128 576 39 485 q 375 667 218 667 q 595 590 519 667 q 671 390 671 513 l 671 358 l 172 358 m 379 614 q 246 560 297 614 q 178 413 194 506 l 556 413 q 510 552 553 490 q 379 614 468 614 z "},"é":{"ha":714,"x_min":39,"x_max":671,"o":"m 276 760 l 253 794 l 413 943 q 431 960 414 944 q 474 975 447 975 q 508 963 496 975 q 521 933 521 950 q 474 875 521 901 l 276 760 m 172 358 q 171 325 171 347 q 233 115 171 194 q 396 36 294 36 q 547 84 488 36 q 625 232 607 132 l 665 232 q 582 53 654 121 q 379 -14 510 -14 q 128 74 218 -14 q 39 326 39 163 q 128 576 39 485 q 375 667 218 667 q 595 590 519 667 q 671 390 671 513 l 671 358 l 172 358 m 379 614 q 246 560 297 614 q 178 413 194 506 l 556 413 q 510 552 553 490 q 379 614 468 614 z "},"ĕ":{"ha":714,"x_min":39,"x_max":671,"o":"m 361 751 q 210 799 260 751 q 157 933 161 847 l 203 933 q 251 844 210 874 q 361 815 292 815 q 470 844 429 815 q 517 933 511 874 l 563 933 q 509 801 558 850 q 361 751 460 751 m 172 358 q 171 325 171 347 q 233 115 171 194 q 396 36 294 36 q 547 84 488 36 q 625 232 607 132 l 665 232 q 582 53 654 121 q 379 -14 510 -14 q 128 74 218 -14 q 39 326 39 163 q 128 576 39 485 q 375 667 218 667 q 595 590 519 667 q 671 390 671 513 l 671 358 l 172 358 m 379 614 q 246 560 297 614 q 178 413 194 506 l 556 413 q 510 552 553 490 q 379 614 468 614 z "},"ě":{"ha":714,"x_min":39,"x_max":671,"o":"m 335 760 l 163 939 l 189 968 l 339 850 q 372 835 361 835 q 404 850 386 835 l 554 968 l 581 939 l 408 760 l 335 760 m 172 358 q 171 325 171 347 q 233 115 171 194 q 396 36 294 36 q 547 84 488 36 q 625 232 607 132 l 665 232 q 582 53 654 121 q 379 -14 510 -14 q 128 74 218 -14 q 39 326 39 163 q 128 576 39 485 q 375 667 218 667 q 595 590 519 667 q 671 390 671 513 l 671 358 l 172 358 m 379 614 q 246 560 297 614 q 178 413 194 506 l 556 413 q 510 552 553 490 q 379 614 468 614 z "},"ê":{"ha":714,"x_min":39,"x_max":671,"o":"m 188 760 l 161 789 l 333 968 l 407 968 l 579 789 l 553 760 l 403 879 q 371 894 379 894 q 338 879 358 894 l 188 760 m 172 358 q 171 325 171 347 q 233 115 171 194 q 396 36 294 36 q 547 84 488 36 q 625 232 607 132 l 665 232 q 582 53 654 121 q 379 -14 510 -14 q 128 74 218 -14 q 39 326 39 163 q 128 576 39 485 q 375 667 218 667 q 595 590 519 667 q 671 390 671 513 l 671 358 l 172 358 m 379 614 q 246 560 297 614 q 178 413 194 506 l 556 413 q 510 552 553 490 q 379 614 468 614 z "},"ế":{"ha":714,"x_min":39,"x_max":760,"o":"m 713 1110 q 747 1097 735 1110 q 760 1067 760 1083 q 747 1035 760 1051 q 710 1007 733 1019 l 540 914 l 515 944 l 649 1074 q 713 1110 685 1110 m 201 758 l 176 789 l 346 968 l 417 968 l 586 789 l 560 758 l 413 878 q 381 893 390 893 q 342 871 369 893 l 201 758 m 375 667 q 595 590 519 667 q 671 390 671 513 l 671 358 l 172 358 q 171 325 171 347 q 233 115 171 194 q 396 36 294 36 q 547 84 488 36 q 625 232 607 132 l 665 232 q 582 53 654 121 q 379 -14 510 -14 q 128 74 218 -14 q 39 326 39 163 q 128 576 39 485 q 375 667 218 667 m 556 413 q 510 552 553 490 q 379 614 468 614 q 246 560 297 614 q 178 413 194 506 l 556 413 z "},"ệ":{"ha":714,"x_min":39,"x_max":671,"o":"m 199 760 l 172 789 l 344 968 l 418 968 l 590 789 l 564 760 l 414 879 q 382 894 390 894 q 349 879 369 894 l 199 760 m 172 358 q 171 325 171 347 q 233 115 171 194 q 396 36 294 36 q 547 84 488 36 q 625 232 607 132 l 665 232 q 582 53 654 121 q 379 -14 510 -14 q 128 74 218 -14 q 39 326 39 163 q 128 576 39 485 q 375 667 218 667 q 595 590 519 667 q 671 390 671 513 l 671 358 l 172 358 m 379 614 q 246 560 297 614 q 178 413 194 506 l 556 413 q 510 552 553 490 q 379 614 468 614 m 385 -89 q 431 -108 414 -89 q 449 -156 449 -126 q 431 -203 449 -185 q 385 -221 414 -221 q 338 -203 356 -221 q 319 -156 319 -185 q 338 -108 319 -126 q 385 -89 356 -89 z "},"ề":{"ha":714,"x_min":11,"x_max":671,"o":"m 61 1007 q 24 1035 38 1019 q 11 1067 11 1051 q 24 1097 11 1083 q 57 1110 36 1110 q 122 1074 86 1110 l 254 944 l 231 914 l 61 1007 m 176 789 l 346 968 l 417 968 l 586 789 l 560 758 l 413 878 q 381 893 390 893 q 342 871 369 893 l 201 758 l 176 789 m 172 358 q 171 325 171 347 q 233 115 171 194 q 396 36 294 36 q 547 84 488 36 q 625 232 607 132 l 665 232 q 582 53 654 121 q 379 -14 510 -14 q 128 74 218 -14 q 39 326 39 163 q 128 576 39 485 q 375 667 218 667 q 595 590 519 667 q 671 390 671 513 l 671 358 l 172 358 m 379 614 q 246 560 297 614 q 178 413 194 506 l 556 413 q 510 552 553 490 q 379 614 468 614 z "},"ể":{"ha":714,"x_min":39,"x_max":694,"o":"m 578 1150 q 660 1131 626 1150 q 694 1076 694 1113 q 678 1037 694 1053 q 629 1003 661 1021 q 594 980 606 989 q 583 960 583 971 q 593 938 583 946 q 624 921 603 929 l 611 896 q 544 913 565 896 q 524 958 524 931 q 537 990 524 976 q 575 1019 550 1003 q 613 1049 600 1036 q 625 1081 625 1063 q 614 1108 625 1097 q 583 1118 603 1118 q 552 1110 561 1118 q 533 1088 543 1103 q 520 1069 526 1075 q 501 1064 514 1064 q 481 1072 490 1064 q 472 1093 472 1081 q 505 1136 472 1122 q 578 1150 538 1150 m 201 758 l 176 789 l 346 968 l 417 968 l 586 789 l 560 758 l 413 878 q 381 893 390 893 q 336 865 367 893 l 201 758 m 375 667 q 595 590 519 667 q 671 390 671 513 l 671 358 l 172 358 q 171 325 171 347 q 233 115 171 194 q 396 36 294 36 q 547 84 488 36 q 625 232 607 132 l 665 232 q 582 53 654 121 q 379 -14 510 -14 q 128 74 218 -14 q 39 326 39 163 q 128 576 39 485 q 375 667 218 667 m 556 413 q 510 552 553 490 q 379 614 468 614 q 246 560 297 614 q 178 413 194 506 l 556 413 z "},"ễ":{"ha":714,"x_min":39,"x_max":671,"o":"m 275 1088 q 223 1067 243 1088 q 189 1004 203 1046 l 161 1021 q 206 1115 172 1078 q 290 1153 240 1153 q 336 1144 314 1153 q 393 1115 358 1135 q 449 1088 426 1097 q 492 1079 471 1079 q 544 1101 525 1079 q 578 1167 564 1122 l 607 1150 q 560 1051 593 1090 q 476 1013 528 1013 q 433 1022 454 1013 q 376 1050 413 1031 q 322 1078 344 1068 q 275 1088 299 1088 m 417 968 l 586 789 l 560 758 l 413 878 q 381 893 390 893 q 342 871 369 893 l 201 758 l 176 789 l 346 968 l 417 968 m 172 358 q 171 325 171 347 q 233 115 171 194 q 396 36 294 36 q 547 84 488 36 q 625 232 607 132 l 665 232 q 582 53 654 121 q 379 -14 510 -14 q 128 74 218 -14 q 39 326 39 163 q 128 576 39 485 q 375 667 218 667 q 595 590 519 667 q 671 390 671 513 l 671 358 l 172 358 m 379 614 q 246 560 297 614 q 178 413 194 506 l 556 413 q 510 552 553 490 q 379 614 468 614 z "},"ë":{"ha":714,"x_min":39,"x_max":671,"o":"m 222 758 q 176 776 193 758 q 158 822 158 794 q 176 870 158 851 q 222 889 193 889 q 269 870 251 889 q 288 822 288 851 q 270 776 288 794 q 222 758 253 758 m 522 758 q 475 776 493 758 q 457 822 457 794 q 475 870 457 851 q 522 889 493 889 q 569 870 551 889 q 588 822 588 851 q 570 776 588 794 q 522 758 553 758 m 172 358 q 171 325 171 347 q 233 115 171 194 q 396 36 294 36 q 547 84 488 36 q 625 232 607 132 l 665 232 q 582 53 654 121 q 379 -14 510 -14 q 128 74 218 -14 q 39 326 39 163 q 128 576 39 485 q 375 667 218 667 q 595 590 519 667 q 671 390 671 513 l 671 358 l 172 358 m 379 614 q 246 560 297 614 q 178 413 194 506 l 556 413 q 510 552 553 490 q 379 614 468 614 z "},"ė":{"ha":714,"x_min":39,"x_max":671,"o":"m 376 757 q 329 775 347 757 q 311 821 311 793 q 328 868 311 850 q 376 886 346 886 q 423 868 406 886 q 440 821 440 850 q 423 775 440 793 q 376 757 406 757 m 172 358 q 171 325 171 347 q 233 115 171 194 q 396 36 294 36 q 547 84 488 36 q 625 232 607 132 l 665 232 q 582 53 654 121 q 379 -14 510 -14 q 128 74 218 -14 q 39 326 39 163 q 128 576 39 485 q 375 667 218 667 q 595 590 519 667 q 671 390 671 513 l 671 358 l 172 358 m 379 614 q 246 560 297 614 q 178 413 194 506 l 556 413 q 510 552 553 490 q 379 614 468 614 z "},"ẹ":{"ha":714,"x_min":39,"x_max":671,"o":"m 172 358 q 171 325 171 347 q 233 115 171 194 q 396 36 294 36 q 547 84 488 36 q 625 232 607 132 l 665 232 q 582 53 654 121 q 379 -14 510 -14 q 128 74 218 -14 q 39 326 39 163 q 128 576 39 485 q 375 667 218 667 q 595 590 519 667 q 671 390 671 513 l 671 358 l 172 358 m 379 614 q 246 560 297 614 q 178 413 194 506 l 556 413 q 510 552 553 490 q 379 614 468 614 m 375 -89 q 422 -108 404 -89 q 439 -156 439 -126 q 422 -203 439 -185 q 375 -221 404 -221 q 328 -203 346 -221 q 310 -156 310 -185 q 328 -108 310 -126 q 375 -89 346 -89 z "},"è":{"ha":714,"x_min":39,"x_max":671,"o":"m 281 875 q 238 935 238 900 q 249 963 238 951 q 282 975 261 975 q 344 942 311 975 l 504 794 l 479 760 l 281 875 m 172 358 q 171 325 171 347 q 233 115 171 194 q 396 36 294 36 q 547 84 488 36 q 625 232 607 132 l 665 232 q 582 53 654 121 q 379 -14 510 -14 q 128 74 218 -14 q 39 326 39 163 q 128 576 39 485 q 375 667 218 667 q 595 590 519 667 q 671 390 671 513 l 671 358 l 172 358 m 379 614 q 246 560 297 614 q 178 413 194 506 l 556 413 q 510 552 553 490 q 379 614 468 614 z "},"ẻ":{"ha":714,"x_min":39,"x_max":671,"o":"m 307 950 q 275 985 275 950 q 310 1037 275 1018 q 397 1056 346 1056 q 488 1033 454 1056 q 521 967 521 1010 q 503 922 521 940 q 449 882 485 904 q 410 854 422 865 q 397 829 397 843 q 408 804 397 813 q 440 788 418 796 l 428 760 q 355 779 378 760 q 332 829 332 799 q 345 865 332 850 q 389 901 358 879 q 431 935 417 921 q 446 971 446 950 q 433 1002 446 989 q 399 1015 419 1015 q 366 1008 381 1015 q 346 988 351 1001 q 342 974 344 985 q 330 957 339 964 q 307 950 321 950 m 172 358 q 171 325 171 347 q 233 115 171 194 q 396 36 294 36 q 547 84 488 36 q 625 232 607 132 l 665 232 q 582 53 654 121 q 379 -14 510 -14 q 128 74 218 -14 q 39 326 39 163 q 128 576 39 485 q 375 667 218 667 q 595 590 519 667 q 671 390 671 513 l 671 358 l 172 358 m 379 614 q 246 560 297 614 q 178 413 194 506 l 556 413 q 510 552 553 490 q 379 614 468 614 z "},"ē":{"ha":714,"x_min":39,"x_max":671,"o":"m 596 760 l 133 760 l 133 818 l 596 818 l 596 760 m 172 358 q 171 325 171 347 q 233 115 171 194 q 396 36 294 36 q 547 84 488 36 q 625 232 607 132 l 665 232 q 582 53 654 121 q 379 -14 510 -14 q 128 74 218 -14 q 39 326 39 163 q 128 576 39 485 q 375 667 218 667 q 595 590 519 667 q 671 390 671 513 l 671 358 l 172 358 m 379 614 q 246 560 297 614 q 178 413 194 506 l 556 413 q 510 552 553 490 q 379 614 468 614 z "},"ę":{"ha":714,"x_min":39,"x_max":671,"o":"m 172 358 q 171 325 171 347 q 233 115 171 194 q 396 36 294 36 q 547 84 488 36 q 625 232 607 132 l 665 232 q 628 110 658 164 q 543 25 597 57 q 481 -97 481 -31 q 503 -156 481 -136 q 564 -175 526 -175 q 628 -161 590 -175 l 636 -189 q 526 -222 588 -222 q 426 -187 457 -222 q 396 -108 396 -151 q 436 -10 396 -57 q 379 -14 410 -14 q 128 74 218 -14 q 39 326 39 163 q 128 576 39 485 q 375 667 218 667 q 595 590 519 667 q 671 390 671 513 l 671 358 l 172 358 m 379 614 q 246 560 297 614 q 178 413 194 506 l 556 413 q 510 552 553 490 q 379 614 468 614 z "},"ẽ":{"ha":714,"x_min":39,"x_max":671,"o":"m 257 839 q 203 819 224 839 q 167 757 182 799 l 136 772 q 185 868 150 831 q 274 906 221 906 q 320 897 297 906 q 382 868 343 888 q 440 841 417 850 q 485 832 463 832 q 538 853 518 832 q 576 918 558 874 l 606 903 q 557 803 592 842 q 467 764 522 764 q 422 773 444 764 q 363 801 400 782 q 306 829 331 819 q 257 839 282 839 m 172 358 q 171 325 171 347 q 233 115 171 194 q 396 36 294 36 q 547 84 488 36 q 625 232 607 132 l 665 232 q 582 53 654 121 q 379 -14 510 -14 q 128 74 218 -14 q 39 326 39 163 q 128 576 39 485 q 375 667 218 667 q 595 590 519 667 q 671 390 671 513 l 671 358 l 172 358 m 379 614 q 246 560 297 614 q 178 413 194 506 l 556 413 q 510 552 553 490 q 379 614 468 614 z "},"f":{"ha":556,"x_min":31,"x_max":578,"o":"m 374 1003 q 526 965 475 1003 q 578 863 578 928 q 562 816 578 831 q 522 801 546 801 q 483 813 497 801 q 469 846 469 825 q 477 871 469 857 q 485 892 485 885 q 456 934 485 918 q 393 950 428 950 q 285 811 285 950 l 285 653 l 483 653 l 483 599 l 285 599 l 285 79 q 305 46 285 57 q 358 35 325 35 l 386 35 l 386 0 l 54 0 l 54 35 l 81 35 q 135 46 114 35 q 156 79 156 57 l 156 599 l 31 599 l 31 653 l 156 653 l 156 800 q 213 951 156 899 q 374 1003 271 1003 z "},"g":{"ha":703,"x_min":38,"x_max":733,"o":"m 646 667 q 709 650 685 667 q 733 610 733 633 q 722 575 733 588 q 688 563 710 563 q 665 568 672 563 q 650 585 657 574 q 633 603 642 597 q 606 610 624 610 q 551 592 585 610 q 608 447 608 538 q 533 286 608 343 q 325 229 458 229 q 176 254 239 229 q 135 190 135 224 q 160 147 135 164 q 231 131 185 131 l 454 131 q 595 94 539 131 q 651 -17 651 57 q 563 -165 651 -114 q 319 -217 474 -217 q 113 -174 189 -217 q 38 -53 38 -132 q 142 68 38 29 q 74 107 96 81 q 53 165 53 133 q 132 276 53 225 q 67 349 90 306 q 44 447 44 392 q 119 608 44 550 q 325 667 194 667 q 518 618 446 667 q 646 667 575 667 m 325 281 q 440 327 401 281 q 479 447 479 374 q 440 567 479 521 q 325 614 401 614 q 212 567 250 614 q 174 447 174 521 q 212 327 174 374 q 325 281 250 281 m 207 47 q 149 2 167 32 q 132 -54 132 -28 q 185 -138 132 -110 q 325 -167 238 -167 q 481 -133 424 -167 q 538 -39 538 -100 q 508 26 538 6 q 408 47 478 47 l 207 47 z "},"ğ":{"ha":703,"x_min":38,"x_max":733,"o":"m 332 751 q 181 799 231 751 q 128 933 132 847 l 174 933 q 222 844 181 874 q 332 815 263 815 q 441 844 400 815 q 488 933 482 874 l 533 933 q 480 801 529 850 q 332 751 431 751 m 646 667 q 709 650 685 667 q 733 610 733 633 q 722 575 733 588 q 688 563 710 563 q 665 568 672 563 q 650 585 657 574 q 633 603 642 597 q 606 610 624 610 q 551 592 585 610 q 608 447 608 538 q 533 286 608 343 q 325 229 458 229 q 176 254 239 229 q 135 190 135 224 q 160 147 135 164 q 231 131 185 131 l 454 131 q 595 94 539 131 q 651 -17 651 57 q 563 -165 651 -114 q 319 -217 474 -217 q 113 -174 189 -217 q 38 -53 38 -132 q 142 68 38 29 q 74 107 96 81 q 53 165 53 133 q 132 276 53 225 q 67 349 90 306 q 44 447 44 392 q 119 608 44 550 q 325 667 194 667 q 518 618 446 667 q 646 667 575 667 m 325 281 q 440 327 401 281 q 479 447 479 374 q 440 567 479 521 q 325 614 401 614 q 212 567 250 614 q 174 447 174 521 q 212 327 174 374 q 325 281 250 281 m 207 47 q 149 2 167 32 q 132 -54 132 -28 q 185 -138 132 -110 q 325 -167 238 -167 q 481 -133 424 -167 q 538 -39 538 -100 q 508 26 538 6 q 408 47 478 47 l 207 47 z "},"ǧ":{"ha":703,"x_min":38,"x_max":733,"o":"m 303 760 l 131 939 l 157 968 l 307 850 q 340 835 329 835 q 372 850 354 835 l 522 968 l 549 939 l 376 760 l 303 760 m 646 667 q 709 650 685 667 q 733 610 733 633 q 722 575 733 588 q 688 563 710 563 q 665 568 672 563 q 650 585 657 574 q 633 603 642 597 q 606 610 624 610 q 551 592 585 610 q 608 447 608 538 q 533 286 608 343 q 325 229 458 229 q 176 254 239 229 q 135 190 135 224 q 160 147 135 164 q 231 131 185 131 l 454 131 q 595 94 539 131 q 651 -17 651 57 q 563 -165 651 -114 q 319 -217 474 -217 q 113 -174 189 -217 q 38 -53 38 -132 q 142 68 38 29 q 74 107 96 81 q 53 165 53 133 q 132 276 53 225 q 67 349 90 306 q 44 447 44 392 q 119 608 44 550 q 325 667 194 667 q 518 618 446 667 q 646 667 575 667 m 325 281 q 440 327 401 281 q 479 447 479 374 q 440 567 479 521 q 325 614 401 614 q 212 567 250 614 q 174 447 174 521 q 212 327 174 374 q 325 281 250 281 m 207 47 q 149 2 167 32 q 132 -54 132 -28 q 185 -138 132 -110 q 325 -167 238 -167 q 481 -133 424 -167 q 538 -39 538 -100 q 508 26 538 6 q 408 47 478 47 l 207 47 z "},"ĝ":{"ha":703,"x_min":38,"x_max":733,"o":"m 157 760 l 131 789 l 303 968 l 376 968 l 549 789 l 522 760 l 372 879 q 340 894 349 894 q 307 879 328 894 l 157 760 m 646 667 q 709 650 685 667 q 733 610 733 633 q 722 575 733 588 q 688 563 710 563 q 665 568 672 563 q 650 585 657 574 q 633 603 642 597 q 606 610 624 610 q 551 592 585 610 q 608 447 608 538 q 533 286 608 343 q 325 229 458 229 q 176 254 239 229 q 135 190 135 224 q 160 147 135 164 q 231 131 185 131 l 454 131 q 595 94 539 131 q 651 -17 651 57 q 563 -165 651 -114 q 319 -217 474 -217 q 113 -174 189 -217 q 38 -53 38 -132 q 142 68 38 29 q 74 107 96 81 q 53 165 53 133 q 132 276 53 225 q 67 349 90 306 q 44 447 44 392 q 119 608 44 550 q 325 667 194 667 q 518 618 446 667 q 646 667 575 667 m 325 281 q 440 327 401 281 q 479 447 479 374 q 440 567 479 521 q 325 614 401 614 q 212 567 250 614 q 174 447 174 521 q 212 327 174 374 q 325 281 250 281 m 207 47 q 149 2 167 32 q 132 -54 132 -28 q 185 -138 132 -110 q 325 -167 238 -167 q 481 -133 424 -167 q 538 -39 538 -100 q 508 26 538 6 q 408 47 478 47 l 207 47 z "},"ģ":{"ha":703,"x_min":38,"x_max":733,"o":"m 338 758 q 285 782 306 758 q 264 853 264 806 q 302 975 264 915 q 403 1081 340 1035 l 426 1057 q 353 925 353 986 q 359 898 353 908 q 378 871 365 888 q 396 845 390 856 q 401 819 401 835 q 384 776 401 793 q 338 758 367 758 m 646 667 q 709 650 685 667 q 733 610 733 633 q 722 575 733 588 q 688 563 710 563 q 665 568 672 563 q 650 585 657 574 q 633 603 642 597 q 606 610 624 610 q 551 592 585 610 q 608 447 608 538 q 533 286 608 343 q 325 229 458 229 q 176 254 239 229 q 135 190 135 224 q 160 147 135 164 q 231 131 185 131 l 454 131 q 595 94 539 131 q 651 -17 651 57 q 563 -165 651 -114 q 319 -217 474 -217 q 113 -174 189 -217 q 38 -53 38 -132 q 142 68 38 29 q 74 107 96 81 q 53 165 53 133 q 132 276 53 225 q 67 349 90 306 q 44 447 44 392 q 119 608 44 550 q 325 667 194 667 q 518 618 446 667 q 646 667 575 667 m 325 281 q 440 327 401 281 q 479 447 479 374 q 440 567 479 521 q 325 614 401 614 q 212 567 250 614 q 174 447 174 521 q 212 327 174 374 q 325 281 250 281 m 207 47 q 149 2 167 32 q 132 -54 132 -28 q 185 -138 132 -110 q 325 -167 238 -167 q 481 -133 424 -167 q 538 -39 538 -100 q 508 26 538 6 q 408 47 478 47 l 207 47 z "},"ġ":{"ha":703,"x_min":38,"x_max":733,"o":"m 336 757 q 289 775 307 757 q 271 821 271 793 q 288 868 271 850 q 336 886 306 886 q 383 868 365 886 q 400 821 400 850 q 383 775 400 793 q 336 757 365 757 m 646 667 q 709 650 685 667 q 733 610 733 633 q 722 575 733 588 q 688 563 710 563 q 665 568 672 563 q 650 585 657 574 q 633 603 642 597 q 606 610 624 610 q 551 592 585 610 q 608 447 608 538 q 533 286 608 343 q 325 229 458 229 q 176 254 239 229 q 135 190 135 224 q 160 147 135 164 q 231 131 185 131 l 454 131 q 595 94 539 131 q 651 -17 651 57 q 563 -165 651 -114 q 319 -217 474 -217 q 113 -174 189 -217 q 38 -53 38 -132 q 142 68 38 29 q 74 107 96 81 q 53 165 53 133 q 132 276 53 225 q 67 349 90 306 q 44 447 44 392 q 119 608 44 550 q 325 667 194 667 q 518 618 446 667 q 646 667 575 667 m 325 281 q 440 327 401 281 q 479 447 479 374 q 440 567 479 521 q 325 614 401 614 q 212 567 250 614 q 174 447 174 521 q 212 327 174 374 q 325 281 250 281 m 207 47 q 149 2 167 32 q 132 -54 132 -28 q 185 -138 132 -110 q 325 -167 238 -167 q 481 -133 424 -167 q 538 -39 538 -100 q 508 26 538 6 q 408 47 478 47 l 207 47 z "},"ḡ":{"ha":703,"x_min":38,"x_max":733,"o":"m 574 760 l 111 760 l 111 818 l 574 818 l 574 760 m 646 667 q 709 650 685 667 q 733 610 733 633 q 722 575 733 588 q 688 563 710 563 q 665 568 672 563 q 650 585 657 574 q 633 603 642 597 q 606 610 624 610 q 551 592 585 610 q 608 447 608 538 q 533 286 608 343 q 325 229 458 229 q 176 254 239 229 q 135 190 135 224 q 160 147 135 164 q 231 131 185 131 l 454 131 q 595 94 539 131 q 651 -17 651 57 q 563 -165 651 -114 q 319 -217 474 -217 q 113 -174 189 -217 q 38 -53 38 -132 q 142 68 38 29 q 74 107 96 81 q 53 165 53 133 q 132 276 53 225 q 67 349 90 306 q 44 447 44 392 q 119 608 44 550 q 325 667 194 667 q 518 618 446 667 q 646 667 575 667 m 325 281 q 440 327 401 281 q 479 447 479 374 q 440 567 479 521 q 325 614 401 614 q 212 567 250 614 q 174 447 174 521 q 212 327 174 374 q 325 281 250 281 m 207 47 q 149 2 167 32 q 132 -54 132 -28 q 185 -138 132 -110 q 325 -167 238 -167 q 481 -133 424 -167 q 538 -39 538 -100 q 508 26 538 6 q 408 47 478 47 l 207 47 z "},"h":{"ha":864,"x_min":31,"x_max":833,"o":"m 833 35 l 833 0 l 510 0 l 510 35 l 532 35 q 583 46 564 35 q 603 79 603 57 l 603 461 q 565 572 603 535 q 458 610 528 610 q 365 585 410 610 q 290 513 319 561 q 261 396 261 464 l 261 79 q 281 46 261 57 q 333 35 301 35 l 354 35 l 354 0 l 31 0 l 31 35 l 57 35 q 110 46 90 35 q 131 79 131 57 l 131 883 q 101 913 131 913 q 61 901 89 913 l 51 933 l 226 996 l 261 996 l 261 549 q 355 633 292 599 q 496 667 418 667 q 672 615 611 667 q 733 478 733 564 l 733 79 q 754 46 733 57 q 808 35 775 35 l 833 35 z "},"ħ":{"ha":864,"x_min":31,"x_max":833,"o":"m 833 35 l 833 0 l 510 0 l 510 35 l 532 35 q 583 46 564 35 q 603 79 603 57 l 603 461 q 565 572 603 535 q 458 610 528 610 q 365 585 410 610 q 290 513 319 561 q 261 396 261 464 l 261 79 q 281 46 261 57 q 333 35 301 35 l 354 35 l 354 0 l 31 0 l 31 35 l 57 35 q 110 46 90 35 q 131 79 131 57 l 131 776 l 56 776 l 56 825 l 131 825 l 131 883 q 101 913 131 913 q 61 901 89 913 l 51 933 l 226 996 l 261 996 l 261 825 l 471 825 l 471 776 l 261 776 l 261 549 q 355 633 292 599 q 496 667 418 667 q 672 615 611 667 q 733 478 733 564 l 733 79 q 754 46 733 57 q 808 35 775 35 l 833 35 z "},"ḫ":{"ha":864,"x_min":31,"x_max":833,"o":"m 833 35 l 833 0 l 510 0 l 510 35 l 532 35 q 583 46 564 35 q 603 79 603 57 l 603 461 q 565 572 603 535 q 458 610 528 610 q 365 585 410 610 q 290 513 319 561 q 261 396 261 464 l 261 79 q 281 46 261 57 q 333 35 301 35 l 354 35 l 354 0 l 31 0 l 31 35 l 57 35 q 110 46 90 35 q 131 79 131 57 l 131 883 q 101 913 131 913 q 61 901 89 913 l 51 933 l 226 996 l 261 996 l 261 549 q 355 633 292 599 q 496 667 418 667 q 672 615 611 667 q 733 478 733 564 l 733 79 q 754 46 733 57 q 808 35 775 35 l 833 35 m 442 -190 q 551 -161 510 -190 q 597 -74 592 -132 l 643 -74 q 590 -206 639 -157 q 442 -254 540 -254 q 291 -206 340 -254 q 238 -74 242 -158 l 283 -74 q 332 -161 290 -132 q 442 -190 374 -190 z "},"ĥ":{"ha":864,"x_min":31,"x_max":833,"o":"m 275 1086 l 249 1115 l 421 1294 l 494 1294 l 667 1115 l 640 1086 l 490 1206 q 458 1221 467 1221 q 425 1206 446 1221 l 275 1086 m 833 35 l 833 0 l 510 0 l 510 35 l 532 35 q 583 46 564 35 q 603 79 603 57 l 603 461 q 565 572 603 535 q 458 610 528 610 q 365 585 410 610 q 290 513 319 561 q 261 396 261 464 l 261 79 q 281 46 261 57 q 333 35 301 35 l 354 35 l 354 0 l 31 0 l 31 35 l 57 35 q 110 46 90 35 q 131 79 131 57 l 131 883 q 101 913 131 913 q 61 901 89 913 l 51 933 l 226 996 l 261 996 l 261 549 q 355 633 292 599 q 496 667 418 667 q 672 615 611 667 q 733 478 733 564 l 733 79 q 754 46 733 57 q 808 35 775 35 l 833 35 z "},"ḥ":{"ha":864,"x_min":31,"x_max":833,"o":"m 833 35 l 833 0 l 510 0 l 510 35 l 532 35 q 583 46 564 35 q 603 79 603 57 l 603 461 q 565 572 603 535 q 458 610 528 610 q 365 585 410 610 q 290 513 319 561 q 261 396 261 464 l 261 79 q 281 46 261 57 q 333 35 301 35 l 354 35 l 354 0 l 31 0 l 31 35 l 57 35 q 110 46 90 35 q 131 79 131 57 l 131 883 q 101 913 131 913 q 61 901 89 913 l 51 933 l 226 996 l 261 996 l 261 549 q 355 633 292 599 q 496 667 418 667 q 672 615 611 667 q 733 478 733 564 l 733 79 q 754 46 733 57 q 808 35 775 35 l 833 35 m 443 -89 q 490 -108 472 -89 q 507 -156 507 -126 q 490 -203 507 -185 q 443 -221 472 -221 q 396 -203 414 -221 q 378 -156 378 -185 q 396 -108 378 -126 q 443 -89 414 -89 z "},"i":{"ha":407,"x_min":38,"x_max":368,"o":"m 192 779 q 134 801 156 779 q 113 856 113 822 q 134 911 113 890 q 192 932 156 932 q 248 911 226 932 q 269 856 269 890 q 248 801 269 822 q 192 779 226 779 m 38 35 l 64 35 q 117 46 97 35 q 138 79 138 57 l 138 547 q 108 578 138 578 q 88 573 101 578 q 68 567 74 568 l 58 599 l 233 660 l 268 660 l 268 79 q 288 46 268 57 q 342 35 308 35 l 368 35 l 368 0 l 38 0 l 38 35 z "},"ı":{"ha":428,"x_min":49,"x_max":379,"o":"m 49 35 l 74 35 q 128 46 107 35 q 149 79 149 57 l 149 547 q 119 578 149 578 q 98 573 111 578 q 79 567 85 568 l 68 599 l 243 660 l 279 660 l 279 79 q 299 46 279 57 q 353 35 319 35 l 379 35 l 379 0 l 49 0 l 49 35 z "},"í":{"ha":428,"x_min":49,"x_max":379,"o":"m 79 794 l 239 943 q 257 960 240 944 q 300 975 274 975 q 335 963 322 975 q 347 933 347 950 q 300 875 347 901 l 103 760 l 79 794 m 49 35 l 74 35 q 128 46 107 35 q 149 79 149 57 l 149 547 q 119 578 149 578 q 98 573 111 578 q 79 567 85 568 l 68 599 l 243 660 l 279 660 l 279 79 q 299 46 279 57 q 353 35 319 35 l 379 35 l 379 0 l 49 0 l 49 35 z "},"ĭ":{"ha":428,"x_min":10,"x_max":414,"o":"m 213 778 q 62 826 111 778 q 10 958 13 874 l 56 958 q 102 871 61 900 q 213 842 143 842 q 322 871 281 842 q 369 958 363 900 l 414 958 q 360 826 410 875 q 213 778 311 778 m 49 35 l 74 35 q 128 46 107 35 q 149 79 149 57 l 149 547 q 119 578 149 578 q 98 573 111 578 q 79 567 85 568 l 68 599 l 243 660 l 279 660 l 279 79 q 299 46 279 57 q 353 35 319 35 l 379 35 l 379 0 l 49 0 l 49 35 z "},"ǐ":{"ha":428,"x_min":10,"x_max":419,"o":"m 10 949 l 36 979 l 183 863 q 215 847 204 847 q 246 863 225 847 l 394 979 l 419 949 l 250 765 l 179 765 l 10 949 m 49 35 l 74 35 q 128 46 107 35 q 149 79 149 57 l 149 547 q 119 578 149 578 q 98 573 111 578 q 79 567 85 568 l 68 599 l 243 660 l 279 660 l 279 79 q 299 46 279 57 q 353 35 319 35 l 379 35 l 379 0 l 49 0 l 49 35 z "},"î":{"ha":428,"x_min":3,"x_max":421,"o":"m 3 789 l 175 968 l 249 968 l 421 789 l 394 760 l 244 879 q 213 894 222 894 q 179 879 200 894 l 29 760 l 3 789 m 49 35 l 74 35 q 128 46 107 35 q 149 79 149 57 l 149 547 q 119 578 149 578 q 98 573 111 578 q 79 567 85 568 l 68 599 l 243 660 l 279 660 l 279 79 q 299 46 279 57 q 353 35 319 35 l 379 35 l 379 0 l 49 0 l 49 35 z "},"ï":{"ha":428,"x_min":-3,"x_max":426,"o":"m 61 758 q 15 776 32 758 q -3 822 -3 794 q 15 870 -3 851 q 61 889 32 889 q 108 870 90 889 q 126 822 126 851 q 109 776 126 794 q 61 758 92 758 m 361 758 q 314 776 332 758 q 296 822 296 794 q 314 870 296 851 q 361 889 332 889 q 408 870 390 889 q 426 822 426 851 q 409 776 426 794 q 361 758 392 758 m 49 35 l 74 35 q 128 46 107 35 q 149 79 149 57 l 149 547 q 119 578 149 578 q 98 573 111 578 q 79 567 85 568 l 68 599 l 243 660 l 279 660 l 279 79 q 299 46 279 57 q 353 35 319 35 l 379 35 l 379 0 l 49 0 l 49 35 z "},"ị":{"ha":407,"x_min":38,"x_max":368,"o":"m 192 779 q 134 801 156 779 q 113 856 113 822 q 134 911 113 890 q 192 932 156 932 q 248 911 226 932 q 269 856 269 890 q 248 801 269 822 q 192 779 226 779 m 38 35 l 64 35 q 117 46 97 35 q 138 79 138 57 l 138 547 q 108 578 138 578 q 88 573 101 578 q 68 567 74 568 l 58 599 l 233 660 l 268 660 l 268 79 q 288 46 268 57 q 342 35 308 35 l 368 35 l 368 0 l 38 0 l 38 35 m 204 -221 q 157 -203 175 -221 q 139 -156 139 -185 q 157 -108 139 -126 q 204 -89 175 -89 q 251 -108 233 -89 q 268 -156 268 -126 q 251 -203 268 -185 q 204 -221 233 -221 z "},"ì":{"ha":428,"x_min":49,"x_max":379,"o":"m 124 875 q 81 935 81 900 q 92 963 81 951 q 125 975 104 975 q 188 942 154 975 l 347 794 l 322 760 l 124 875 m 49 35 l 74 35 q 128 46 107 35 q 149 79 149 57 l 149 547 q 119 578 149 578 q 98 573 111 578 q 79 567 85 568 l 68 599 l 243 660 l 279 660 l 279 79 q 299 46 279 57 q 353 35 319 35 l 379 35 l 379 0 l 49 0 l 49 35 z "},"ỉ":{"ha":428,"x_min":49,"x_max":379,"o":"m 256 760 q 183 779 206 760 q 160 829 160 799 q 173 865 160 850 q 217 901 186 879 q 259 935 244 921 q 274 971 274 950 q 260 1002 274 989 q 226 1015 247 1015 q 194 1008 208 1015 q 174 988 179 1001 q 169 974 172 985 q 158 957 167 964 q 135 950 149 950 q 103 985 103 950 q 138 1037 103 1018 q 225 1056 174 1056 q 315 1033 282 1056 q 349 967 349 1010 q 331 922 349 940 q 276 882 313 904 q 238 854 250 865 q 225 829 225 843 q 235 804 225 813 q 268 788 246 796 l 256 760 m 49 35 l 74 35 q 128 46 107 35 q 149 79 149 57 l 149 547 q 119 578 149 578 q 98 573 111 578 q 79 567 85 568 l 68 599 l 243 660 l 279 660 l 279 79 q 299 46 279 57 q 353 35 319 35 l 379 35 l 379 0 l 49 0 l 49 35 z "},"ĳ":{"ha":831,"x_min":38,"x_max":725,"o":"m 192 779 q 134 801 156 779 q 113 856 113 822 q 134 911 113 890 q 192 932 156 932 q 248 911 226 932 q 269 856 269 890 q 248 801 269 822 q 192 779 226 779 m 646 779 q 590 801 611 779 q 568 856 568 822 q 590 911 568 890 q 646 932 611 932 q 703 911 682 932 q 725 856 725 890 q 703 801 725 822 q 646 779 681 779 m 38 35 l 64 35 q 117 46 97 35 q 138 79 138 57 l 138 547 q 108 578 138 578 q 88 573 101 578 q 68 567 74 568 l 58 599 l 233 660 l 268 660 l 268 79 q 288 46 268 57 q 342 35 308 35 l 368 35 l 368 0 l 38 0 l 38 35 m 453 -153 q 543 -88 514 -128 q 580 1 572 -49 q 588 135 588 51 l 588 546 q 578 568 588 561 q 558 575 569 575 q 517 564 547 575 l 507 594 l 682 657 l 717 657 l 717 142 q 658 -78 717 1 q 460 -183 600 -158 l 453 -153 z "},"ī":{"ha":428,"x_min":-19,"x_max":443,"o":"m -19 818 l 443 818 l 443 760 l -19 760 l -19 818 m 49 35 l 74 35 q 128 46 107 35 q 149 79 149 57 l 149 547 q 119 578 149 578 q 98 573 111 578 q 79 567 85 568 l 68 599 l 243 660 l 279 660 l 279 79 q 299 46 279 57 q 353 35 319 35 l 379 35 l 379 0 l 49 0 l 49 35 z "},"į":{"ha":407,"x_min":38,"x_max":418,"o":"m 192 779 q 134 801 156 779 q 113 856 113 822 q 134 911 113 890 q 192 932 156 932 q 248 911 226 932 q 269 856 269 890 q 248 801 269 822 q 192 779 226 779 m 418 -239 q 308 -272 369 -272 q 208 -237 239 -272 q 178 -158 178 -201 q 210 -69 178 -110 q 296 0 242 -29 l 38 0 l 38 35 l 64 35 q 117 46 97 35 q 138 79 138 57 l 138 547 q 108 578 138 578 q 88 573 101 578 q 68 567 74 568 l 58 599 l 233 660 l 268 660 l 268 79 q 288 46 268 57 q 342 35 308 35 l 368 35 l 368 0 l 356 0 q 287 -70 311 -32 q 263 -147 263 -108 q 285 -206 263 -186 q 346 -225 308 -225 q 410 -211 372 -225 l 418 -239 z "},"ĩ":{"ha":428,"x_min":-22,"x_max":447,"o":"m -22 772 q 27 868 -8 831 q 115 906 63 906 q 162 897 139 906 q 224 868 185 888 q 281 841 258 850 q 326 832 304 832 q 380 853 360 832 q 418 918 400 874 l 447 903 q 399 803 433 842 q 308 764 364 764 q 264 773 286 764 q 204 801 242 782 q 148 829 172 819 q 99 839 124 839 q 44 819 65 839 q 8 757 24 799 l -22 772 m 49 35 l 74 35 q 128 46 107 35 q 149 79 149 57 l 149 547 q 119 578 149 578 q 98 573 111 578 q 79 567 85 568 l 68 599 l 243 660 l 279 660 l 279 79 q 299 46 279 57 q 353 35 319 35 l 379 35 l 379 0 l 49 0 l 49 35 z "},"j":{"ha":413,"x_min":35,"x_max":307,"o":"m 228 779 q 172 801 193 779 q 150 856 150 822 q 172 911 150 890 q 228 932 193 932 q 285 911 264 932 q 307 856 307 890 q 285 801 307 822 q 228 779 263 779 m 35 -153 q 125 -88 96 -128 q 162 1 154 -49 q 169 135 169 51 l 169 546 q 160 568 169 561 q 140 575 151 575 q 99 564 129 575 l 89 594 l 264 657 l 299 657 l 299 142 q 240 -78 299 1 q 42 -183 182 -158 l 35 -153 z "},"ȷ":{"ha":419,"x_min":43,"x_max":306,"o":"m 43 -153 q 133 -87 104 -126 q 168 1 161 -49 q 175 135 175 50 l 175 546 q 147 575 175 575 q 106 564 133 575 l 96 594 l 271 657 l 306 657 l 306 142 q 247 -78 306 1 q 49 -183 189 -158 l 43 -153 z "},"ĵ":{"ha":419,"x_min":24,"x_max":442,"o":"m 24 789 l 196 968 l 269 968 l 442 789 l 415 760 l 265 879 q 233 894 243 894 q 200 879 221 894 l 50 760 l 24 789 m 43 -153 q 133 -87 104 -126 q 168 1 161 -49 q 175 135 175 50 l 175 546 q 147 575 175 575 q 106 564 133 575 l 96 594 l 271 657 l 306 657 l 306 142 q 247 -78 306 1 q 49 -183 189 -158 l 43 -153 z "},"k":{"ha":821,"x_min":29,"x_max":801,"o":"m 801 35 l 801 0 l 585 0 l 272 288 l 260 278 l 260 79 q 281 46 260 57 q 333 35 301 35 l 357 35 l 357 0 l 29 0 l 29 35 l 56 35 q 110 46 89 35 q 131 79 131 57 l 131 883 q 101 913 131 913 q 60 901 90 913 l 50 933 l 225 996 l 260 996 l 260 349 l 528 571 q 543 594 543 582 q 533 611 543 606 q 506 617 524 617 l 461 617 l 461 653 l 733 653 l 733 617 l 703 617 q 661 606 685 617 q 619 579 638 596 l 356 358 l 660 76 q 710 46 681 57 q 764 35 740 35 l 801 35 z "},"ķ":{"ha":821,"x_min":29,"x_max":801,"o":"m 801 35 l 801 0 l 585 0 l 272 288 l 260 278 l 260 79 q 281 46 260 57 q 333 35 301 35 l 357 35 l 357 0 l 29 0 l 29 35 l 56 35 q 110 46 89 35 q 131 79 131 57 l 131 883 q 101 913 131 913 q 60 901 90 913 l 50 933 l 225 996 l 260 996 l 260 349 l 528 571 q 543 594 543 582 q 533 611 543 606 q 506 617 524 617 l 461 617 l 461 653 l 733 653 l 733 617 l 703 617 q 661 606 685 617 q 619 579 638 596 l 356 358 l 660 76 q 710 46 681 57 q 764 35 740 35 l 801 35 m 431 -87 q 483 -111 463 -87 q 504 -182 504 -135 q 466 -304 504 -244 q 365 -410 428 -364 l 342 -386 q 415 -254 415 -315 q 409 -227 415 -237 q 390 -200 403 -217 q 372 -174 378 -185 q 367 -149 367 -164 q 384 -105 367 -122 q 431 -87 401 -87 z "},"ĸ":{"ha":821,"x_min":29,"x_max":801,"o":"m 801 35 l 801 0 l 585 0 l 272 288 l 260 278 l 260 79 q 281 46 260 57 q 333 35 301 35 l 357 35 l 357 0 l 29 0 l 29 35 l 56 35 q 110 46 89 35 q 131 79 131 57 l 131 564 q 101 593 131 593 q 60 582 90 593 l 50 614 l 225 676 l 260 676 l 260 349 l 528 571 q 540 590 540 582 q 526 609 540 601 q 492 617 511 617 l 461 617 l 461 653 l 733 653 l 733 617 l 703 617 q 661 606 685 617 q 619 579 638 596 l 356 358 l 660 76 q 710 46 681 57 q 764 35 740 35 l 801 35 z "},"l":{"ha":419,"x_min":46,"x_max":374,"o":"m 46 35 l 71 35 q 126 46 106 35 q 146 79 146 57 l 146 883 q 117 913 146 913 q 76 901 104 913 l 67 933 l 242 996 l 276 996 l 276 79 q 297 46 276 57 q 350 35 317 35 l 374 35 l 374 0 l 46 0 l 46 35 z "},"ĺ":{"ha":419,"x_min":46,"x_max":374,"o":"m 101 1101 l 261 1250 q 279 1267 263 1251 q 322 1282 296 1282 q 357 1269 344 1282 q 369 1240 369 1257 q 322 1182 369 1208 l 125 1067 l 101 1101 m 46 35 l 71 35 q 126 46 106 35 q 146 79 146 57 l 146 883 q 117 913 146 913 q 76 901 104 913 l 67 933 l 242 996 l 276 996 l 276 79 q 297 46 276 57 q 350 35 317 35 l 374 35 l 374 0 l 46 0 l 46 35 z "},"ľ":{"ha":613,"x_min":46,"x_max":596,"o":"m 46 35 l 71 35 q 126 46 106 35 q 146 79 146 57 l 146 883 q 117 913 146 913 q 76 901 104 913 l 67 933 l 242 996 l 276 996 l 276 79 q 297 46 276 57 q 350 35 317 35 l 374 35 l 374 0 l 46 0 l 46 35 m 433 688 q 500 819 500 751 q 495 845 500 835 q 484 863 490 856 q 476 874 478 871 q 459 898 465 886 q 453 925 453 910 q 472 968 453 950 q 519 986 490 986 q 574 962 553 986 q 596 890 596 938 q 557 769 596 828 q 457 664 518 710 l 433 688 z "},"ļ":{"ha":419,"x_min":46,"x_max":374,"o":"m 46 35 l 71 35 q 126 46 106 35 q 146 79 146 57 l 146 883 q 117 913 146 913 q 76 901 104 913 l 67 933 l 242 996 l 276 996 l 276 79 q 297 46 276 57 q 350 35 317 35 l 374 35 l 374 0 l 46 0 l 46 35 m 110 -386 q 183 -254 183 -315 q 177 -227 183 -237 q 158 -200 171 -217 q 140 -174 146 -185 q 135 -149 135 -164 q 152 -105 135 -122 q 199 -87 169 -87 q 251 -111 231 -87 q 272 -182 272 -135 q 234 -304 272 -244 q 133 -410 196 -364 l 110 -386 z "},"ŀ":{"ha":578,"x_min":46,"x_max":515,"o":"m 46 35 l 71 35 q 126 46 106 35 q 146 79 146 57 l 146 883 q 117 913 146 913 q 76 901 104 913 l 67 933 l 242 996 l 276 996 l 276 79 q 297 46 276 57 q 350 35 317 35 l 374 35 l 374 0 l 46 0 l 46 35 m 446 410 q 394 429 414 410 q 375 478 375 449 q 394 528 375 510 q 446 547 413 547 q 497 528 478 547 q 515 478 515 510 q 496 429 515 449 q 446 410 476 410 z "}}}
